<svg width="307.337524" height="229.003387" viewBox="0 0 307.338 229.003" fill="none" xmlns="http://www.w3.org/2000/svg" xmlns:xlink="http://www.w3.org/1999/xlink">
	<desc>
			Created with Pixso.
	</desc>
	<defs/>
	<g opacity="0.000000">
		<path id="Vector" d="M0 201.24L307.33 201.24L307.33 201.39L0 201.39L0 201.24Z" fill="#E6E6E6" fill-opacity="1.000000" fill-rule="evenodd"/>
		<path id="Vector" d="M56.36 210.54L76.72 210.54L76.72 210.69L56.36 210.69L56.36 210.54Z" fill="#E6E6E6" fill-opacity="1.000000" fill-rule="evenodd"/>
		<path id="Vector" d="M38.12 210.54L49.92 210.54L49.92 210.69L38.12 210.69L38.12 210.54Z" fill="#E6E6E6" fill-opacity="1.000000" fill-rule="evenodd"/>
		<path id="Vector" d="M117.62 212.8L129.42 212.8L129.42 212.96L117.62 212.96L117.62 212.8Z" fill="#E6E6E6" fill-opacity="1.000000" fill-rule="evenodd"/>
		<path id="Vector" d="M164.37 216.23L190.92 216.23L190.92 216.39L164.37 216.39L164.37 216.23Z" fill="#E6E6E6" fill-opacity="1.000000" fill-rule="evenodd"/>
		<path id="Vector" d="M155.01 216.23L158.9 216.23L158.9 216.39L155.01 216.39L155.01 216.23Z" fill="#E6E6E6" fill-opacity="1.000000" fill-rule="evenodd"/>
		<path id="Vector" d="M221.08 212.8L278.66 212.8L278.66 212.96L221.08 212.96L221.08 212.8Z" fill="#E6E6E6" fill-opacity="1.000000" fill-rule="evenodd"/>
		<path id="Vector" d="M145.67 173.83L26.99 173.83C26.06 173.82 25.16 173.45 24.51 172.8C23.85 172.14 23.48 171.25 23.48 170.32L23.48 3.47C23.49 2.55 23.86 1.67 24.52 1.01C25.17 0.36 26.06 0 26.99 0L145.67 0C146.6 0 147.5 0.36 148.16 1.02C148.81 1.68 149.18 2.57 149.18 3.5L149.18 170.32C149.18 171.25 148.81 172.14 148.16 172.8C147.5 173.46 146.6 173.83 145.67 173.83ZM26.99 0.12C26.1 0.12 25.24 0.47 24.62 1.1C23.99 1.73 23.64 2.59 23.64 3.47L23.64 170.32C23.64 171.2 23.99 172.06 24.62 172.69C25.24 173.32 26.1 173.67 26.99 173.67L145.67 173.67C146.56 173.67 147.42 173.32 148.04 172.69C148.67 172.06 149.03 171.21 149.03 170.32L149.03 3.47C149.03 2.58 148.67 1.73 148.04 1.1C147.42 0.47 146.56 0.12 145.67 0.12L26.99 0.12Z" fill="#E6E6E6" fill-opacity="1.000000" fill-rule="nonzero"/>
		<path id="Vector" d="M278.63 173.83L159.94 173.83C159.01 173.82 158.12 173.45 157.46 172.8C156.8 172.14 156.43 171.25 156.43 170.32L156.43 3.47C156.44 2.55 156.81 1.67 157.47 1.01C158.13 0.36 159.02 0 159.94 0L278.63 0C279.56 0 280.44 0.37 281.1 1.02C281.75 1.67 282.12 2.55 282.13 3.47L282.13 170.32C282.13 171.24 281.76 172.14 281.11 172.79C280.45 173.45 279.56 173.82 278.63 173.83ZM159.94 0.12C159.05 0.12 158.2 0.47 157.57 1.1C156.94 1.73 156.59 2.58 156.58 3.47L156.58 170.32C156.59 171.21 156.94 172.06 157.57 172.69C158.2 173.32 159.05 173.67 159.94 173.67L278.63 173.67C279.52 173.67 280.38 173.32 281.01 172.69C281.63 172.06 281.99 171.21 281.99 170.32L281.99 3.47C281.99 2.58 281.63 1.73 281.01 1.1C280.38 0.47 279.52 0.12 278.63 0.12L159.94 0.12Z" fill="#E6E6E6" fill-opacity="1.000000" fill-rule="nonzero"/>
		<path id="Vector" d="M150.84 148.73L164.36 148.73L164.36 202.35L150.84 202.35L150.84 148.73Z" fill="#E0E0E0" fill-opacity="1.000000" fill-rule="evenodd"/>
		<path id="Vector" d="M161.79 202.35L164.36 202.35L164.36 195.05L159.1 195.05L161.79 202.35Z" fill="#FAFAFA" fill-opacity="1.000000" fill-rule="nonzero"/>
		<path id="Vector" d="M91.61 148.73L105.13 148.73L105.13 202.35L91.61 202.35L91.61 148.73Z" fill="#E0E0E0" fill-opacity="1.000000" fill-rule="evenodd"/>
		<path id="Vector" d="M102.89 148.73L164.36 148.73L164.36 197.87L102.89 197.87L102.89 148.73Z" fill="#FAFAFA" fill-opacity="1.000000" fill-rule="evenodd"/>
		<path id="Vector" d="M162.13 151.15L162.13 164.15L105.1 164.15L105.1 151.15L162.11 151.15L162.13 151.15ZM162.35 150.91L104.88 150.91L104.88 164.38L162.37 164.38L162.37 150.91L162.35 150.91Z" fill="#E0E0E0" fill-opacity="1.000000" fill-rule="nonzero"/>
		<path id="Vector" d="M105.46 202.35L102.89 202.35L102.89 195.05L108.15 195.05L105.46 202.35Z" fill="#FAFAFA" fill-opacity="1.000000" fill-rule="nonzero"/>
		<path id="Vector" d="M132.27 157.65C132.27 157.92 132.35 158.18 132.5 158.4C132.64 158.63 132.86 158.8 133.11 158.9C133.35 159 133.63 159.03 133.89 158.98C134.15 158.93 134.4 158.8 134.59 158.61C134.78 158.42 134.91 158.17 134.96 157.91C135.01 157.65 134.98 157.38 134.88 157.13C134.78 156.88 134.6 156.67 134.38 156.52C134.16 156.37 133.89 156.29 133.63 156.29C133.27 156.29 132.92 156.43 132.67 156.69C132.41 156.94 132.27 157.29 132.27 157.65Z" fill="#E6E6E6" fill-opacity="1.000000" fill-rule="nonzero"/>
		<path id="Vector" d="M162.13 166.8L162.13 179.8L105.1 179.8L105.1 166.8L162.11 166.8L162.13 166.8ZM162.35 166.57L104.88 166.57L104.88 180.04L162.37 180.04L162.37 166.57L162.35 166.57Z" fill="#E0E0E0" fill-opacity="1.000000" fill-rule="nonzero"/>
		<path id="Vector" d="M132.27 173.33C132.27 173.6 132.35 173.87 132.5 174.09C132.64 174.31 132.86 174.49 133.11 174.59C133.35 174.69 133.63 174.72 133.89 174.67C134.15 174.61 134.4 174.48 134.59 174.29C134.78 174.1 134.91 173.86 134.96 173.6C135.01 173.34 134.98 173.06 134.88 172.81C134.78 172.57 134.6 172.35 134.38 172.2C134.16 172.06 133.89 171.98 133.63 171.98C133.27 171.98 132.92 172.12 132.67 172.37C132.41 172.63 132.27 172.97 132.27 173.33Z" fill="#E6E6E6" fill-opacity="1.000000" fill-rule="nonzero"/>
		<path id="Vector" d="M162.13 182.46L162.13 195.46L105.1 195.46L105.1 182.46L162.11 182.46L162.13 182.46ZM162.35 182.22L104.88 182.22L104.88 195.7L162.37 195.7L162.37 182.22L162.35 182.22Z" fill="#E0E0E0" fill-opacity="1.000000" fill-rule="nonzero"/>
		<path id="Vector" d="M132.27 188.96C132.27 189.23 132.35 189.49 132.5 189.71C132.65 189.93 132.86 190.11 133.11 190.21C133.36 190.31 133.63 190.34 133.89 190.28C134.16 190.23 134.4 190.1 134.59 189.91C134.78 189.72 134.91 189.48 134.96 189.22C135.01 188.95 134.98 188.68 134.88 188.43C134.78 188.18 134.6 187.97 134.38 187.82C134.16 187.67 133.89 187.59 133.63 187.59C133.45 187.59 133.27 187.63 133.1 187.7C132.94 187.77 132.79 187.87 132.66 187.99C132.54 188.12 132.44 188.27 132.37 188.44C132.3 188.6 132.27 188.78 132.27 188.96Z" fill="#E6E6E6" fill-opacity="1.000000" fill-rule="nonzero"/>
		<path id="Vector" d="M83.36 117.6L96.87 117.6L96.87 202.36L83.36 202.36L83.36 117.6Z" fill="#E0E0E0" fill-opacity="1.000000" fill-rule="evenodd"/>
		<path id="Vector" d="M94.3 202.35L96.87 202.35L96.87 195.05L91.62 195.05L94.3 202.35Z" fill="#FAFAFA" fill-opacity="1.000000" fill-rule="nonzero"/>
		<path id="Vector" d="M32.84 117.6L46.36 117.6L46.36 202.36L32.84 202.36L32.84 117.6Z" fill="#E0E0E0" fill-opacity="1.000000" fill-rule="evenodd"/>
		<path id="Vector" d="M44.12 117.6L96.87 117.6L96.87 197.88L44.12 197.88L44.12 117.6Z" fill="#FAFAFA" fill-opacity="1.000000" fill-rule="evenodd"/>
		<path id="Vector" d="M94.6 119.86L94.6 138.03L46.39 138.03L46.39 119.86L94.6 119.86ZM94.88 119.58L46.1 119.58L46.1 138.3L94.87 138.3L94.87 119.59L94.88 119.58Z" fill="#E0E0E0" fill-opacity="1.000000" fill-rule="nonzero"/>
		<path id="Vector" d="M94.6 140.25L94.6 188.46L71.64 188.46L71.64 140.25L94.6 140.25ZM94.88 139.97L71.36 139.97L71.36 188.74L94.88 188.74L94.88 139.97Z" fill="#E0E0E0" fill-opacity="1.000000" fill-rule="nonzero"/>
		<path id="Vector" d="M69.36 140.25L69.36 188.46L46.39 188.46L46.39 140.25L69.36 140.25ZM69.63 139.97L46.1 139.97L46.1 188.74L69.62 188.74L69.62 139.97L69.63 139.97Z" fill="#E0E0E0" fill-opacity="1.000000" fill-rule="nonzero"/>
		<path id="Vector" d="M46.69 202.35L44.12 202.35L44.12 195.05L49.38 195.05L46.69 202.35Z" fill="#FAFAFA" fill-opacity="1.000000" fill-rule="nonzero"/>
		<path id="Vector" d="M69.13 128.95C69.13 129.22 69.21 129.49 69.36 129.71C69.51 129.94 69.72 130.12 69.97 130.22C70.22 130.32 70.5 130.35 70.76 130.3C71.03 130.25 71.27 130.12 71.46 129.93C71.65 129.74 71.78 129.49 71.84 129.23C71.89 128.96 71.86 128.69 71.76 128.44C71.66 128.19 71.48 127.98 71.26 127.83C71.03 127.68 70.77 127.6 70.5 127.6C70.14 127.6 69.79 127.74 69.54 127.99C69.28 128.25 69.14 128.59 69.13 128.95Z" fill="#E6E6E6" fill-opacity="1.000000" fill-rule="nonzero"/>
		<path id="Vector" d="M74 163.21C74 163.48 74.08 163.74 74.23 163.97C74.38 164.19 74.6 164.37 74.85 164.47C75.1 164.57 75.37 164.6 75.64 164.55C75.9 164.49 76.14 164.36 76.33 164.17C76.52 163.98 76.65 163.74 76.71 163.47C76.76 163.21 76.73 162.93 76.63 162.68C76.52 162.43 76.35 162.22 76.12 162.07C75.9 161.92 75.63 161.84 75.36 161.85C75.18 161.85 75 161.88 74.84 161.95C74.67 162.02 74.52 162.12 74.4 162.25C74.27 162.37 74.17 162.52 74.1 162.69C74.04 162.85 74 163.03 74 163.21Z" fill="#E6E6E6" fill-opacity="1.000000" fill-rule="nonzero"/>
		<path id="Vector" d="M64.27 163.21C64.27 163.48 64.35 163.74 64.5 163.96C64.65 164.19 64.87 164.36 65.11 164.46C65.36 164.56 65.64 164.59 65.9 164.54C66.16 164.48 66.4 164.35 66.59 164.16C66.78 163.97 66.91 163.73 66.96 163.47C67.01 163.2 66.99 162.93 66.88 162.68C66.78 162.43 66.61 162.22 66.38 162.07C66.16 161.92 65.9 161.85 65.63 161.85C65.45 161.85 65.27 161.88 65.11 161.95C64.94 162.02 64.79 162.12 64.67 162.25C64.54 162.37 64.44 162.52 64.37 162.69C64.31 162.85 64.27 163.03 64.27 163.21Z" fill="#E6E6E6" fill-opacity="1.000000" fill-rule="nonzero"/>
		<path id="Vector" d="M62.73 93.96L57.04 93.96C57.56 96.72 57.89 99.52 58.03 102.33C58.03 105.41 53.69 117.6 59.87 117.6C66.05 117.6 61.71 105.44 61.71 102.33C61.86 99.52 62.2 96.72 62.73 93.96Z" fill="#E0E0E0" fill-opacity="1.000000" fill-rule="nonzero"/>
		<path id="Vector" d="M41.06 106.43L41.06 110.11C41.06 112.09 41.85 113.99 43.25 115.38C44.65 116.78 46.54 117.57 48.52 117.58L52.21 117.58C54.18 117.57 56.08 116.78 57.47 115.38C58.87 113.99 59.66 112.09 59.67 110.11L59.67 106.43L41.06 106.43Z" fill="#F5F5F5" fill-opacity="1.000000" fill-rule="nonzero"/>
		<path id="Vector" d="M120.27 140.92C120.27 145.22 125.08 148.73 130.96 148.73L136.28 148.73C142.16 148.73 146.97 145.22 146.97 140.92L120.27 140.92Z" fill="#E0E0E0" fill-opacity="1.000000" fill-rule="nonzero"/>
		<path id="Vector" d="M260.99 134.61C257.77 137.24 253.32 142.05 249.25 148.83C246.54 153.34 244.9 158.05 244.18 164.3C244.18 157.24 244.22 149.64 244.25 142.48C245.07 140.63 246.94 136.38 248.28 133.02C252.74 121.82 254.42 119.06 258.44 109.4C263.8 96.49 269.3 81.21 267.72 82.43C264.51 84.92 252.22 107.94 250.89 111.23C247.27 120.03 245.04 129.33 244.26 138.8C244.26 132.04 244.31 125.89 244.33 121.12C244.42 105.57 244.69 100.54 244.81 98.99C245.31 98.21 245.9 97.29 246.24 96.8C249.13 92.62 250.24 89.07 252.96 82.83C256.82 74.01 260.14 58.35 259.17 59.13C255.12 62.43 251.94 69.5 247.75 78.51C243.55 87.53 244.75 92.71 243.92 100.41C243.75 101.92 243.62 107.63 243.52 115.52C242.44 107.1 240.39 101.56 236.68 96.52C232.1 90.32 227.68 86.13 224.43 83.94C221.19 81.75 230.04 96.98 234.27 103.61C238.03 109.54 241.51 114.76 243.49 119.9C243.38 130.61 243.33 144.17 243.33 156.78C242.36 151.04 240.78 144.85 238.66 140.06C236.12 134.31 232.21 125.48 229.09 122.49C228.35 121.77 232.35 138.94 234.92 143.5C237.49 148.06 239.37 152.37 240.99 154.96C241.37 155.57 242.62 157.89 243.33 159.23C243.33 174.64 243.42 188.23 243.55 192.86L244.22 192.86C244.18 191.67 244.16 183.83 244.18 173.45C245.79 167.82 249.45 161.39 252.47 155.53C255.77 149.18 264.21 132 260.99 134.61Z" fill="#E0E0E0" fill-opacity="1.000000" fill-rule="nonzero"/>
		<path id="Vector" d="M253.51 202.35L234.25 202.35L232.79 183.47L254.97 183.47L253.51 202.35Z" fill="#F0F0F0" fill-opacity="1.000000" fill-rule="nonzero"/>
		<path id="Vector" d="M256.4 185.67L231.35 185.67L230.64 179.3L257.12 179.3L256.4 185.67Z" fill="#F5F5F5" fill-opacity="1.000000" fill-rule="nonzero"/>
		<path id="Vector" d="M41.92 12.6L76.37 12.6L76.37 50.43L41.92 50.43L41.92 12.6Z" fill="#E0E0E0" fill-opacity="1.000000" fill-rule="evenodd"/>
		<path id="Vector" d="M44.52 12.6L80.11 12.6L80.11 50.43L44.52 50.43L44.52 12.6Z" fill="#F5F5F5" fill-opacity="1.000000" fill-rule="evenodd"/>
		<path id="Vector" d="M77.12 15.58L77.12 47.45L47.5 47.45L47.5 15.58L77.12 15.58Z" fill="#FFFFFF" fill-opacity="1.000000" fill-rule="evenodd"/>
		<path id="Vector" d="M69.94 23.3L69.94 39.72L54.68 39.72L54.68 23.3L69.94 23.3Z" fill="#F5F5F5" fill-opacity="1.000000" fill-rule="evenodd"/>
		<path id="Vector" d="M220.04 17L252.04 17L252.04 52.15L220.04 52.15L220.04 17Z" fill="#E0E0E0" fill-opacity="1.000000" fill-rule="evenodd"/>
		<path id="Vector" d="M222.45 17L255.51 17L255.51 52.15L222.45 52.15L222.45 17Z" fill="#F5F5F5" fill-opacity="1.000000" fill-rule="evenodd"/>
		<path id="Vector" d="M252.74 19.78L252.74 49.38L225.22 49.38L225.22 19.78L252.74 19.78Z" fill="#FFFFFF" fill-opacity="1.000000" fill-rule="evenodd"/>
		<path id="Vector" d="M247.57 34.58C247.57 39.32 243.72 43.16 238.98 43.16C234.24 43.16 230.39 39.32 230.39 34.58C230.39 29.83 234.24 25.99 238.98 25.99C243.72 25.99 247.57 29.83 247.57 34.58Z" fill="#F5F5F5" fill-opacity="1.000000" fill-rule="evenodd"/>
		<path id="Vector" d="M86.61 35.15L112.17 35.15L112.17 63.22L86.61 63.22L86.61 35.15Z" fill="#E0E0E0" fill-opacity="1.000000" fill-rule="evenodd"/>
		<path id="Vector" d="M88.53 35.15L114.93 35.15L114.93 63.22L88.53 63.22L88.53 35.15Z" fill="#F5F5F5" fill-opacity="1.000000" fill-rule="evenodd"/>
		<path id="Vector" d="M112.72 37.37L112.72 61.01L90.75 61.01L90.75 37.37L112.72 37.37Z" fill="#FFFFFF" fill-opacity="1.000000" fill-rule="evenodd"/>
		<path id="Vector" d="M101.74 43.21L95.72 53.62L107.75 53.62L101.74 43.21Z" fill="#F5F5F5" fill-opacity="1.000000" fill-rule="nonzero"/>
	</g>
	<g opacity="0.000000">
		<path id="Vector" d="M82.64 112.32C118.63 149.42 165.91 175.18 209.75 133.61C232.34 112.19 262.2 54.36 232.74 27.88C192.12 -8.59 168.81 51.09 138.46 59.18C117.65 64.71 100.15 32.74 75.24 54.1C55.54 70.97 67.68 96.9 82.64 112.32Z" fill="#4CAF4F" fill-opacity="1.000000" fill-rule="nonzero"/>
		<g opacity="0.900000">
			<path id="Vector" d="M82.64 112.32C118.63 149.42 165.91 175.18 209.75 133.61C232.34 112.19 262.2 54.36 232.74 27.88C192.12 -8.59 168.81 51.09 138.46 59.18C117.65 64.71 100.15 32.74 75.24 54.1C55.54 70.97 67.68 96.9 82.64 112.32Z" fill="#FFFFFF" fill-opacity="1.000000" fill-rule="nonzero"/>
		</g>
	</g>
	<path id="Vector" d="M272.84 222.04C272.84 225.88 219.49 229 153.66 229C87.84 229 34.48 225.88 34.48 222.04C34.48 218.2 87.84 215.08 153.66 215.08C219.49 215.08 272.84 218.2 272.84 222.04Z" fill="#F5F5F5" fill-opacity="1.000000" fill-rule="evenodd"/>
	<path id="Vector" d="M214.67 66.64L208.57 64.19C208.57 64.19 200.53 78.86 198.22 79.6C195.09 80.61 188.6 83.41 184.75 83.9C184.23 84.52 183.37 86.43 183.45 87.13C188.62 88.85 199.98 86.56 202.41 84.75C207.95 80.65 214.67 66.64 214.67 66.64Z" fill="#E58A7B" fill-opacity="1.000000" fill-rule="nonzero"/>
	<path id="Vector" d="M216.55 63.31C217.68 67.5 211.52 75.95 211.52 75.95L203.45 71.43C203.45 71.43 204.96 67.95 206.81 64.42C209.77 58.71 215.25 58.52 216.55 63.31Z" fill="#4CAF4F" fill-opacity="1.000000" fill-rule="nonzero"/>
	<g opacity="0.200000">
		<path id="Vector" d="M216.55 63.31C217.68 67.5 211.52 75.95 211.52 75.95L203.45 71.43C203.45 71.43 204.96 67.95 206.81 64.42C209.77 58.71 215.25 58.52 216.55 63.31Z" fill="#000000" fill-opacity="1.000000" fill-rule="nonzero"/>
	</g>
	<g opacity="0.200000">
		<path id="Vector" d="M206.66 73.23L209.83 75.02L210.39 65.26C208.54 66.68 207.24 70.96 206.66 73.23Z" fill="#000000" fill-opacity="1.000000" fill-rule="nonzero"/>
	</g>
	<path id="Vector" d="M211.23 60.15C211.23 60.15 204.95 74.12 208.62 100.15L233.37 100.15C233.76 96.35 232.46 77.81 237.17 59.91C234.46 59.38 231.71 59.03 228.95 58.86C225.45 58.66 221.94 58.66 218.43 58.86C216 59.11 213.6 59.54 211.23 60.15Z" fill="#4CAF4F" fill-opacity="1.000000" fill-rule="nonzero"/>
	<g opacity="0.200000">
		<path id="Vector" d="M211.23 60.15C211.23 60.15 204.95 74.12 208.62 100.15L233.37 100.15C233.76 96.35 232.46 77.81 237.17 59.91C234.46 59.38 231.71 59.03 228.95 58.86C225.45 58.66 221.94 58.66 218.43 58.86C216 59.11 213.6 59.54 211.23 60.15Z" fill="#000000" fill-opacity="1.000000" fill-rule="nonzero"/>
	</g>
	<g style="mix-blend-mode:multiply">
		<path id="Vector" d="M205.49 222.59C205.46 223.26 214.84 223.79 226.45 223.79C238.07 223.79 247.52 223.26 247.56 222.59C247.59 221.93 238.21 221.4 226.6 221.4C214.98 221.4 205.54 221.94 205.49 222.59Z" fill="#E8ECF1" fill-opacity="1.000000" fill-rule="nonzero"/>
	</g>
	<path id="Vector" d="M217.63 206.85L222.02 205.15L225.8 214.92L221.41 216.62L217.63 206.85Z" fill="#E58A7B" fill-opacity="1.000000" fill-rule="evenodd"/>
	<path id="Vector" d="M241.59 217.87L236.96 217.87L235.27 207.15L239.9 207.15L241.59 217.87Z" fill="#E58A7B" fill-opacity="1.000000" fill-rule="nonzero"/>
	<path id="Vector" d="M236.65 217.33L241.85 217.33C241.94 217.33 242.02 217.36 242.09 217.42C242.16 217.48 242.21 217.56 242.22 217.65L242.89 221.76C242.9 221.87 242.9 221.97 242.87 222.07C242.84 222.17 242.79 222.26 242.72 222.34C242.65 222.42 242.56 222.48 242.47 222.52C242.37 222.57 242.27 222.59 242.17 222.59C240.35 222.56 239.48 222.45 237.19 222.45C235.78 222.45 232.89 222.59 230.94 222.59C228.98 222.59 228.85 220.68 229.66 220.5C233.27 219.72 234.67 218.65 235.88 217.62C236.09 217.43 236.36 217.33 236.65 217.33Z" fill="#263238" fill-opacity="1.000000" fill-rule="nonzero"/>
	<path id="Vector" d="M221.28 215.75L226.2 214.31C226.28 214.28 226.38 214.29 226.46 214.33C226.54 214.36 226.61 214.42 226.66 214.5L228.5 218.19C228.54 218.29 228.57 218.39 228.57 218.49C228.56 218.59 228.54 218.7 228.5 218.79C228.45 218.88 228.39 218.96 228.31 219.03C228.23 219.1 228.14 219.14 228.04 219.17C226.25 219.66 225.05 219.96 222.82 220.61C221.27 221.06 219.7 221.79 218.17 222.28C217.12 222.62 214.63 222.63 213.35 222.63C211.45 222.63 211.03 220.63 211.84 220.53C213.9 220.31 214.18 220.41 215.32 219.84C217.18 219.03 218.86 217.86 220.28 216.41C220.55 216.11 220.89 215.88 221.28 215.75Z" fill="#263238" fill-opacity="1.000000" fill-rule="nonzero"/>
	<path id="Vector" d="M185.52 83.88L180.43 81.75L178.34 87.39C180.42 87.71 182.55 87.71 184.63 87.39L185.52 83.88Z" fill="#E58A7B" fill-opacity="1.000000" fill-rule="nonzero"/>
	<path id="Vector" d="M176.65 81.6L176.51 85.35L178.34 87.38L180.43 81.73L176.65 81.6Z" fill="#E58A7B" fill-opacity="1.000000" fill-rule="nonzero"/>
	<path id="Vector" d="M218.21 207.68L222.62 205.98L224.57 211.03L220.17 212.73L218.21 207.68Z" fill="#CF6F64" fill-opacity="1.000000" fill-rule="evenodd"/>
	<path id="Vector" d="M239.9 207.15L235.27 207.15L236.15 212.68L240.78 212.68L239.9 207.15Z" fill="#CF6F64" fill-opacity="1.000000" fill-rule="nonzero"/>
	<g opacity="0.200000">
		<path id="Vector" d="M207.83 93.11C207.92 94.22 208.03 95.36 208.16 96.53L226.56 90.56C229.44 89.7 231.94 87.9 233.65 85.43C233.72 83.79 233.81 82.07 233.95 80.27C234.01 79.39 234.09 78.5 234.17 77.59C234.25 76.68 234.36 75.67 234.48 74.7L207.83 93.11Z" fill="#000000" fill-opacity="1.000000" fill-rule="nonzero"/>
	</g>
	<path id="Vector" d="M213.84 72.95L213.23 72.88C213.59 69.8 215.88 67.38 218.3 67.44L218.3 68.06C216.18 68.01 214.17 70.2 213.84 72.95Z" fill="#FFFFFF" fill-opacity="1.000000" fill-rule="nonzero"/>
	<path id="Vector" d="M217.12 78.62L217.01 78.62L217.01 78.01C219.13 78.09 221.11 75.88 221.44 73.14L222.05 73.21C221.73 76.21 219.51 78.62 217.12 78.62Z" fill="#FFFFFF" fill-opacity="1.000000" fill-rule="nonzero"/>
	<path id="Vector" d="M228.61 47.02C227.74 50.4 226.72 56.61 228.95 58.86C228.95 58.86 227.39 62.3 221.1 62.3C215.35 62.3 218.43 58.86 218.43 58.86C222.26 57.97 222.32 55.17 221.82 52.53L228.61 47.02Z" fill="#E58A7B" fill-opacity="1.000000" fill-rule="nonzero"/>
	<path id="Vector" d="M225.84 49.27L221.83 52.53C221.95 53.14 222.02 53.76 222.04 54.38C223.21 55.54 225.57 52.59 225.81 51.07C225.93 50.48 225.94 49.87 225.84 49.27Z" fill="#CF6F64" fill-opacity="1.000000" fill-rule="nonzero"/>
	<path id="Vector" d="M214.92 46.97C215.2 47.46 215.58 47.88 216.03 48.21C216.48 48.54 216.99 48.78 217.54 48.9C219.01 49.23 219.75 47.87 219.34 46.51C218.98 45.28 217.77 43.62 216.27 43.91C215.95 43.97 215.65 44.12 215.39 44.32C215.14 44.53 214.94 44.79 214.8 45.09C214.67 45.39 214.61 45.72 214.63 46.05C214.66 46.38 214.75 46.69 214.92 46.97Z" fill="#CF6F64" fill-opacity="1.000000" fill-rule="nonzero"/>
	<path id="Vector" d="M217.36 36.14C215.06 37.19 214.25 46.32 217.14 47.68C220.03 49.03 221.71 34.14 217.36 36.14Z" fill="#263238" fill-opacity="1.000000" fill-rule="nonzero"/>
	<path id="Vector" d="M229.31 41.92C228.75 46.51 228.69 49.21 226.23 51.55C225.47 52.33 224.51 52.89 223.45 53.15C222.4 53.42 221.29 53.39 220.25 53.07C219.2 52.74 218.27 52.14 217.56 51.32C216.84 50.5 216.36 49.49 216.18 48.42C215.43 44.3 216.46 37.5 221.06 35.67C222.02 35.24 223.09 35.08 224.13 35.21C225.18 35.33 226.18 35.73 227.02 36.37C227.86 37.01 228.52 37.86 228.92 38.83C229.32 39.81 229.46 40.88 229.31 41.92Z" fill="#E58A7B" fill-opacity="1.000000" fill-rule="nonzero"/>
	<path id="Vector" d="M221.75 38.51C225.16 37.64 227.66 37.05 226.76 39.89C225.58 43.67 224.15 47.34 226.06 47.5C227.23 47.61 232.39 45.42 231.73 43.2C231.16 41.27 233.58 40.74 234.01 39.76C235.6 36.22 231.05 36.69 231.86 34.54C232.67 32.39 228.17 28.92 225.71 30.65C221.71 33.44 214.84 33.4 218.45 28.8C221.04 25.53 216.42 26.2 216.42 26.2C216.42 26.2 219.21 27.85 214.52 30.41C209.55 33.14 214.11 40.47 221.75 38.51Z" fill="#263238" fill-opacity="1.000000" fill-rule="nonzero"/>
	<path id="Vector" d="M231.11 46.97C230.44 47.95 229.43 48.64 228.28 48.9C226.76 49.23 226.18 47.87 226.75 46.51C227.26 45.28 228.66 43.62 230.11 43.91C231.56 44.19 231.89 45.77 231.11 46.97Z" fill="#E58A7B" fill-opacity="1.000000" fill-rule="nonzero"/>
	<path id="Vector" d="M208.62 100.15C208.62 100.15 204.46 137.34 204.14 151.45C203.8 166.13 218.22 211.93 218.22 211.93L225.59 208.86C225.59 208.86 216.99 167.01 218.22 152.59C219.52 136.88 224.91 100.18 224.91 100.18L208.62 100.15Z" fill="#4CAF4F" fill-opacity="1.000000" fill-rule="nonzero"/>
	<g opacity="0.200000">
		<path id="Vector" d="M218.94 110.36C215.63 117.23 217.86 130.82 219.66 138.88C220.34 133.19 221.15 127.02 221.92 121.31C221.84 112.53 221.16 105.75 218.94 110.36Z" fill="#000000" fill-opacity="1.000000" fill-rule="nonzero"/>
	</g>
	<path id="Vector" d="M225.27 206.42C225.3 206.42 226.14 208.77 226.14 208.77L217.63 212.35L216.29 209.85L225.27 206.42Z" fill="#4CAF4F" fill-opacity="1.000000" fill-rule="nonzero"/>
	<path id="Vector" d="M217.4 100.15C217.4 100.15 220.58 135.52 222.68 148.77C224.99 163.28 234.05 211.61 234.05 211.61L242.53 211.61C242.53 211.61 237.45 164.45 236.49 150.08C235.45 134.49 233.37 100.15 233.37 100.15L217.4 100.15Z" fill="#4CAF4F" fill-opacity="1.000000" fill-rule="nonzero"/>
	<path id="Vector" d="M242.66 209.4C242.69 209.4 242.94 211.77 242.94 211.77L233.62 211.77L232.96 209.05L242.66 209.4Z" fill="#4CAF4F" fill-opacity="1.000000" fill-rule="nonzero"/>
	<g opacity="0.200000">
		<path id="Vector" d="M239.41 206.6C239.39 206.6 239.37 206.59 239.36 206.58C239.34 206.57 239.33 206.55 239.33 206.53C239.28 206.1 234.7 163.5 233.84 150.6C232.91 136.59 231.03 105.54 231.01 105.22C231.01 105.21 231.01 105.2 231.01 105.19C231.02 105.18 231.02 105.17 231.03 105.17C231.04 105.16 231.04 105.15 231.05 105.15C231.06 105.14 231.07 105.14 231.08 105.14C231.1 105.14 231.12 105.15 231.14 105.16C231.15 105.18 231.16 105.2 231.16 105.22C231.16 105.53 233.06 136.56 234 150.59C234.86 163.5 239.44 206.07 239.48 206.53C239.48 206.54 239.48 206.55 239.48 206.56C239.48 206.57 239.47 206.58 239.46 206.58C239.46 206.59 239.45 206.6 239.44 206.6C239.43 206.61 239.42 206.61 239.41 206.61L239.41 206.6Z" fill="#000000" fill-opacity="1.000000" fill-rule="nonzero"/>
	</g>
	<path id="Vector" d="M222.27 43.2C222.27 43.58 222.04 43.88 221.79 43.88C221.55 43.88 221.37 43.58 221.4 43.2C221.42 42.83 221.63 42.52 221.87 42.52C222.12 42.52 222.3 42.83 222.27 43.2Z" fill="#263238" fill-opacity="1.000000" fill-rule="nonzero"/>
	<path id="Vector" d="M218.06 43.2C218.06 43.58 217.82 43.88 217.58 43.88C217.34 43.88 217.15 43.58 217.17 43.2C217.19 42.83 217.41 42.52 217.66 42.52C217.9 42.52 218.08 42.83 218.06 43.2Z" fill="#263238" fill-opacity="1.000000" fill-rule="nonzero"/>
	<path id="Vector" d="M219.39 43.39C218.87 44.54 218.21 45.61 217.42 46.58C218.03 47.2 219.18 46.91 219.18 46.91L219.39 43.39Z" fill="#DF5753" fill-opacity="1.000000" fill-rule="nonzero"/>
	<path id="Vector" d="M219.5 48.48C219.48 48.48 219.47 48.48 219.45 48.47C219.44 48.47 219.43 48.46 219.42 48.45C219.41 48.44 219.4 48.43 219.4 48.41C219.39 48.4 219.39 48.38 219.39 48.37C219.39 48.34 219.41 48.31 219.43 48.29C219.45 48.27 219.48 48.26 219.51 48.26C219.98 48.26 220.44 48.16 220.87 47.96C221.29 47.76 221.67 47.47 221.97 47.1C221.99 47.09 222.02 47.07 222.04 47.07C222.07 47.07 222.1 47.09 222.12 47.1C222.14 47.12 222.15 47.15 222.15 47.18C222.15 47.21 222.14 47.24 222.12 47.26C221.8 47.64 221.4 47.95 220.95 48.17C220.49 48.38 220 48.49 219.5 48.48Z" fill="#263238" fill-opacity="1.000000" fill-rule="nonzero"/>
	<path id="Vector" d="M223.02 42.07C222.99 42.08 222.96 42.09 222.93 42.09C222.9 42.09 222.86 42.08 222.83 42.07C222.6 41.92 222.34 41.83 222.07 41.8C221.8 41.77 221.52 41.81 221.27 41.9C221.24 41.92 221.21 41.92 221.19 41.93C221.16 41.93 221.13 41.92 221.1 41.91C221.08 41.9 221.05 41.89 221.03 41.87C221.01 41.85 221 41.83 220.98 41.81C220.96 41.75 220.96 41.69 220.98 41.63C221 41.58 221.05 41.53 221.1 41.51C221.42 41.38 221.77 41.33 222.12 41.36C222.46 41.39 222.79 41.51 223.09 41.69C223.11 41.71 223.13 41.73 223.14 41.76C223.16 41.78 223.17 41.81 223.18 41.83C223.18 41.86 223.18 41.89 223.17 41.92C223.17 41.95 223.16 41.97 223.14 42C223.11 42.03 223.07 42.06 223.02 42.07Z" fill="#263238" fill-opacity="1.000000" fill-rule="nonzero"/>
	<path id="Vector" d="M216.43 40.84C216.4 40.83 216.37 40.82 216.34 40.79C216.32 40.77 216.31 40.75 216.29 40.72C216.28 40.69 216.28 40.67 216.28 40.64C216.28 40.61 216.28 40.58 216.29 40.55C216.31 40.53 216.32 40.5 216.34 40.48C216.58 40.22 216.87 40.01 217.2 39.88C217.53 39.75 217.88 39.69 218.24 39.72C218.26 39.73 218.29 39.74 218.32 39.75C218.34 39.77 218.36 39.79 218.38 39.81C218.39 39.83 218.4 39.86 218.41 39.89C218.41 39.92 218.41 39.95 218.41 39.97C218.39 40.03 218.36 40.08 218.31 40.11C218.27 40.15 218.21 40.16 218.15 40.16C217.87 40.14 217.59 40.19 217.33 40.29C217.07 40.4 216.84 40.56 216.66 40.77C216.63 40.8 216.59 40.83 216.55 40.84C216.51 40.85 216.47 40.85 216.43 40.84Z" fill="#263238" fill-opacity="1.000000" fill-rule="nonzero"/>
	<path id="Vector" d="M239.55 65.96L233.16 64.26C233.16 64.26 226.89 79.69 224.67 80.7C221.66 82.07 214.03 86.84 210.79 89.1C210.61 89.87 210.75 91.9 211.15 92.46C216.69 91.45 227.28 87.38 229.49 85.31C234.54 80.58 239.55 65.96 239.55 65.96Z" fill="#E58A7B" fill-opacity="1.000000" fill-rule="nonzero"/>
	<path id="Vector" d="M235.09 218.14C234.78 218.17 234.47 218.08 234.21 217.9C234.13 217.83 234.07 217.74 234.04 217.64C234.01 217.54 234 217.43 234.02 217.33C234.02 217.26 234.05 217.2 234.08 217.14C234.12 217.09 234.17 217.05 234.23 217.02C234.75 216.75 236.19 217.67 236.36 217.77C236.37 217.79 236.39 217.8 236.4 217.82C236.4 217.84 236.41 217.86 236.4 217.89C236.39 217.91 236.38 217.93 236.37 217.94C236.35 217.96 236.33 217.97 236.31 217.98C235.91 218.08 235.5 218.13 235.09 218.14ZM234.48 217.18C234.43 217.17 234.38 217.17 234.33 217.18C234.31 217.2 234.29 217.22 234.28 217.24C234.26 217.26 234.26 217.29 234.26 217.31C234.24 217.39 234.25 217.46 234.27 217.53C234.29 217.6 234.33 217.66 234.38 217.71C234.62 217.93 235.23 217.95 236.02 217.8C235.55 217.49 235.01 217.28 234.46 217.18L234.48 217.18Z" fill="#4CAF4F" fill-opacity="1.000000" fill-rule="nonzero"/>
	<path id="Vector" d="M236.28 217.98C236.27 217.98 236.25 217.98 236.23 217.98C235.77 217.72 234.91 216.71 235.03 216.19C235.05 216.11 235.1 216.03 235.17 215.98C235.23 215.93 235.31 215.9 235.4 215.9C235.48 215.89 235.56 215.9 235.64 215.92C235.72 215.94 235.8 215.99 235.86 216.04C236.37 216.48 236.4 217.82 236.4 217.89C236.4 217.91 236.4 217.93 236.39 217.94C236.38 217.96 236.36 217.98 236.34 217.98C236.32 217.99 236.3 217.99 236.28 217.98ZM235.46 216.1L235.42 216.1C235.27 216.1 235.26 216.18 235.25 216.21C235.18 216.51 235.72 217.28 236.18 217.65C236.18 217.13 236.02 216.62 235.72 216.2C235.65 216.13 235.55 216.1 235.46 216.1Z" fill="#4CAF4F" fill-opacity="1.000000" fill-rule="nonzero"/>
	<path id="Vector" d="M218.77 217.38C218.39 217.51 217.99 217.51 217.61 217.38C217.52 217.33 217.45 217.26 217.4 217.18C217.35 217.1 217.31 217.01 217.31 216.91C217.3 216.85 217.31 216.79 217.33 216.73C217.35 216.67 217.39 216.62 217.44 216.58C217.93 216.14 219.94 216.58 220.17 216.67C220.19 216.67 220.21 216.69 220.22 216.7C220.23 216.72 220.24 216.74 220.24 216.77C220.24 216.79 220.23 216.81 220.22 216.83C220.21 216.85 220.19 216.87 220.17 216.88C219.72 217.08 219.25 217.25 218.77 217.38ZM217.77 216.64C217.7 216.66 217.63 216.69 217.58 216.74C217.56 216.75 217.54 216.77 217.53 216.79C217.53 216.82 217.52 216.84 217.53 216.87C217.53 216.93 217.55 216.99 217.59 217.05C217.62 217.1 217.67 217.15 217.73 217.18C218.05 217.35 218.81 217.22 219.78 216.8C219.13 216.64 218.44 216.58 217.77 216.64Z" fill="#4CAF4F" fill-opacity="1.000000" fill-rule="nonzero"/>
	<path id="Vector" d="M220.15 216.88L220.1 216.88C219.49 216.77 218.26 216.06 218.22 215.53C218.22 215.41 218.28 215.24 218.57 215.14C218.67 215.1 218.78 215.09 218.89 215.09C218.99 215.1 219.09 215.13 219.19 215.17C219.85 215.5 220.2 216.68 220.22 216.74C220.23 216.75 220.22 216.77 220.22 216.79C220.21 216.81 220.2 216.83 220.19 216.84C220.18 216.86 220.17 216.87 220.15 216.88ZM218.7 215.32L218.64 215.32C218.44 215.39 218.44 215.47 218.44 215.49C218.44 215.81 219.34 216.4 219.96 216.59C219.81 216.1 219.51 215.67 219.1 215.37C218.97 215.3 218.83 215.29 218.7 215.32Z" fill="#4CAF4F" fill-opacity="1.000000" fill-rule="nonzero"/>
	<path id="Vector" d="M211.31 88.74L204.9 91.69L204.15 93.53L206.52 95.12C206.52 95.12 210.95 94.64 212.21 91.8L211.31 88.74Z" fill="#E58A7B" fill-opacity="1.000000" fill-rule="nonzero"/>
	<path id="Vector" d="M211.58 92.57C211.44 91.33 211.03 90.15 210.39 89.09L211.4 88.32C212.16 89.55 212.65 90.92 212.83 92.35L211.58 92.57Z" fill="#263238" fill-opacity="1.000000" fill-rule="nonzero"/>
	<path id="Vector" d="M212.67 89.61C212.81 89.82 212.88 90.07 212.86 90.32C212.85 90.58 212.76 90.82 212.61 91.02C212.45 91.22 212.24 91.37 212 91.44C211.76 91.52 211.5 91.52 211.26 91.44C211.02 91.36 210.81 91.21 210.66 91.01C210.5 90.81 210.42 90.57 210.41 90.31C210.4 90.06 210.47 89.81 210.6 89.6C210.74 89.39 210.94 89.22 211.17 89.13C211.44 89 211.74 88.97 212.02 89.06C212.3 89.15 212.54 89.35 212.67 89.61Z" fill="#263238" fill-opacity="1.000000" fill-rule="nonzero"/>
	<path id="Vector" d="M200.56 94.07L201.42 94.93L207.17 92.47L204.9 91.69L200.56 94.07Z" fill="#E58A7B" fill-opacity="1.000000" fill-rule="nonzero"/>
	<g opacity="0.200000">
		<path id="Vector" d="M225.27 206.42C225.3 206.42 226.14 208.77 226.14 208.77L217.63 212.35L216.29 209.85L225.27 206.42Z" fill="#000000" fill-opacity="1.000000" fill-rule="nonzero"/>
	</g>
	<g opacity="0.200000">
		<path id="Vector" d="M242.66 209.4C242.69 209.4 242.94 211.77 242.94 211.77L233.62 211.77L232.96 209.05L242.66 209.4Z" fill="#000000" fill-opacity="1.000000" fill-rule="nonzero"/>
	</g>
	<path id="Vector" d="M241.22 64.19C242.91 69.64 236.3 77.1 236.3 77.1L227.17 73.37C228.26 70.22 229.5 67.13 230.91 64.11C233.71 58.07 239.51 58.69 241.22 64.19Z" fill="#4CAF4F" fill-opacity="1.000000" fill-rule="nonzero"/>
	<g opacity="0.200000">
		<path id="Vector" d="M241.22 64.19C242.91 69.64 236.3 77.1 236.3 77.1L227.17 73.37C228.26 70.22 229.5 67.13 230.91 64.11C233.71 58.07 239.51 58.69 241.22 64.19Z" fill="#000000" fill-opacity="1.000000" fill-rule="nonzero"/>
	</g>
	<path id="Vector" d="M146.59 9.57L150.52 9.57L150.52 10.2L146.59 10.2L146.59 9.57Z" fill="#4CAF4F" fill-opacity="1.000000" fill-rule="evenodd"/>
	<path id="Vector" d="M200.89 45.17L201.36 34.62L201.99 34.65L201.52 45.2L200.89 45.17Z" fill="#4CAF4F" fill-opacity="1.000000" fill-rule="evenodd"/>
	<path id="Vector" d="M200.14 12.41L127.61 12.41L120.86 163.44L193.39 163.44L200.14 12.41Z" fill="#4CAF4F" fill-opacity="1.000000" fill-rule="nonzero"/>
	<g opacity="0.560000">
		<path id="Vector" d="M197.98 14.48L125.44 14.48L118.7 165.52L191.23 165.52L197.98 14.48Z" fill="#FAFAFA" fill-opacity="1.000000" fill-rule="nonzero"/>
	</g>
	<g opacity="0.070000">
		<path id="Vector" d="M195.81 16.55L123.28 16.55L116.53 167.59L189.06 167.59L195.81 16.55Z" fill="#4CAF4F" fill-opacity="1.000000" fill-rule="nonzero"/>
	</g>
	<path id="Vector" d="M187.56 82.43L125.65 82.43L125.13 93.99L187.04 93.99L187.56 82.43Z" fill="#FFFFFF" fill-opacity="1.000000" fill-rule="nonzero"/>
	<path id="Vector" d="M159.69 74L126.02 74L125.79 79.17L159.47 79.17L159.69 74Z" fill="#4CAF4F" fill-opacity="1.000000" fill-rule="nonzero"/>
	<path id="Vector" d="M186.16 113.62L124.25 113.62L123.74 125.17L185.65 125.17L186.16 113.62Z" fill="#FFFFFF" fill-opacity="1.000000" fill-rule="nonzero"/>
	<g opacity="0.470000">
		<path id="Vector" d="M174.81 140.78L133.18 140.78L132.56 154.63L174.19 154.63L174.81 140.78Z" fill="#4CAF4F" fill-opacity="1.000000" fill-rule="nonzero"/>
	</g>
	<path id="Vector" d="M172.02 156.78L130.39 156.78C130.37 156.78 130.36 156.78 130.34 156.78C130.33 156.76 130.33 156.74 130.34 156.73L130.95 142.87C130.95 142.86 130.95 142.85 130.96 142.84C130.96 142.83 130.97 142.83 130.97 142.82C130.98 142.81 130.99 142.81 131 142.81C131.01 142.8 131.02 142.8 131.03 142.8L172.66 142.8C172.67 142.8 172.67 142.8 172.68 142.8C172.69 142.8 172.7 142.8 172.71 142.8C172.71 142.81 172.71 142.82 172.71 142.83C172.71 142.84 172.71 142.84 172.71 142.85L172.1 156.74C172.1 156.75 172.09 156.76 172.07 156.77C172.06 156.78 172.04 156.78 172.02 156.78ZM130.47 156.63L171.95 156.63L172.57 142.92L131.08 142.92L130.47 156.63Z" fill="#FFFFFF" fill-opacity="1.000000" fill-rule="nonzero"/>
	<path id="Vector" d="M152.42 105.18L124.63 105.18L124.4 110.36L152.19 110.36L152.42 105.18Z" fill="#4CAF4F" fill-opacity="1.000000" fill-rule="nonzero"/>
	<path id="Vector" d="M174.02 45.1C173.86 48.46 172.66 51.69 170.59 54.35C169.06 56.36 167.09 57.99 164.83 59.11C162.57 60.24 160.09 60.83 157.56 60.85C155.52 60.86 153.5 60.46 151.62 59.67C149.74 58.87 148.05 57.7 146.64 56.22C145.23 54.75 144.14 53 143.43 51.09C142.72 49.17 142.42 47.14 142.53 45.1C142.74 40.87 144.57 36.89 147.62 33.96C150.68 31.03 154.74 29.39 158.97 29.35C161.01 29.33 163.03 29.73 164.91 30.53C166.79 31.32 168.49 32.49 169.9 33.97C171.31 35.44 172.41 37.19 173.11 39.11C173.82 41.02 174.13 43.06 174.02 45.1Z" fill="#FFFFFF" fill-opacity="1.000000" fill-rule="nonzero"/>
	<path id="Vector" d="M175.5 32.65C175.46 33.54 175.14 34.4 174.59 35.11C174.18 35.64 173.66 36.07 173.05 36.37C172.45 36.67 171.79 36.83 171.12 36.83C170.47 36.84 169.83 36.68 169.25 36.38C168.68 36.08 168.18 35.64 167.81 35.11C167.33 34.38 167.08 33.52 167.13 32.65C167.19 31.52 167.67 30.47 168.48 29.69C169.29 28.91 170.37 28.48 171.5 28.47C172.04 28.46 172.58 28.57 173.07 28.78C173.57 28.99 174.03 29.3 174.4 29.69C174.78 30.08 175.07 30.55 175.25 31.06C175.44 31.56 175.53 32.11 175.5 32.65Z" fill="#4CAF4F" fill-opacity="1.000000" fill-rule="nonzero"/>
	<path id="Vector" d="M132.32 88.21C132.29 88.7 132.07 89.17 131.71 89.51C131.35 89.85 130.88 90.05 130.38 90.05C130.14 90.05 129.9 90.01 129.68 89.92C129.46 89.82 129.26 89.69 129.1 89.51C128.93 89.34 128.8 89.13 128.72 88.91C128.63 88.69 128.6 88.45 128.61 88.21C128.64 87.71 128.85 87.24 129.21 86.9C129.57 86.56 130.05 86.37 130.55 86.36C130.78 86.36 131.02 86.41 131.24 86.5C131.46 86.59 131.66 86.73 131.83 86.9C131.99 87.08 132.12 87.28 132.21 87.5C132.29 87.73 132.33 87.97 132.32 88.21Z" fill="#263238" fill-opacity="1.000000" fill-rule="nonzero"/>
	<path id="Vector" d="M140.6 88.21C140.57 88.7 140.36 89.17 140 89.51C139.64 89.85 139.16 90.05 138.67 90.05C138.43 90.05 138.19 90.01 137.97 89.91C137.75 89.82 137.55 89.68 137.39 89.51C137.22 89.34 137.09 89.13 137.01 88.91C136.92 88.68 136.89 88.45 136.9 88.21C136.93 87.71 137.14 87.25 137.5 86.9C137.86 86.56 138.34 86.37 138.83 86.36C139.07 86.36 139.31 86.41 139.53 86.5C139.75 86.59 139.95 86.73 140.12 86.9C140.28 87.07 140.41 87.28 140.5 87.5C140.58 87.73 140.62 87.97 140.6 88.21Z" fill="#263238" fill-opacity="1.000000" fill-rule="nonzero"/>
	<path id="Vector" d="M148.89 88.21C148.87 88.7 148.65 89.17 148.29 89.51C147.93 89.85 147.45 90.05 146.96 90.05C146.72 90.05 146.48 90.01 146.26 89.91C146.04 89.82 145.84 89.68 145.67 89.51C145.51 89.34 145.38 89.13 145.3 88.91C145.21 88.69 145.18 88.45 145.19 88.21C145.22 87.71 145.43 87.24 145.79 86.9C146.15 86.56 146.63 86.37 147.12 86.36C147.36 86.36 147.6 86.41 147.82 86.5C148.04 86.59 148.24 86.73 148.41 86.9C148.57 87.07 148.7 87.28 148.79 87.5C148.87 87.73 148.91 87.97 148.89 88.21Z" fill="#263238" fill-opacity="1.000000" fill-rule="nonzero"/>
	<path id="Vector" d="M130.92 119.4C130.89 119.89 130.67 120.36 130.32 120.7C129.96 121.04 129.48 121.23 128.99 121.24C128.75 121.24 128.51 121.2 128.29 121.1C128.07 121.01 127.87 120.87 127.7 120.7C127.54 120.53 127.41 120.32 127.32 120.1C127.24 119.87 127.2 119.64 127.21 119.4C127.24 118.9 127.46 118.43 127.82 118.09C128.18 117.75 128.65 117.56 129.15 117.55C129.39 117.55 129.63 117.6 129.85 117.69C130.07 117.78 130.27 117.92 130.43 118.09C130.6 118.27 130.73 118.47 130.81 118.69C130.89 118.92 130.93 119.16 130.92 119.4Z" fill="#263238" fill-opacity="1.000000" fill-rule="nonzero"/>
	<path id="Vector" d="M139.21 119.4C139.18 119.89 138.96 120.36 138.61 120.7C138.25 121.04 137.77 121.23 137.28 121.24C137.04 121.24 136.8 121.2 136.58 121.1C136.36 121.01 136.16 120.87 135.99 120.7C135.83 120.53 135.7 120.32 135.61 120.1C135.53 119.87 135.49 119.64 135.51 119.4C135.53 118.9 135.75 118.43 136.11 118.09C136.47 117.75 136.95 117.56 137.44 117.55C137.68 117.55 137.92 117.6 138.14 117.69C138.36 117.78 138.56 117.92 138.72 118.09C138.89 118.27 139.02 118.47 139.1 118.69C139.18 118.92 139.22 119.16 139.21 119.4Z" fill="#263238" fill-opacity="1.000000" fill-rule="nonzero"/>
	<path id="Vector" d="M147.52 119.4C147.49 119.89 147.27 120.36 146.91 120.7C146.55 121.04 146.08 121.24 145.58 121.24C145.34 121.24 145.11 121.19 144.89 121.1C144.67 121.01 144.47 120.87 144.3 120.7C144.14 120.53 144.01 120.32 143.92 120.1C143.84 119.87 143.8 119.63 143.81 119.4C143.84 118.9 144.06 118.44 144.42 118.09C144.78 117.75 145.25 117.56 145.75 117.55C145.99 117.55 146.22 117.6 146.45 117.69C146.67 117.78 146.87 117.92 147.03 118.09C147.2 118.26 147.33 118.47 147.41 118.69C147.49 118.92 147.53 119.16 147.52 119.4Z" fill="#263238" fill-opacity="1.000000" fill-rule="nonzero"/>
	<path id="Vector" d="M155.79 119.4C155.76 119.89 155.55 120.36 155.19 120.7C154.83 121.04 154.35 121.23 153.85 121.24C153.62 121.24 153.38 121.19 153.16 121.1C152.94 121.01 152.74 120.87 152.57 120.7C152.41 120.53 152.28 120.32 152.2 120.1C152.11 119.87 152.07 119.63 152.08 119.4C152.11 118.9 152.33 118.44 152.69 118.09C153.05 117.75 153.52 117.56 154.02 117.55C154.26 117.55 154.5 117.6 154.72 117.69C154.94 117.78 155.14 117.92 155.3 118.09C155.47 118.27 155.6 118.47 155.68 118.69C155.77 118.92 155.8 119.16 155.79 119.4Z" fill="#263238" fill-opacity="1.000000" fill-rule="nonzero"/>
	<path id="Vector" d="M164.11 119.4C164.08 119.89 163.87 120.36 163.51 120.7C163.15 121.04 162.67 121.23 162.18 121.24C161.94 121.24 161.7 121.2 161.48 121.1C161.26 121.01 161.06 120.87 160.89 120.7C160.73 120.53 160.6 120.32 160.51 120.1C160.43 119.87 160.39 119.64 160.41 119.4C160.44 118.9 160.65 118.43 161.01 118.09C161.37 117.75 161.85 117.56 162.34 117.55C162.58 117.55 162.82 117.6 163.04 117.69C163.26 117.78 163.46 117.92 163.63 118.09C163.79 118.27 163.92 118.47 164 118.69C164.09 118.92 164.13 119.16 164.11 119.4Z" fill="#263238" fill-opacity="1.000000" fill-rule="nonzero"/>
	<path id="Vector" d="M163.16 35.27C165.57 37.73 165.43 41.76 162.86 44.28C160.28 46.8 156.25 46.84 153.84 44.38C151.44 41.92 151.58 37.89 154.15 35.38C156.72 32.86 160.76 32.81 163.16 35.27Z" fill="#4CAF4F" fill-opacity="1.000000" fill-rule="evenodd"/>
	<path id="Vector" d="M170.59 54.35C169.06 56.36 167.09 57.99 164.83 59.11C162.57 60.24 160.09 60.83 157.56 60.85C155.11 60.87 152.7 60.29 150.53 59.15C148.36 58.02 146.5 56.37 145.12 54.35C148.11 51.38 152.83 49.43 158.07 49.43C163.31 49.43 167.87 51.38 170.59 54.35Z" fill="#4CAF4F" fill-opacity="1.000000" fill-rule="nonzero"/>
	<g opacity="0.100000">
		<path id="Vector" d="M163.16 35.27C165.57 37.73 165.43 41.76 162.86 44.28C160.28 46.8 156.25 46.84 153.84 44.38C151.44 41.92 151.58 37.89 154.15 35.38C156.72 32.86 160.76 32.81 163.16 35.27Z" fill="#FFFFFF" fill-opacity="1.000000" fill-rule="evenodd"/>
	</g>
	<g opacity="0.100000">
		<path id="Vector" d="M170.59 54.35C169.06 56.36 167.09 57.99 164.83 59.11C162.57 60.24 160.09 60.83 157.56 60.85C155.11 60.87 152.7 60.29 150.53 59.15C148.36 58.02 146.5 56.37 145.12 54.35C148.11 51.38 152.83 49.43 158.07 49.43C163.31 49.43 167.87 51.38 170.59 54.35Z" fill="#FFFFFF" fill-opacity="1.000000" fill-rule="nonzero"/>
	</g>
	<path id="Vector" d="M80.15 96.77C79.57 98.05 78.96 99.46 78.42 100.82C77.89 102.19 77.34 103.59 76.87 104.99C75.9 107.76 75.16 110.59 74.67 113.48L74.53 114.38C74.52 114.54 74.53 114.69 74.57 114.84C74.72 115.35 74.95 115.83 75.25 116.27C76.04 117.39 76.95 118.42 77.98 119.34C79.06 120.35 80.19 121.29 81.37 122.17C82.55 123.08 83.79 123.97 85.02 124.81L83.87 126.96C80.95 125.69 78.17 124.1 75.6 122.22C74.23 121.22 72.99 120.05 71.91 118.73C71.27 117.95 70.78 117.06 70.44 116.11C70.25 115.51 70.15 114.89 70.15 114.26C70.15 114.12 70.15 113.9 70.15 113.8L70.15 113.5L70.21 112.88C70.56 109.68 71.24 106.52 72.22 103.45C72.7 101.94 73.21 100.43 73.79 98.96C74.38 97.49 74.98 96.06 75.72 94.56L80.15 96.77Z" fill="#E58A7B" fill-opacity="1.000000" fill-rule="nonzero"/>
	<path id="Vector" d="M84.15 124.42L88.5 122.22L87.37 126.99C87.37 126.99 84.39 127.83 83.01 126.38L84.15 124.42Z" fill="#E58A7B" fill-opacity="1.000000" fill-rule="nonzero"/>
	<path id="Vector" d="M92.47 123L91.32 126.95L87.37 126.99L88.5 122.22L92.47 123Z" fill="#E58A7B" fill-opacity="1.000000" fill-rule="nonzero"/>
	<path id="Vector" d="M98.61 73.76C98.84 74.61 99.16 75.43 99.57 76.21C99.45 76.35 99.3 76.45 99.13 76.51C98.95 76.56 98.77 76.57 98.6 76.53L98.61 73.76Z" fill="#DF5753" fill-opacity="1.000000" fill-rule="nonzero"/>
	<path id="Vector" d="M98.94 73.09C98.94 73.48 98.73 73.79 98.48 73.79C98.22 73.79 98.02 73.48 98.02 73.09C98.02 72.7 98.22 72.38 98.48 72.38C98.73 72.38 98.94 72.7 98.94 73.09Z" fill="#263238" fill-opacity="1.000000" fill-rule="evenodd"/>
	<path id="Vector" d="M98.34 72.4L99.28 72.14C99.28 72.14 98.82 72.86 98.34 72.4Z" fill="#263238" fill-opacity="1.000000" fill-rule="nonzero"/>
	<path id="Vector" d="M86.6 78.27C87.16 81.13 87.72 86.37 85.72 88.28C85.72 88.28 86.5 91.18 91.82 91.18C97.67 91.18 94.61 88.28 94.61 88.28C91.42 87.52 91.5 85.15 92.06 82.93L86.6 78.27Z" fill="#E58A7B" fill-opacity="1.000000" fill-rule="nonzero"/>
	<path id="Vector" d="M85.05 71.75C85.34 76.53 85.37 78.56 87.78 81.01C91.41 84.7 97.21 83.3 98.35 78.55C99.38 74.25 98.72 67.17 94.05 65.27C93.02 64.84 91.9 64.69 90.8 64.82C89.7 64.95 88.64 65.36 87.74 66.01C86.84 66.66 86.12 67.52 85.65 68.53C85.18 69.54 84.97 70.64 85.05 71.75Z" fill="#E58A7B" fill-opacity="1.000000" fill-rule="nonzero"/>
	<path id="Vector" d="M85.52 66.38C83.12 67.25 79.93 66.6 81.18 74C82.51 81.83 80.47 84.4 80.47 84.4C80.47 84.4 89.56 86.34 98.84 84.29C98.84 84.29 96.01 79.33 96.8 75.68C97.81 71.07 97.02 69.37 97.02 69.37C97.02 69.37 88.89 65.15 85.52 66.38Z" fill="#263238" fill-opacity="1.000000" fill-rule="nonzero"/>
	<path id="Vector" d="M95.66 74.24C95.67 75.15 95.93 76.04 96.41 76.8C97.06 77.8 97.83 77.42 98.02 76.36C98.2 75.43 98.07 73.79 97.24 73.15C96.41 72.51 95.68 73.14 95.66 74.24Z" fill="#E58A7B" fill-opacity="1.000000" fill-rule="nonzero"/>
	<path id="Vector" d="M83.44 67.19C82.75 65.25 86.03 62.27 92.98 63.5C99.92 64.73 100.22 70.51 100.22 70.51L98.82 68.84L98.88 70.6L91.75 71.97L83.44 67.19Z" fill="#263238" fill-opacity="1.000000" fill-rule="nonzero"/>
	<path id="Vector" d="M84.03 88.61C83.99 88.33 84.06 88.04 84.22 87.81C84.39 87.58 84.64 87.43 84.92 87.38C87.08 87.02 92 86.3 94.47 86.64C96.31 86.9 96.79 87.97 96.87 88.85C96.89 89 96.87 89.16 96.81 89.3C96.76 89.45 96.68 89.58 96.57 89.69C96.46 89.8 96.33 89.89 96.19 89.94C96.05 90 95.89 90.02 95.74 90.01L85.05 89.53C84.8 89.52 84.56 89.42 84.38 89.25C84.19 89.08 84.07 88.86 84.03 88.61Z" fill="#4CAF4F" fill-opacity="1.000000" fill-rule="nonzero"/>
	<g opacity="0.600000">
		<path id="Vector" d="M84.03 88.61C83.99 88.33 84.06 88.04 84.22 87.81C84.39 87.58 84.64 87.43 84.92 87.38C87.08 87.02 92 86.3 94.47 86.64C96.31 86.9 96.79 87.97 96.87 88.85C96.89 89 96.87 89.16 96.81 89.3C96.76 89.45 96.68 89.58 96.57 89.69C96.46 89.8 96.33 89.89 96.19 89.94C96.05 90 95.89 90.02 95.74 90.01L85.05 89.53C84.8 89.52 84.56 89.42 84.38 89.25C84.19 89.08 84.07 88.86 84.03 88.61Z" fill="#000000" fill-opacity="1.000000" fill-rule="nonzero"/>
	</g>
	<path id="Vector" d="M90.2 195.99L94.17 198.74L100.8 189.75L96.84 187L90.2 195.99Z" fill="#E58A7B" fill-opacity="1.000000" fill-rule="nonzero"/>
	<path id="Vector" d="M80.96 195.81L85.15 198.2L91.02 188.69L86.83 186.3L80.96 195.81Z" fill="#E58A7B" fill-opacity="1.000000" fill-rule="nonzero"/>
	<path id="Vector" d="M100.8 189.75L97.38 194.39L93.41 191.64L96.83 187L100.8 189.75Z" fill="#CF6F64" fill-opacity="1.000000" fill-rule="nonzero"/>
	<path id="Vector" d="M86.82 186.3L91.02 188.69L87.99 193.59L83.8 191.2L86.82 186.3Z" fill="#CF6F64" fill-opacity="1.000000" fill-rule="nonzero"/>
	<path id="Vector" d="M93.55 118.63C93.55 118.63 109.03 138.13 106.12 156.79C103.78 171.85 90.19 192.25 90.19 192.25L83.81 189.08C88.31 180.06 92.15 170.73 95.3 161.15C96.27 158.18 96.56 155.02 96.13 151.92C95.7 148.83 94.58 145.86 92.84 143.26C85 131.81 72.43 138.63 80.89 118.63L93.55 118.63Z" fill="#4CAF4F" fill-opacity="1.000000" fill-rule="nonzero"/>
	<g opacity="0.600000">
		<path id="Vector" d="M93.55 118.63C93.55 118.63 109.03 138.13 106.12 156.79C103.78 171.85 90.19 192.25 90.19 192.25L83.81 189.08C88.31 180.06 92.15 170.73 95.3 161.15C96.27 158.18 96.56 155.02 96.13 151.92C95.7 148.83 94.58 145.86 92.84 143.26C85 131.81 72.43 138.63 80.89 118.63L93.55 118.63Z" fill="#000000" fill-opacity="1.000000" fill-rule="nonzero"/>
	</g>
	<g opacity="0.400000">
		<path id="Vector" d="M101.14 131.15L98.89 128.92C98.89 129.1 103.25 156 104.47 163.56C105.19 161.35 105.75 159.09 106.13 156.8C107.56 147.65 104.56 138.3 101.14 131.15Z" fill="#000000" fill-opacity="1.000000" fill-rule="nonzero"/>
	</g>
	<path id="Vector" d="M100.46 118.63C100.46 118.63 119.09 143.14 119.62 157.84C120.06 170.13 99.34 193.95 99.34 193.95L93.31 190.05C93.31 190.05 105.44 173.14 108.5 159.32C107.32 145.62 82.36 118.63 82.36 118.63L100.46 118.63Z" fill="#4CAF4F" fill-opacity="1.000000" fill-rule="nonzero"/>
	<g opacity="0.600000">
		<path id="Vector" d="M100.46 118.63C100.46 118.63 119.09 143.14 119.62 157.84C120.06 170.13 99.34 193.95 99.34 193.95L93.31 190.05C93.31 190.05 105.44 173.14 108.5 159.32C107.32 145.62 82.36 118.63 82.36 118.63L100.46 118.63Z" fill="#000000" fill-opacity="1.000000" fill-rule="nonzero"/>
	</g>
	<path id="Vector" d="M77.4 89.38C75.41 89.85 73.5 97.09 73.5 97.09L81.29 102.29C81.29 102.29 83.88 96.56 82.97 94.05C82.03 91.44 79.9 88.78 77.4 89.38Z" fill="#4CAF4F" fill-opacity="1.000000" fill-rule="nonzero"/>
	<g opacity="0.200000">
		<path id="Vector" d="M78.93 94.04L78.38 100.35L81.28 102.3C82.08 100.5 82.67 98.61 83.04 96.68L78.93 94.04Z" fill="#000000" fill-opacity="1.000000" fill-rule="nonzero"/>
	</g>
	<path id="Vector" d="M102.76 89.52C102.76 89.52 105.06 90.32 100.46 118.62L80.87 118.62C81.21 110.63 81.21 105.71 77.4 89.37C80.14 88.81 82.92 88.44 85.72 88.28C88.68 88.07 91.65 88.07 94.61 88.28C98.44 88.63 102.76 89.52 102.76 89.52Z" fill="#4CAF4F" fill-opacity="1.000000" fill-rule="nonzero"/>
	<path id="Vector" d="M104.75 94.04C105.2 95.27 105.66 96.59 106.16 97.86C106.65 99.14 107.11 100.45 107.61 101.74L109.12 105.6L109.5 106.56L109.7 107.04L109.79 107.28C109.79 107.32 109.79 107.32 109.79 107.32C109.68 107.16 109.53 107.03 109.36 106.94C109.12 106.79 108.84 106.71 108.56 106.7C108.33 106.69 108.09 106.73 107.88 106.83C107.59 106.96 107.59 107.01 107.6 107C107.65 106.96 107.7 106.92 107.74 106.86C108.08 106.42 108.37 105.94 108.61 105.43C108.9 104.87 109.18 104.26 109.46 103.65C110 102.43 110.5 101.15 110.99 99.87C111.49 98.58 111.96 97.29 112.43 95.98L113.83 92.05L116.19 92.67C115.73 95.47 115.12 98.2 114.4 100.98C114.05 102.36 113.64 103.73 113.17 105.12C112.94 105.81 112.68 106.5 112.38 107.21C112.08 107.97 111.7 108.71 111.25 109.41C111.09 109.64 110.91 109.86 110.71 110.07C110.4 110.41 110.02 110.68 109.59 110.86C109.22 111.03 108.81 111.1 108.4 111.09C107.94 111.07 107.5 110.94 107.1 110.7C106.64 110.41 106.26 110.01 105.98 109.54C105.89 109.38 105.81 109.22 105.76 109.1L105.64 108.87L105.41 108.39L104.94 107.43C104.32 106.16 103.71 104.87 103.17 103.57C102.64 102.27 102.07 100.96 101.55 99.63C101.02 98.31 100.54 96.99 100.1 95.56L104.75 94.04Z" fill="#E58A7B" fill-opacity="1.000000" fill-rule="nonzero"/>
	<path id="Vector" d="M102.76 89.52C105.12 90.08 107.77 97.03 107.77 97.03L100.77 102.99C100.77 102.99 96.23 95.4 97.15 92.9C98.1 90.3 99.69 88.78 102.76 89.52Z" fill="#4CAF4F" fill-opacity="1.000000" fill-rule="nonzero"/>
	<path id="Vector" d="M114.94 89.85L117.4 87.8L119.11 90.46L117.85 92.68C117.85 92.68 115.84 94.53 114.07 93.59C113.79 92.95 113.72 92.25 113.88 91.57C114.04 90.9 114.41 90.3 114.94 89.85Z" fill="#E58A7B" fill-opacity="1.000000" fill-rule="nonzero"/>
	<path id="Vector" d="M121.84 87.81L121.65 88.48L117.76 89.13L117.38 87.8L121.84 87.81Z" fill="#E58A7B" fill-opacity="1.000000" fill-rule="nonzero"/>
	<path id="Vector" d="M99.82 194.26L92.8 189.73L94.06 187.54L101.95 192.39L99.82 194.26Z" fill="#4CAF4F" fill-opacity="1.000000" fill-rule="nonzero"/>
	<path id="Vector" d="M87.89 197.88C87.28 197.8 86.69 197.59 86.16 197.26C86.14 197.26 86.12 197.24 86.11 197.22C86.09 197.2 86.09 197.18 86.09 197.16C86.09 197.14 86.09 197.11 86.11 197.09C86.12 197.08 86.14 197.06 86.16 197.05C86.35 196.99 88 196.48 88.48 196.88C88.54 196.92 88.58 196.98 88.6 197.05C88.63 197.11 88.63 197.18 88.62 197.25C88.61 197.36 88.57 197.47 88.51 197.56C88.45 197.65 88.37 197.73 88.27 197.78C88.15 197.84 88.02 197.88 87.89 197.88ZM86.51 197.2C87.28 197.6 87.89 197.74 88.19 197.59C88.25 197.55 88.31 197.5 88.35 197.44C88.38 197.38 88.41 197.31 88.41 197.23C88.41 197.13 88.41 197.09 88.35 197.07C88.1 196.86 87.17 197.02 86.5 197.2L86.51 197.2Z" fill="#263238" fill-opacity="1.000000" fill-rule="nonzero"/>
	<path id="Vector" d="M86.2 197.31C86.17 197.31 86.14 197.29 86.12 197.27C86.11 197.25 86.1 197.23 86.1 197.21C86.1 197.19 86.11 197.18 86.12 197.16C86.12 197.1 86.52 195.77 87.14 195.47C87.22 195.43 87.31 195.41 87.4 195.41C87.49 195.41 87.57 195.43 87.65 195.47C87.74 195.5 87.81 195.55 87.87 195.63C87.92 195.7 87.94 195.79 87.94 195.88C87.89 196.43 86.77 197.2 86.25 197.32L86.2 197.31ZM87.4 195.63C87.34 195.63 87.28 195.64 87.22 195.67C86.84 195.86 86.53 196.57 86.38 197.01C86.92 196.78 87.66 196.18 87.68 195.84C87.68 195.79 87.68 195.72 87.54 195.66C87.5 195.63 87.45 195.62 87.4 195.61L87.4 195.63Z" fill="#263238" fill-opacity="1.000000" fill-rule="nonzero"/>
	<path id="Vector" d="M96.66 200.53C95.97 200.53 95.01 199.64 94.48 199.09C94.46 199.08 94.46 199.05 94.46 199.03C94.46 199.01 94.46 198.98 94.48 198.97C94.49 198.95 94.51 198.93 94.53 198.92C94.55 198.91 94.57 198.9 94.59 198.9C94.84 198.9 96.97 199.22 97.27 199.83C97.31 199.88 97.32 199.94 97.32 200C97.32 200.07 97.31 200.13 97.27 200.18C97.23 200.28 97.16 200.36 97.08 200.42C96.99 200.48 96.89 200.52 96.79 200.53L96.66 200.53ZM94.88 199.18C95.66 199.93 96.34 200.35 96.73 200.3C96.79 200.29 96.86 200.27 96.91 200.23C96.97 200.19 97.02 200.13 97.05 200.07C97.06 200.05 97.07 200.03 97.07 200C97.07 199.98 97.06 199.95 97.05 199.93C96.89 199.6 95.75 199.32 94.88 199.18Z" fill="#263238" fill-opacity="1.000000" fill-rule="nonzero"/>
	<path id="Vector" d="M94.95 199.15C94.81 199.15 94.67 199.14 94.54 199.12C94.52 199.12 94.5 199.11 94.49 199.1C94.47 199.09 94.46 199.07 94.45 199.05C94.44 199.03 94.44 199.01 94.44 198.99C94.44 198.97 94.44 198.95 94.45 198.94C94.49 198.89 95.32 197.89 96.11 197.82C96.33 197.81 96.55 197.88 96.72 198.02C96.96 198.23 96.95 198.41 96.89 198.53C96.73 198.95 95.67 199.15 94.95 199.15ZM94.79 198.92C95.48 198.96 96.58 198.73 96.72 198.43C96.72 198.43 96.77 198.33 96.61 198.2C96.55 198.14 96.47 198.1 96.39 198.08C96.31 198.05 96.23 198.04 96.14 198.05C95.61 198.2 95.14 198.5 94.79 198.93L94.79 198.92Z" fill="#263238" fill-opacity="1.000000" fill-rule="nonzero"/>
	<path id="Vector" d="M86.37 196.64L81.16 195.17C81.07 195.14 80.97 195.15 80.89 195.19C80.8 195.23 80.73 195.3 80.7 195.38L78.94 199.33C78.9 199.44 78.88 199.54 78.88 199.65C78.88 199.76 78.91 199.87 78.96 199.97C79.01 200.07 79.08 200.15 79.16 200.22C79.24 200.29 79.34 200.34 79.45 200.37C81.29 200.85 82.18 200.99 84.47 201.65C85.88 202.04 87.9 202.77 89.85 203.32C91.8 203.88 92.45 201.98 91.69 201.57C88.27 199.76 88 198.5 87.07 197.15C86.9 196.9 86.65 196.72 86.37 196.64Z" fill="#4CAF4F" fill-opacity="1.000000" fill-rule="nonzero"/>
	<path id="Vector" d="M94.62 198.38L90.17 195.3C90.09 195.25 90 195.22 89.91 195.23C89.81 195.24 89.73 195.28 89.66 195.35L86.71 198.52C86.64 198.61 86.59 198.7 86.56 198.81C86.52 198.91 86.52 199.02 86.53 199.13C86.54 199.24 86.58 199.34 86.64 199.43C86.69 199.53 86.77 199.61 86.86 199.67C88.43 200.72 89.24 201.14 91.2 202.5C92.43 203.34 94.81 205.19 96.47 206.35C98.13 207.5 99.36 205.92 98.77 205.29C96.13 202.47 95.55 200.7 95.12 199.09C95.04 198.8 94.86 198.55 94.62 198.38Z" fill="#4CAF4F" fill-opacity="1.000000" fill-rule="nonzero"/>
	<path id="Vector" d="M91.01 192.66L82.99 188.67L83.82 186.49L92.39 190.7L91.01 192.66Z" fill="#4CAF4F" fill-opacity="1.000000" fill-rule="nonzero"/>
	<path id="Vector" d="M80.58 117.47L79.9 119.24C79.84 119.38 80 119.52 80.22 119.52L100.56 119.52C100.73 119.52 100.88 119.43 100.89 119.32L101.07 117.56C101.07 117.45 100.93 117.34 100.73 117.34L80.9 117.34C80.84 117.34 80.78 117.35 80.72 117.37C80.67 117.39 80.62 117.43 80.58 117.47Z" fill="#4CAF4F" fill-opacity="1.000000" fill-rule="nonzero"/>
	<g opacity="0.400000">
		<path id="Vector" d="M80.58 117.47L79.9 119.24C79.84 119.38 80 119.52 80.22 119.52L100.56 119.52C100.73 119.52 100.88 119.43 100.89 119.32L101.07 117.56C101.07 117.45 100.93 117.34 100.73 117.34L80.9 117.34C80.84 117.34 80.78 117.35 80.72 117.37C80.67 117.39 80.62 117.43 80.58 117.47Z" fill="#FFFFFF" fill-opacity="1.000000" fill-rule="nonzero"/>
	</g>
	<path id="Vector" d="M83.78 119.69L83.25 119.69C83.14 119.69 83.06 119.64 83.07 119.57L83.32 117.29C83.32 117.23 83.42 117.17 83.52 117.17L84.06 117.17C84.16 117.17 84.24 117.23 84.24 117.29L83.98 119.57C83.98 119.64 83.89 119.69 83.78 119.69Z" fill="#4CAF4F" fill-opacity="1.000000" fill-rule="nonzero"/>
	<path id="Vector" d="M96.32 119.69L95.79 119.69C95.69 119.69 95.61 119.64 95.61 119.57L95.86 117.29C95.86 117.23 95.96 117.17 96.07 117.17L96.6 117.17C96.7 117.17 96.79 117.23 96.78 117.29L96.53 119.57C96.5 119.64 96.43 119.69 96.32 119.69Z" fill="#4CAF4F" fill-opacity="1.000000" fill-rule="nonzero"/>
	<g style="mix-blend-mode:multiply">
		<path id="Vector" d="M99.78 222.59C99.78 223.25 92.41 223.79 83.31 223.79C74.22 223.79 66.85 223.25 66.85 222.59C66.85 221.94 74.22 221.4 83.31 221.4C92.41 221.4 99.78 221.94 99.78 222.59Z" fill="#F5F5F5" fill-opacity="1.000000" fill-rule="evenodd"/>
	</g>
	<path id="Vector" d="M93.35 220.91C90.43 220.06 87.2 218.97 85.24 217.84C85.19 217.8 85.13 217.78 85.07 217.75L85.07 204.56L90.97 204.56C91.41 204.53 91.83 204.34 92.14 204.01C92.45 203.68 92.62 203.25 92.62 202.8C92.62 202.36 92.45 201.92 92.14 201.6C91.83 201.27 91.41 201.08 90.97 201.05L85.1 201.05L85.1 140.92L81.56 140.92L81.56 201.05L75.7 201.05C75.47 201.04 75.23 201.07 75 201.15C74.78 201.23 74.57 201.36 74.39 201.53C74.22 201.69 74.08 201.89 73.99 202.11C73.89 202.33 73.84 202.56 73.84 202.8C73.84 203.04 73.89 203.28 73.99 203.5C74.08 203.72 74.22 203.92 74.39 204.08C74.57 204.25 74.78 204.38 75 204.46C75.23 204.54 75.47 204.57 75.7 204.56L81.56 204.56L81.56 217.73C81.51 217.73 81.45 217.78 81.4 217.82C79.41 218.97 76.2 220.06 73.29 220.89C73.09 220.95 72.92 221.08 72.81 221.25C72.7 221.43 72.66 221.63 72.69 221.84C72.72 222.04 72.82 222.23 72.97 222.36C73.12 222.5 73.32 222.57 73.53 222.58L93.11 222.58C93.3 222.56 93.49 222.48 93.63 222.35C93.78 222.21 93.87 222.03 93.9 221.84C93.93 221.64 93.89 221.45 93.79 221.28C93.69 221.11 93.53 220.98 93.35 220.91Z" fill="#E0E0E0" fill-opacity="1.000000" fill-rule="nonzero"/>
	<path id="Vector" d="M72.39 134.8L94.25 134.8C96.01 134.8 97.43 136.23 97.43 137.98L97.43 144.48C97.43 146.24 96.01 147.67 94.25 147.67L72.39 147.67C70.63 147.67 69.21 146.24 69.21 144.48L69.21 137.98C69.21 136.23 70.63 134.8 72.39 134.8Z" fill="#4CAF4F" fill-opacity="1.000000" fill-rule="evenodd"/>
	<path id="Vector" d="M72.19 147.67L72.19 148.79C72.19 149.71 73.19 150.46 74.42 150.46L92.25 150.46C93.47 150.46 94.48 149.71 94.48 148.79L94.48 147.67L72.19 147.67Z" fill="#4CAF4F" fill-opacity="1.000000" fill-rule="nonzero"/>
	<g opacity="0.300000">
		<path id="Vector" d="M72.19 147.67L72.19 148.79C72.19 149.71 73.19 150.46 74.42 150.46L92.25 150.46C93.47 150.46 94.48 149.71 94.48 148.79L94.48 147.67L72.19 147.67Z" fill="#FFFFFF" fill-opacity="1.000000" fill-rule="nonzero"/>
	</g>
</svg>
