<svg width="307.337524" height="301.675842" viewBox="0 0 307.338 301.676" fill="none" xmlns="http://www.w3.org/2000/svg" xmlns:xlink="http://www.w3.org/1999/xlink">
	<desc>
			Created with Pixso.
	</desc>
	<defs/>
	<g opacity="0.000000">
		<path id="Vector" d="M307.33 202.98L189.43 202.98L189.43 134.75L307.33 134.75L307.33 202.98ZM190.15 202.26L306.61 202.26L306.61 135.47L190.15 135.47L190.15 202.26Z" fill="#E0E0E0" fill-opacity="1.000000" fill-rule="nonzero"/>
		<path id="Vector" d="M205.22 171.13L283.01 171.13L283.01 173.41L205.22 173.41L205.22 171.13Z" fill="#F0F0F0" fill-opacity="1.000000" fill-rule="evenodd"/>
		<path id="Vector" d="M205.22 179.63L288.37 179.63L288.37 182.12L205.22 182.12L205.22 179.63Z" fill="#F0F0F0" fill-opacity="1.000000" fill-rule="evenodd"/>
		<path id="Vector" d="M205.22 188.24L288.37 188.24L288.37 190.72L205.22 190.72L205.22 188.24Z" fill="#F0F0F0" fill-opacity="1.000000" fill-rule="evenodd"/>
		<path id="Vector" d="M205.22 158.78L232.41 158.78L232.41 164.7L205.22 164.7L205.22 158.78Z" fill="#F0F0F0" fill-opacity="1.000000" fill-rule="evenodd"/>
		<path id="Vector" d="M189.81 135.11L306.97 135.11L306.97 145.97L189.81 145.97L189.81 135.11Z" fill="#E0E0E0" fill-opacity="1.000000" fill-rule="evenodd"/>
		<path id="Vector" d="M297.96 144.34C297.81 144.2 299.32 142.38 301.32 140.28C303.33 138.18 305.1 136.59 305.24 136.73C305.38 136.86 303.88 138.69 301.87 140.8C299.87 142.91 298.1 144.49 297.96 144.34Z" fill="#FFFFFF" fill-opacity="1.000000" fill-rule="nonzero"/>
		<path id="Vector" d="M305.25 144.34C305.11 144.49 303.35 142.91 301.34 140.8C299.33 138.69 297.82 136.87 297.97 136.73C298.12 136.58 299.87 138.16 301.89 140.28C303.9 142.39 305.39 144.2 305.25 144.34Z" fill="#FFFFFF" fill-opacity="1.000000" fill-rule="nonzero"/>
		<path id="Vector" d="M45.09 0L162.25 0L162.25 67.51L45.09 67.51L45.09 0Z" fill="#E6E6E6" fill-opacity="1.000000" fill-rule="evenodd"/>
		<path id="Vector" d="M60.5 36.02L138.29 36.02L138.29 38.3L60.5 38.3L60.5 36.02Z" fill="#F0F0F0" fill-opacity="1.000000" fill-rule="evenodd"/>
		<path id="Vector" d="M60.5 44.53L143.65 44.53L143.65 47.02L60.5 47.02L60.5 44.53Z" fill="#F0F0F0" fill-opacity="1.000000" fill-rule="evenodd"/>
		<path id="Vector" d="M60.5 53.13L143.65 53.13L143.65 55.62L60.5 55.62L60.5 53.13Z" fill="#F0F0F0" fill-opacity="1.000000" fill-rule="evenodd"/>
		<path id="Vector" d="M60.5 23.67L87.69 23.67L87.69 29.59L60.5 29.59L60.5 23.67Z" fill="#F0F0F0" fill-opacity="1.000000" fill-rule="evenodd"/>
		<path id="Vector" d="M45.09 0L162.25 0L162.25 10.86L45.09 10.86L45.09 0Z" fill="#E0E0E0" fill-opacity="1.000000" fill-rule="evenodd"/>
		<path id="Vector" d="M152.84 9.18C152.69 9.05 154.2 7.22 156.21 5.12C158.21 3.02 159.98 1.43 160.12 1.57C160.26 1.71 158.76 3.53 156.75 5.64C154.75 7.74 152.98 9.31 152.84 9.18Z" fill="#FFFFFF" fill-opacity="1.000000" fill-rule="nonzero"/>
		<path id="Vector" d="M160.12 9.18C159.98 9.33 158.22 7.74 156.21 5.64C154.19 3.53 152.69 1.71 152.84 1.57C152.99 1.43 154.74 3.01 156.75 5.12C158.77 7.23 160.27 9.05 160.12 9.18Z" fill="#FFFFFF" fill-opacity="1.000000" fill-rule="nonzero"/>
		<path id="Vector" d="M117.88 125.42L0 125.42L0 57.18L117.88 57.18L117.88 125.42ZM0.71 124.7L117.16 124.7L117.16 57.9L0.71 57.9L0.71 124.7Z" fill="#E0E0E0" fill-opacity="1.000000" fill-rule="nonzero"/>
		<path id="Vector" d="M15.77 93.57L93.56 93.57L93.56 95.85L15.77 95.85L15.77 93.57Z" fill="#F0F0F0" fill-opacity="1.000000" fill-rule="evenodd"/>
		<path id="Vector" d="M15.77 102.07L98.92 102.07L98.92 104.56L15.77 104.56L15.77 102.07Z" fill="#F0F0F0" fill-opacity="1.000000" fill-rule="evenodd"/>
		<path id="Vector" d="M15.77 110.68L98.92 110.68L98.92 113.17L15.77 113.17L15.77 110.68Z" fill="#F0F0F0" fill-opacity="1.000000" fill-rule="evenodd"/>
		<path id="Vector" d="M15.77 81.22L42.96 81.22L42.96 87.14L15.77 87.14L15.77 81.22Z" fill="#F0F0F0" fill-opacity="1.000000" fill-rule="evenodd"/>
		<path id="Vector" d="M0.35 57.54L117.52 57.54L117.52 68.4L0.35 68.4L0.35 57.54Z" fill="#E0E0E0" fill-opacity="1.000000" fill-rule="evenodd"/>
		<path id="Vector" d="M115.58 141.05L253.92 141.05L253.92 264.9L115.58 264.9L115.58 141.05Z" fill="#E6E6E6" fill-opacity="1.000000" fill-rule="evenodd"/>
		<path id="Vector" d="M14.17 102.04L122.54 102.04L122.54 214.63L14.17 214.63L14.17 102.04Z" fill="#F0F0F0" fill-opacity="1.000000" fill-rule="evenodd"/>
		<path id="Vector" d="M14.17 102.04L122.54 102.04L122.54 114.3L14.17 114.3L14.17 102.04Z" fill="#E0E0E0" fill-opacity="1.000000" fill-rule="evenodd"/>
		<path id="Vector" d="M23.12 108.04C23.1 108.49 22.95 108.92 22.69 109.28C22.42 109.64 22.06 109.91 21.65 110.07C21.23 110.23 20.78 110.26 20.34 110.16C19.91 110.06 19.51 109.84 19.2 109.51C18.9 109.19 18.69 108.79 18.61 108.35C18.53 107.91 18.58 107.46 18.75 107.05C18.93 106.64 19.22 106.29 19.59 106.05C19.96 105.8 20.4 105.67 20.84 105.67C21.46 105.68 22.04 105.94 22.47 106.39C22.9 106.83 23.13 107.43 23.12 108.04Z" fill="#FFFFFF" fill-opacity="1.000000" fill-rule="nonzero"/>
		<path id="Vector" d="M32.35 108.04C32.33 108.49 32.18 108.92 31.92 109.28C31.66 109.65 31.29 109.92 30.87 110.08C30.46 110.24 30 110.27 29.56 110.17C29.13 110.07 28.73 109.85 28.42 109.53C28.11 109.2 27.9 108.8 27.82 108.36C27.74 107.92 27.8 107.46 27.97 107.05C28.15 106.64 28.44 106.29 28.81 106.04C29.19 105.8 29.63 105.67 30.07 105.67C30.69 105.68 31.27 105.94 31.7 106.39C32.13 106.83 32.36 107.43 32.35 108.04Z" fill="#FFFFFF" fill-opacity="1.000000" fill-rule="nonzero"/>
		<path id="Vector" d="M41.58 108.04C41.56 108.49 41.41 108.92 41.15 109.28C40.89 109.65 40.52 109.92 40.1 110.08C39.69 110.24 39.23 110.27 38.79 110.17C38.36 110.07 37.96 109.85 37.65 109.53C37.34 109.2 37.13 108.8 37.05 108.36C36.97 107.92 37.03 107.46 37.2 107.05C37.38 106.64 37.67 106.29 38.04 106.04C38.42 105.8 38.86 105.67 39.3 105.67C39.92 105.68 40.5 105.94 40.93 106.39C41.36 106.83 41.59 107.43 41.58 108.04Z" fill="#FFFFFF" fill-opacity="1.000000" fill-rule="nonzero"/>
		<path id="Vector" d="M153.52 24.62L291.86 24.62L291.86 162.5L153.52 162.5L153.52 24.62Z" fill="#F0F0F0" fill-opacity="1.000000" fill-rule="evenodd"/>
		<path id="Vector" d="M153.52 24.62L291.86 24.62L291.86 40.77L153.52 40.77L153.52 24.62Z" fill="#E0E0E0" fill-opacity="1.000000" fill-rule="evenodd"/>
		<path id="Vector" d="M165.3 32.53C165.28 33.12 165.08 33.69 164.73 34.16C164.39 34.64 163.91 35 163.36 35.21C162.81 35.42 162.21 35.46 161.64 35.33C161.07 35.2 160.54 34.9 160.14 34.48C159.73 34.06 159.46 33.52 159.35 32.94C159.25 32.37 159.31 31.77 159.54 31.23C159.77 30.69 160.16 30.23 160.65 29.9C161.14 29.58 161.71 29.4 162.3 29.4C163.11 29.42 163.88 29.76 164.45 30.35C165.01 30.94 165.32 31.72 165.3 32.53Z" fill="#FFFFFF" fill-opacity="1.000000" fill-rule="nonzero"/>
		<path id="Vector" d="M176.57 30.42C176.97 30.85 177.24 31.39 177.33 31.97C177.42 32.56 177.34 33.15 177.1 33.69C176.86 34.22 176.46 34.68 175.96 34.99C175.47 35.3 174.89 35.46 174.3 35.45C173.71 35.44 173.14 35.25 172.65 34.91C172.17 34.58 171.8 34.11 171.58 33.56C171.36 33.01 171.31 32.41 171.43 31.84C171.55 31.26 171.84 30.73 172.26 30.32C172.84 29.76 173.63 29.46 174.44 29.48C175.25 29.5 176.01 29.83 176.57 30.42Z" fill="#FFFFFF" fill-opacity="1.000000" fill-rule="nonzero"/>
		<path id="Vector" d="M189.6 32.53C189.58 33.12 189.38 33.69 189.03 34.16C188.69 34.64 188.21 35 187.66 35.21C187.11 35.42 186.51 35.46 185.94 35.33C185.37 35.2 184.85 34.9 184.44 34.48C184.03 34.06 183.76 33.52 183.65 32.94C183.55 32.37 183.61 31.77 183.85 31.23C184.08 30.69 184.46 30.23 184.95 29.9C185.44 29.58 186.01 29.4 186.6 29.4C187.41 29.42 188.19 29.76 188.75 30.35C189.31 30.94 189.62 31.72 189.6 32.53Z" fill="#FFFFFF" fill-opacity="1.000000" fill-rule="nonzero"/>
	</g>
	<g opacity="0.000000">
		<path id="Vector" d="M229.98 70.01C203.64 46.99 167.98 70.01 133.33 118.46C98.68 166.9 82.21 146.52 52.76 167.87C23.3 189.22 15.43 276.69 119.19 268.18C222.96 259.68 298.85 130.11 229.98 70.01Z" fill="#F0F0F0" fill-opacity="1.000000" fill-rule="nonzero"/>
	</g>
	<path id="Vector" d="M261.97 301.48C261.97 301.59 212.02 301.67 150.42 301.67C88.81 301.67 38.84 301.59 38.84 301.48C38.84 301.38 88.78 301.3 150.42 301.3C212.05 301.3 261.97 301.39 261.97 301.48Z" fill="#263238" fill-opacity="1.000000" fill-rule="nonzero"/>
	<path id="Vector" d="M213.3 213.41C202.18 205.65 199.67 191.24 200.11 178.29C200.18 176.13 199.94 173.84 200.97 171.95C202 170.06 204.4 168.75 206.34 169.66C207.94 170.42 208.64 172.29 209.54 173.83C210.74 175.89 212.5 177.57 214.61 178.67C215.98 179.39 217.69 179.83 219.05 179.08C220.92 178.05 221.13 175.48 221.12 173.32C221.12 169.31 221.1 165.3 221.05 161.29C220.92 159.14 221.14 156.99 221.69 154.91C222.36 152.86 223.85 150.97 225.89 150.39C227.93 149.82 230.46 151 230.92 153.11C231 154 231.03 154.89 230.99 155.78C231.05 156.68 231.46 157.67 232.31 157.94C233.15 158.21 234.03 157.59 234.67 156.96C236.89 154.8 238.4 151.98 239.8 149.21C241.21 146.43 242.58 143.57 244.59 141.21C246.61 138.84 249.39 136.96 252.51 136.78C255.62 136.6 258.87 138.52 259.64 141.54C260.42 144.56 258.66 147.65 256.77 150.1C253.91 153.74 250.55 156.95 246.77 159.63C246.04 160.03 245.45 160.66 245.1 161.42C244.63 162.86 245.99 164.3 247.41 164.75C249.01 165.29 250.75 165.12 252.44 165.32C254.13 165.52 255.93 166.26 256.57 167.84C257.45 170.04 255.61 172.34 253.8 173.85C250.18 176.88 246.06 179.25 241.63 180.88C240.05 181.46 238.39 181.97 237.1 183.08C235.82 184.18 235.06 186.12 235.83 187.64C236.6 189.16 238.58 189.64 240.24 189.33C241.9 189.02 243.38 188.13 244.96 187.53C247.92 186.42 251.73 186.62 253.59 189.17C254.17 190.05 254.54 191.05 254.66 192.1C254.79 193.14 254.67 194.2 254.31 195.19C253.59 197.16 252.48 198.97 251.05 200.51C246.34 206.14 240.22 210.42 233.31 212.9C226.46 215.28 220.11 215.93 213.29 213.43L213.3 213.41Z" fill="#4CAF4F" fill-opacity="1.000000" fill-rule="nonzero"/>
	<path id="Vector" d="M256.48 138.56C256.48 138.56 256.41 138.63 256.27 138.76L255.63 139.33C255.07 139.83 254.24 140.57 253.2 141.54C250.24 144.28 247.49 147.25 244.98 150.41C243.38 152.4 241.72 154.66 239.95 157.11C238.18 159.57 236.35 162.21 234.54 165.03C232.6 167.99 230.83 171.06 229.23 174.22C228.4 175.87 227.67 177.59 226.91 179.34L224.68 184.7C221.74 191.45 219.18 198.36 217.01 205.4C215.26 211.16 214.06 217.07 213.41 223.05C213 227.08 212.93 231.15 213.21 235.2C213.33 236.64 213.44 237.74 213.54 238.49C213.58 238.85 213.61 239.13 213.64 239.34L213.64 239.64C213.61 239.54 213.58 239.45 213.57 239.35C213.54 239.14 213.49 238.86 213.44 238.5C213.31 237.78 213.17 236.64 213.04 235.21C212.69 231.15 212.72 227.07 213.11 223.02C213.72 217.01 214.9 211.08 216.63 205.29C218.78 198.24 221.33 191.31 224.28 184.54L226.57 179.21C227.32 177.46 228.06 175.72 228.9 174.07C230.51 170.9 232.3 167.83 234.25 164.85C236.09 161.98 237.95 159.37 239.69 156.94C241.44 154.51 243.13 152.24 244.73 150.25C247.27 147.1 250.05 144.16 253.05 141.45C254.12 140.49 254.97 139.77 255.54 139.29L256.21 138.75C256.29 138.67 256.38 138.61 256.48 138.56Z" fill="#263238" fill-opacity="1.000000" fill-rule="nonzero"/>
	<path id="Vector" d="M229 174.06C228.9 173.76 228.83 173.45 228.79 173.14C228.67 172.55 228.54 171.7 228.39 170.61C228.08 168.45 227.77 165.49 227.43 162.22C227.09 158.95 226.71 155.98 226.39 153.85C226.23 152.78 226.08 151.93 225.98 151.33C225.9 151.02 225.86 150.71 225.86 150.39C225.98 150.68 226.07 150.98 226.13 151.29C226.28 151.88 226.46 152.73 226.67 153.8C227.08 155.96 227.48 158.9 227.82 162.18C228.16 165.46 228.44 168.34 228.67 170.57C228.77 171.58 228.87 172.44 228.94 173.12C229 173.43 229.01 173.74 229 174.06Z" fill="#263238" fill-opacity="1.000000" fill-rule="nonzero"/>
	<path id="Vector" d="M256.68 168.89C256.33 168.97 255.97 169.01 255.62 169.02C254.9 169.08 253.87 169.17 252.61 169.31C250.08 169.59 246.59 170.09 242.77 170.81C238.95 171.53 235.52 172.34 233.05 172.97C231.82 173.29 230.83 173.57 230.18 173.77C229.83 173.89 229.47 173.98 229.1 174.03C229.43 173.86 229.78 173.72 230.13 173.62C230.81 173.38 231.79 173.05 233.01 172.7C235.46 171.98 238.9 171.12 242.73 170.39C245.98 169.77 249.26 169.31 252.55 169.02C253.82 168.91 254.85 168.87 255.57 168.85C255.94 168.83 256.31 168.84 256.68 168.89Z" fill="#263238" fill-opacity="1.000000" fill-rule="nonzero"/>
	<path id="Vector" d="M216.98 204.79C216.91 204.68 216.84 204.57 216.8 204.45L216.32 203.45C215.91 202.58 215.36 201.29 214.7 199.72C213.36 196.55 211.65 192.12 209.84 187.2C208.03 182.28 206.36 177.85 205.09 174.65C204.47 173.09 203.96 171.82 203.58 170.87L203.18 169.84C203.12 169.72 203.08 169.6 203.06 169.47C203.14 169.57 203.2 169.68 203.25 169.8L203.72 170.8C204.13 171.67 204.69 172.96 205.35 174.54C206.69 177.7 208.39 182.13 210.21 187.06C212.02 191.98 213.69 196.41 214.95 199.61C215.57 201.16 216.08 202.44 216.46 203.39C216.62 203.8 216.76 204.11 216.87 204.41C216.92 204.53 216.96 204.66 216.98 204.79Z" fill="#263238" fill-opacity="1.000000" fill-rule="nonzero"/>
	<path id="Vector" d="M253.73 192.94C253.61 193.01 253.49 193.06 253.36 193.09L252.3 193.45L248.36 194.72C245.04 195.8 240.45 197.34 235.41 199.04C230.38 200.74 225.77 202.25 222.42 203.26C220.75 203.77 219.39 204.16 218.45 204.41L217.36 204.7C217.24 204.74 217.11 204.76 216.98 204.77C217.09 204.71 217.21 204.66 217.34 204.62L218.41 204.26L222.34 202.99C225.67 201.91 230.26 200.37 235.29 198.67C240.33 196.98 244.93 195.47 248.28 194.46C249.95 193.95 251.31 193.56 252.26 193.3L253.34 193.02C253.47 192.98 253.6 192.95 253.73 192.94Z" fill="#263238" fill-opacity="1.000000" fill-rule="nonzero"/>
	<path id="Vector" d="M238.74 18.43L235.03 19.76L233.44 14.92C230.52 5.99 221.21 1.25 212.66 4.26C204.11 7.28 199.55 17.07 202.47 25.99L204.06 30.84L200.34 32.17C198.92 32.72 197.77 33.79 197.13 35.17C196.48 36.55 196.39 38.12 196.88 39.56L207.18 71.07C207.4 71.78 207.75 72.44 208.23 73.02C208.7 73.59 209.29 74.06 209.95 74.41C210.61 74.75 211.34 74.96 212.08 75.01C212.82 75.07 213.57 74.98 214.28 74.74L252.67 61.01C254.11 60.46 255.28 59.37 255.93 57.98C256.58 56.59 256.67 55 256.18 53.54L245.86 22.04C245.64 21.33 245.28 20.67 244.8 20.1C244.32 19.53 243.73 19.06 243.06 18.72C242.4 18.39 241.67 18.19 240.93 18.14C240.19 18.09 239.44 18.19 238.74 18.43ZM209.47 23.47C208.68 21.15 208.83 18.61 209.87 16.39C210.91 14.17 212.77 12.44 215.05 11.56C216.18 11.18 217.38 11.02 218.57 11.11C219.76 11.19 220.92 11.52 221.99 12.06C223.05 12.61 223.99 13.36 224.76 14.28C225.52 15.19 226.1 16.25 226.44 17.4L228.03 22.24L211.05 28.31L209.47 23.47ZM231.05 51.43L233.69 59.47C233.74 59.63 233.72 59.8 233.64 59.95C233.57 60.1 233.44 60.22 233.28 60.27L229.59 61.59C229.44 61.63 229.28 61.61 229.15 61.54C229.01 61.47 228.91 61.35 228.87 61.2L226.21 53.2C224.75 53.12 223.34 52.59 222.19 51.69C221.03 50.79 220.18 49.56 219.74 48.16C219.11 46.31 219.23 44.29 220.06 42.52C220.89 40.75 222.37 39.38 224.19 38.68C225.09 38.37 226.04 38.25 226.99 38.32C227.94 38.38 228.87 38.64 229.71 39.08C230.56 39.51 231.31 40.11 231.92 40.84C232.53 41.57 232.99 42.41 233.26 43.32C233.73 44.75 233.76 46.27 233.37 47.71C232.98 49.16 232.18 50.45 231.06 51.45L231.05 51.43Z" fill="#4CAF4F" fill-opacity="1.000000" fill-rule="nonzero"/>
	<path id="Vector" d="M234.87 19.67C234.87 19.77 228 22.35 219.45 25.43C210.9 28.5 203.93 30.97 203.9 30.89C203.86 30.82 210.77 28.22 219.32 25.14C227.87 22.06 234.83 19.58 234.87 19.67Z" fill="#263238" fill-opacity="1.000000" fill-rule="nonzero"/>
	<path id="Vector" d="M243.03 20.99C243.06 21.06 243.08 21.12 243.1 21.19C243.16 21.33 243.23 21.52 243.31 21.75C243.5 22.28 243.76 23 244.08 23.91L246.85 31.95C248 35.36 249.37 39.4 250.9 43.89C251.62 46.15 252.46 48.49 253.26 50.96C253.68 52.23 253.86 53.57 253.79 54.91C253.73 55.6 253.54 56.28 253.21 56.9C252.87 57.52 252.4 58.06 251.85 58.5C250.74 59.32 249.51 59.94 248.2 60.37L244.49 61.7L237.48 64.21L225.6 68.44L217.58 71.26L215.42 71.98L214.85 72.17C214.78 72.19 214.72 72.21 214.65 72.22C214.65 72.22 214.71 72.22 214.83 72.13L215.39 71.91L217.55 71.09L225.53 68.16L237.39 63.84L244.39 61.31L248.09 59.97C249.36 59.57 250.56 58.96 251.64 58.17C252.15 57.76 252.58 57.25 252.9 56.68C253.21 56.1 253.39 55.47 253.44 54.83C253.51 53.54 253.33 52.25 252.92 51.02C252.15 48.58 251.33 46.21 250.59 43.96C249.09 39.46 247.71 35.4 246.62 31.99C245.52 28.58 244.6 25.84 243.97 23.92C243.67 22.97 243.44 22.24 243.25 21.71L243.08 21.13C243.05 21.09 243.04 21.04 243.03 20.99Z" fill="#263238" fill-opacity="1.000000" fill-rule="nonzero"/>
	<path id="Vector" d="M222.77 11.07C222.77 11.07 222.39 10.89 221.68 10.6C220.68 10.21 219.61 10 218.54 9.97C216.94 9.91 215.35 10.21 213.89 10.84C212.11 11.63 210.58 12.91 209.49 14.52C208.4 16.13 207.81 18.03 207.8 19.98C207.82 21.58 208.06 23.16 208.52 24.69C208.9 26 209.29 27.04 209.54 27.77C209.7 28.14 209.82 28.52 209.92 28.91C209.71 28.56 209.54 28.2 209.41 27.82C209.11 27.1 208.69 26.08 208.27 24.76C207.76 23.22 207.48 21.61 207.44 19.98C207.42 17.96 208.03 15.98 209.17 14.31C210.3 12.64 211.88 11.32 213.74 10.53C215.25 9.89 216.89 9.61 218.52 9.71C219.62 9.76 220.7 10.02 221.71 10.46C221.98 10.59 222.24 10.73 222.49 10.89C222.59 10.94 222.68 11 222.77 11.07Z" fill="#263238" fill-opacity="1.000000" fill-rule="nonzero"/>
	<path id="Vector" d="M223.1 39.22C223.21 39.15 223.33 39.09 223.46 39.04C223.82 38.88 224.19 38.75 224.57 38.65C225.18 38.47 225.8 38.36 226.44 38.33C227.29 38.29 228.15 38.42 228.96 38.71C230.8 39.36 232.49 41.24 233.33 43.75C233.73 45.1 233.73 46.53 233.33 47.88C232.88 49.34 232.09 50.67 231.01 51.76L231.05 51.56C232.01 54.19 233.05 57.04 234.13 60.01L234.2 60.19L234.02 60.25L232.37 60.8L228.77 62L228.59 62.06L228.54 61.88C227.55 58.9 226.47 56.12 225.66 53.4L225.82 53.52C224.41 53.4 223.07 52.87 221.96 52C220.96 51.23 220.14 50.25 219.55 49.12C219.02 48.13 218.76 47.01 218.79 45.89C218.82 44.73 219.11 43.6 219.63 42.58C220.15 41.55 220.89 40.65 221.8 39.94C222.18 39.64 222.6 39.4 223.05 39.22C222.64 39.47 222.25 39.73 221.87 40.01C220.87 40.85 220.1 41.94 219.64 43.17C219.25 44.09 219.07 45.09 219.11 46.09C219.14 47.1 219.4 48.08 219.87 48.97C220.44 50.05 221.25 51 222.22 51.73C223.28 52.56 224.56 53.07 225.9 53.17L226.02 53.17L226.05 53.28C226.85 55.96 227.93 58.76 228.93 61.75L228.69 61.63L232.29 60.43L233.93 59.88L233.82 60.12C232.75 57.15 231.71 54.3 230.76 51.67L230.76 51.56L230.85 51.48C231.89 50.44 232.67 49.16 233.12 47.76C233.5 46.47 233.5 45.1 233.12 43.81C232.33 41.39 230.72 39.56 228.96 38.91C228.18 38.61 227.35 38.47 226.52 38.5C225.9 38.51 225.28 38.6 224.68 38.75C223.61 39.02 223.1 39.26 223.1 39.22Z" fill="#263238" fill-opacity="1.000000" fill-rule="nonzero"/>
	<path id="Vector" d="M200.86 246.95L129 246.62C124.85 246.59 120.88 244.92 117.96 241.97C115.04 239.03 113.41 235.04 113.42 230.89L114.19 50.74C114.2 48.69 114.61 46.65 115.4 44.76C116.2 42.86 117.36 41.14 118.82 39.69C120.28 38.24 122.01 37.1 123.92 36.32C125.82 35.54 127.86 35.15 129.91 35.16L201.77 35.49C205.92 35.51 209.89 37.18 212.81 40.13C215.73 43.07 217.36 47.06 217.35 51.21L216.59 231.35C216.58 233.41 216.17 235.44 215.37 237.34C214.58 239.23 213.41 240.96 211.95 242.4C210.49 243.85 208.76 245 206.86 245.78C204.96 246.56 202.92 246.95 200.86 246.95Z" fill="#455A64" fill-opacity="1.000000" fill-rule="nonzero"/>
	<path id="Vector" d="M201.66 41.68L187.73 41.68C187.28 41.69 186.83 41.79 186.41 41.97C186 42.15 185.62 42.42 185.3 42.74C184.99 43.07 184.74 43.46 184.57 43.88C184.41 44.3 184.33 44.76 184.34 45.21L184.34 47.73C184.34 48.19 184.26 48.64 184.1 49.06C183.93 49.49 183.68 49.87 183.37 50.2C183.05 50.53 182.68 50.79 182.26 50.97C181.84 51.15 181.39 51.25 180.94 51.25L153.79 51.13C152.87 51.11 152 50.72 151.37 50.05C150.74 49.39 150.39 48.5 150.42 47.58L150.42 45.05C150.44 44.13 150.1 43.25 149.47 42.58C148.84 41.91 147.97 41.52 147.05 41.5L142.15 41.5L129.96 41.44C127.06 41.42 124.27 42.56 122.2 44.59C120.13 46.62 118.96 49.4 118.93 52.3L118.21 228.13C118.2 229.57 118.48 231 119.02 232.33C119.57 233.66 120.37 234.87 121.38 235.9C122.39 236.92 123.6 237.73 124.93 238.29C126.25 238.84 127.68 239.13 129.11 239.14L200.82 239.47C202.26 239.48 203.69 239.2 205.02 238.66C206.36 238.11 207.57 237.31 208.59 236.3C209.62 235.28 210.43 234.08 210.99 232.75C211.54 231.42 211.83 230 211.84 228.56L212.56 52.72C212.58 49.81 211.44 47.02 209.39 44.95C207.35 42.88 204.57 41.7 201.66 41.68Z" fill="#FFFFFF" fill-opacity="1.000000" fill-rule="nonzero"/>
	<path id="Vector" d="M192.01 216.01L138.69 215.78C138.14 215.78 137.69 215.18 137.7 214.44L137.75 200.49C137.75 199.77 138.21 199.16 138.76 199.16L192.08 199.4C192.39 199.45 192.67 199.62 192.85 199.87C193.04 200.12 193.12 200.44 193.08 200.75L193.03 214.68C193.03 215.42 192.57 216.02 192.01 216.01Z" fill="#4CAF4F" fill-opacity="1.000000" fill-rule="nonzero"/>
	<path id="SING UP" d="M154.26 208.26Q154.57 208.33 154.9 208.33Q155.39 208.33 155.72 208.19Q156.06 208.05 156.22 207.8Q156.29 207.69 156.33 207.56Q156.38 207.42 156.38 207.25Q156.38 206.91 156.21 206.71Q156.2 206.69 156.19 206.68Q156.12 206.59 156.03 206.53Q155.9 206.42 155.74 206.36Q155.47 206.26 155.03 206.15Q154.66 206.06 154.45 205.98Q154.23 205.91 154.08 205.76Q154.05 205.73 154.02 205.68Q153.94 205.56 153.94 205.38Q153.94 205.24 153.99 205.12Q154.06 204.97 154.2 204.86Q154.47 204.66 154.99 204.66Q155.26 204.66 155.54 204.74Q155.65 204.77 155.75 204.82Q155.92 204.89 156.07 204.99L156.22 204.66Q155.98 204.49 155.65 204.4Q155.51 204.36 155.37 204.33Q155.18 204.3 154.99 204.3Q154.5 204.3 154.17 204.45Q153.84 204.6 153.69 204.85Q153.62 204.95 153.58 205.07Q153.53 205.22 153.53 205.39Q153.53 205.74 153.7 205.95Q153.71 205.96 153.72 205.97Q153.82 206.09 153.94 206.17Q154.05 206.24 154.17 206.29Q154.44 206.4 154.88 206.51Q155.26 206.6 155.47 206.68Q155.68 206.76 155.82 206.9Q155.86 206.93 155.88 206.97Q155.97 207.1 155.97 207.28Q155.97 207.41 155.92 207.52Q155.85 207.67 155.7 207.78Q155.43 207.98 154.9 207.98Q154.73 207.98 154.56 207.95Q154.36 207.92 154.17 207.85Q153.81 207.71 153.59 207.5L153.43 207.82Q153.65 208.05 154.06 208.19Q154.16 208.23 154.26 208.26ZM166.79 206.32L166.39 206.32L166.39 207.66Q166.34 207.69 166.3 207.72Q165.9 207.96 165.36 207.96Q164.96 207.96 164.62 207.81Q164.55 207.78 164.49 207.75Q164.27 207.62 164.11 207.45Q163.98 207.32 163.88 207.16Q163.83 207.06 163.78 206.96Q163.66 206.66 163.66 206.32Q163.66 205.98 163.78 205.7Q163.82 205.58 163.88 205.48Q163.99 205.31 164.12 205.17Q164.28 205.01 164.49 204.89Q164.56 204.85 164.63 204.82Q164.96 204.68 165.36 204.68Q165.84 204.68 166.21 204.88Q166.4 204.98 166.56 205.14L166.82 204.88Q166.75 204.81 166.68 204.75Q166.46 204.56 166.18 204.45Q165.8 204.3 165.35 204.3Q164.8 204.3 164.37 204.52Q164.32 204.54 164.27 204.57Q164.01 204.71 163.82 204.9Q163.65 205.07 163.52 205.29Q163.45 205.41 163.39 205.54Q163.25 205.9 163.25 206.32Q163.25 206.74 163.4 207.1Q163.45 207.23 163.52 207.35Q163.64 207.56 163.81 207.73Q164.01 207.93 164.27 208.08Q164.33 208.11 164.4 208.14Q164.82 208.33 165.34 208.33Q165.73 208.33 166.09 208.22Q166.11 208.21 166.14 208.21Q166.52 208.07 166.79 207.83L166.79 206.32ZM157.71 204.34L157.29 204.34L157.29 208.3L157.71 208.3L157.71 204.34ZM162.31 208.3L162.31 204.34L161.9 204.34L161.9 207.55L159.35 204.34L159 204.34L159 208.3L159.42 208.3L159.42 205.08L161.97 208.3L162.31 208.3ZM170 208.02Q170.41 208.33 171.06 208.33Q171.71 208.33 172.11 208.02Q172.19 207.96 172.25 207.89Q172.26 207.89 172.27 207.88Q172.68 207.44 172.68 206.61L172.68 204.34L172.27 204.34L172.27 206.59Q172.27 207.28 171.96 207.62Q171.92 207.67 171.87 207.71Q171.57 207.96 171.06 207.96Q170.55 207.96 170.25 207.71Q170.2 207.67 170.15 207.62Q169.84 207.28 169.84 206.59L169.84 204.34L169.42 204.34L169.42 206.61Q169.42 207.44 169.84 207.88Q169.85 207.89 169.85 207.89Q169.92 207.96 170 208.02ZM176.61 204.7Q176.18 204.34 175.42 204.34L173.94 204.34L173.94 208.3L174.36 208.3L174.36 207.05L175.42 207.05Q176.18 207.05 176.61 206.69Q176.76 206.57 176.85 206.42Q177.04 206.12 177.04 205.7Q177.04 205.28 176.85 204.97Q176.76 204.82 176.61 204.7ZM176.31 206.43Q176 206.68 175.41 206.68L174.36 206.68L174.36 204.7L175.41 204.7Q176 204.7 176.31 204.96Q176.4 205.03 176.46 205.11Q176.62 205.34 176.62 205.7Q176.62 206.03 176.47 206.25Q176.41 206.35 176.31 206.43Z" fill="#E8E8E3" fill-opacity="1.000000" fill-rule="evenodd"/>
	<path id="Vector" d="M130.82 93.29L149.33 93.37L149.31 96.77L130.81 96.69L130.82 93.29Z" fill="#4CAF4F" fill-opacity="1.000000" fill-rule="evenodd"/>
	<g opacity="0.100000">
		<path id="Vector" d="M130.82 93.29L149.33 93.37L149.31 96.77L130.81 96.69L130.82 93.29Z" fill="#000000" fill-opacity="1.000000" fill-rule="evenodd"/>
	</g>
	<path id="Vector" d="M203.57 114.22C203.71 114.21 203.85 114.17 203.99 114.12C204.19 114.04 204.36 113.91 204.49 113.74C204.62 113.57 204.69 113.36 204.71 113.15C204.71 112.01 204.71 110.34 204.71 108.19C204.71 107.12 204.71 105.92 204.71 104.6C204.71 104.27 204.71 103.94 204.71 103.6C204.76 103.27 204.69 102.94 204.51 102.65C204.41 102.52 204.28 102.41 204.13 102.33C203.98 102.26 203.82 102.22 203.65 102.22L202.53 102.22L192.13 102.22L131.96 101.99C131.81 101.99 131.66 102.02 131.52 102.09C131.38 102.16 131.26 102.26 131.17 102.39C131 102.67 130.93 103 130.99 103.33C130.99 104.05 130.99 104.77 130.99 105.49C130.99 106.93 130.99 108.37 130.99 109.81C130.99 110.53 130.99 111.24 130.99 111.96C130.96 112.3 130.96 112.64 130.99 112.97C131.02 113.11 131.09 113.25 131.19 113.36C131.29 113.47 131.41 113.56 131.55 113.62C131.69 113.67 131.84 113.7 131.99 113.7L135.65 113.7L151.63 113.78L178.68 113.95L196.92 114.09L201.88 114.15L203.16 114.15C203.46 114.15 203.6 114.15 203.6 114.15L203.16 114.15L201.88 114.15L196.92 114.15L178.68 114.15L151.63 114.06L135.65 114L131.99 114C131.79 114.01 131.59 113.97 131.4 113.9C131.21 113.82 131.04 113.7 130.91 113.54C130.78 113.38 130.68 113.2 130.63 113C130.58 112.81 130.57 112.62 130.58 112.42L130.58 111.89C130.58 111.17 130.58 110.45 130.58 109.73C130.58 108.29 130.58 106.86 130.58 105.42C130.58 104.7 130.58 103.98 130.58 103.26C130.57 103.07 130.57 102.88 130.58 102.68C130.61 102.47 130.69 102.27 130.82 102.1C130.94 101.93 131.11 101.79 131.3 101.69C131.49 101.59 131.7 101.54 131.91 101.55L192.08 101.88L202.48 101.95L203.6 101.95C203.8 101.95 203.99 102 204.17 102.09C204.34 102.18 204.5 102.31 204.61 102.47C204.81 102.79 204.89 103.16 204.84 103.53C204.84 103.87 204.84 104.21 204.84 104.53C204.84 105.84 204.84 107.04 204.84 108.13C204.84 110.29 204.79 111.94 204.77 113.09C204.76 113.31 204.68 113.53 204.54 113.7C204.41 113.88 204.23 114.02 204.02 114.09C203.88 114.18 203.73 114.22 203.57 114.22Z" fill="#E0E0E0" fill-opacity="1.000000" fill-rule="nonzero"/>
	<path id="Vector" d="M136.38 105.6L170.22 105.6L170.22 108.78L136.38 108.78L136.38 105.6Z" fill="#4CAF4F" fill-opacity="1.000000" fill-rule="evenodd"/>
	<g opacity="0.200000">
		<path id="Vector" d="M136.38 105.6L170.22 105.6L170.22 108.78L136.38 108.78L136.38 105.6Z" fill="#FFFFFF" fill-opacity="1.000000" fill-rule="evenodd"/>
	</g>
	<path id="Vector" d="M130.7 124.27L149.2 124.35L149.18 127.75L130.68 127.66L130.7 124.27Z" fill="#4CAF4F" fill-opacity="1.000000" fill-rule="evenodd"/>
	<g opacity="0.100000">
		<path id="Vector" d="M130.7 124.27L149.2 124.35L149.18 127.75L130.68 127.66L130.7 124.27Z" fill="#000000" fill-opacity="1.000000" fill-rule="evenodd"/>
	</g>
	<path id="Vector" d="M203.1 145.2C203.24 145.18 203.39 145.16 203.53 145.12C203.73 145.06 203.92 144.95 204.07 144.81C204.23 144.67 204.35 144.49 204.44 144.3C204.55 144.01 204.59 143.7 204.57 143.39C204.57 143.04 204.57 142.67 204.57 142.25C204.57 141.42 204.57 140.47 204.57 139.37L204.57 134.81C204.6 134.47 204.53 134.14 204.36 133.86C204.18 133.56 203.9 133.34 203.57 133.24C203.21 133.18 202.85 133.16 202.49 133.19L192.13 133.19L132.17 132.96C131.85 132.96 131.54 133.08 131.3 133.29C131.05 133.51 130.9 133.8 130.86 134.12C130.86 134.81 130.86 135.56 130.86 136.28C130.86 137.72 130.86 139.16 130.86 140.6C130.86 141.32 130.86 142.03 130.86 142.75C130.83 143.09 130.84 143.43 130.9 143.76C130.99 144.05 131.17 144.31 131.42 144.48C131.69 144.65 132 144.73 132.32 144.71L133.32 144.71L135.39 144.71L151.32 144.79L178.27 144.96L196.44 145.1L201.39 145.16L196.44 145.16L178.27 145.16L151.3 145.13L135.38 145.07L132.25 145.07C131.86 145.09 131.48 144.99 131.15 144.78C130.82 144.55 130.58 144.22 130.47 143.83C130.41 143.47 130.39 143.1 130.42 142.73C130.42 142.01 130.42 141.29 130.42 140.57C130.42 139.13 130.42 137.69 130.42 136.25C130.42 135.53 130.42 134.81 130.42 134.09C130.47 133.68 130.67 133.3 130.98 133.03C131.29 132.75 131.69 132.6 132.11 132.6L192.07 132.93L202.42 133.01C202.81 132.99 203.19 133.02 203.57 133.09C203.95 133.21 204.26 133.47 204.46 133.81C204.64 134.13 204.72 134.5 204.69 134.86C204.69 135.2 204.69 135.53 204.69 135.86C204.69 137.16 204.69 138.36 204.69 139.46C204.69 140.56 204.69 141.49 204.69 142.34C204.69 142.75 204.69 143.13 204.69 143.48C204.71 143.8 204.66 144.13 204.54 144.42C204.44 144.62 204.31 144.8 204.14 144.94C203.97 145.08 203.78 145.18 203.57 145.24C203.41 145.26 203.25 145.24 203.1 145.2Z" fill="#E0E0E0" fill-opacity="1.000000" fill-rule="nonzero"/>
	<path id="Vector" d="M130.56 156.59L149.06 156.67L149.04 160.07L130.54 159.98L130.56 156.59Z" fill="#4CAF4F" fill-opacity="1.000000" fill-rule="evenodd"/>
	<g opacity="0.100000">
		<path id="Vector" d="M130.56 156.59L149.06 156.67L149.04 160.07L130.54 159.98L130.56 156.59Z" fill="#000000" fill-opacity="1.000000" fill-rule="evenodd"/>
	</g>
	<path id="Vector" d="M202.95 177.51C203.1 177.49 203.24 177.47 203.39 177.43C203.59 177.37 203.77 177.26 203.93 177.12C204.08 176.98 204.21 176.81 204.29 176.62C204.41 176.33 204.45 176.01 204.42 175.7C204.42 175.35 204.42 174.98 204.42 174.56C204.42 173.73 204.42 172.78 204.42 171.68L204.42 167.11C204.46 166.78 204.38 166.45 204.21 166.16C204.03 165.88 203.75 165.66 203.43 165.56C203.07 165.49 202.71 165.47 202.34 165.49L191.99 165.49L132.03 165.27C131.71 165.27 131.39 165.39 131.15 165.6C130.91 165.82 130.75 166.11 130.71 166.43C130.71 167.15 130.71 167.87 130.71 168.59C130.71 170.03 130.71 171.47 130.71 172.9C130.71 173.62 130.71 174.34 130.71 175.06C130.68 175.4 130.7 175.73 130.75 176.06C130.84 176.36 131.03 176.61 131.28 176.78C131.54 176.95 131.86 177.04 132.17 177.01L135.3 177.01L151.22 177.1L178.18 177.26L196.35 177.41L201.29 177.47L196.35 177.47L178.18 177.47L151.22 177.39L135.3 177.32L132.17 177.32C131.78 177.35 131.39 177.24 131.07 177.03C130.74 176.8 130.5 176.47 130.39 176.08C130.33 175.72 130.31 175.35 130.34 174.98C130.34 174.26 130.34 173.54 130.34 172.82C130.34 171.38 130.34 169.94 130.34 168.5C130.34 167.78 130.34 167.06 130.34 166.31C130.39 165.9 130.59 165.52 130.9 165.24C131.21 164.97 131.61 164.82 132.02 164.82L191.98 165.15L202.34 165.23C202.72 165.21 203.11 165.23 203.49 165.31C203.86 165.43 204.18 165.69 204.37 166.03C204.56 166.34 204.64 166.71 204.6 167.08C204.6 167.42 204.6 167.75 204.6 168.08C204.6 169.38 204.6 170.57 204.6 171.67C204.6 172.78 204.6 173.7 204.6 174.55C204.6 174.96 204.6 175.34 204.6 175.7C204.63 176.02 204.58 176.34 204.45 176.64C204.36 176.84 204.22 177.01 204.05 177.15C203.89 177.3 203.69 177.4 203.48 177.46C203.31 177.52 203.13 177.53 202.95 177.51Z" fill="#E0E0E0" fill-opacity="1.000000" fill-rule="nonzero"/>
	<path id="Vector" d="M135.66 137.33L169.5 137.48L169.48 140.65L135.64 140.5L135.66 137.33Z" fill="#4CAF4F" fill-opacity="1.000000" fill-rule="evenodd"/>
	<g opacity="0.200000">
		<path id="Vector" d="M135.66 137.33L169.5 137.48L169.48 140.65L135.64 140.5L135.66 137.33Z" fill="#FFFFFF" fill-opacity="1.000000" fill-rule="evenodd"/>
	</g>
	<path id="Vector" d="M138.72 171.64C138.7 171.93 138.59 172.2 138.41 172.43C138.24 172.66 138 172.84 137.72 172.93C137.45 173.03 137.15 173.04 136.87 172.97C136.59 172.89 136.34 172.74 136.14 172.52C135.95 172.31 135.82 172.04 135.78 171.76C135.73 171.47 135.77 171.17 135.89 170.91C136.02 170.65 136.21 170.43 136.46 170.27C136.7 170.12 136.99 170.04 137.28 170.05C137.68 170.07 138.06 170.25 138.33 170.55C138.6 170.85 138.74 171.24 138.72 171.64Z" fill="#4CAF4F" fill-opacity="1.000000" fill-rule="nonzero"/>
	<path id="Vector" d="M143.3 171.66C143.32 171.86 143.29 172.07 143.22 172.26C143.15 172.45 143.05 172.63 142.91 172.77C142.77 172.92 142.6 173.04 142.41 173.12C142.23 173.2 142.03 173.25 141.82 173.25C141.62 173.25 141.42 173.2 141.23 173.12C141.05 173.04 140.88 172.92 140.74 172.77C140.6 172.63 140.49 172.45 140.42 172.26C140.36 172.07 140.33 171.86 140.34 171.66C140.33 171.46 140.36 171.25 140.42 171.06C140.49 170.87 140.6 170.69 140.74 170.55C140.88 170.4 141.05 170.28 141.23 170.2C141.42 170.12 141.62 170.08 141.82 170.08C142.03 170.08 142.23 170.12 142.41 170.2C142.6 170.28 142.77 170.4 142.91 170.55C143.05 170.69 143.15 170.87 143.22 171.06C143.29 171.25 143.32 171.46 143.3 171.66Z" fill="#4CAF4F" fill-opacity="1.000000" fill-rule="nonzero"/>
	<path id="Vector" d="M147.89 171.68C147.87 171.97 147.76 172.25 147.59 172.48C147.41 172.71 147.17 172.88 146.89 172.97C146.62 173.07 146.32 173.08 146.04 173.01C145.76 172.94 145.51 172.78 145.31 172.57C145.12 172.35 144.99 172.09 144.95 171.8C144.9 171.51 144.95 171.22 145.07 170.95C145.19 170.69 145.38 170.47 145.63 170.32C145.88 170.16 146.16 170.08 146.45 170.09C146.85 170.12 147.23 170.3 147.5 170.59C147.77 170.89 147.91 171.28 147.89 171.68Z" fill="#4CAF4F" fill-opacity="1.000000" fill-rule="nonzero"/>
	<path id="Vector" d="M152.47 171.7C152.45 171.99 152.35 172.27 152.17 172.5C151.99 172.73 151.75 172.9 151.48 173C151.2 173.09 150.91 173.1 150.63 173.03C150.35 172.96 150.09 172.8 149.9 172.59C149.7 172.37 149.57 172.11 149.53 171.82C149.49 171.53 149.53 171.24 149.65 170.98C149.77 170.71 149.97 170.49 150.21 170.34C150.46 170.18 150.74 170.11 151.03 170.11C151.43 170.14 151.81 170.32 152.08 170.61C152.35 170.91 152.49 171.3 152.47 171.7Z" fill="#4CAF4F" fill-opacity="1.000000" fill-rule="nonzero"/>
	<path id="Vector" d="M157.06 171.72C157.04 172.01 156.93 172.29 156.75 172.52C156.58 172.75 156.34 172.92 156.06 173.02C155.79 173.11 155.49 173.12 155.21 173.05C154.93 172.98 154.68 172.83 154.48 172.61C154.28 172.4 154.16 172.13 154.11 171.84C154.07 171.56 154.11 171.26 154.23 171C154.35 170.73 154.55 170.51 154.79 170.36C155.04 170.21 155.33 170.13 155.62 170.14C156.02 170.16 156.39 170.34 156.66 170.63C156.93 170.93 157.07 171.32 157.06 171.72Z" fill="#4CAF4F" fill-opacity="1.000000" fill-rule="nonzero"/>
	<path id="Vector" d="M161.65 171.74C161.63 172.03 161.52 172.3 161.35 172.53C161.17 172.76 160.94 172.94 160.66 173.04C160.39 173.13 160.1 173.15 159.82 173.08C159.53 173.01 159.28 172.86 159.08 172.65C158.89 172.44 158.75 172.17 158.71 171.89C158.66 171.6 158.69 171.31 158.81 171.05C158.92 170.78 159.12 170.56 159.36 170.4C159.6 170.24 159.88 170.16 160.17 170.16C160.58 170.17 160.96 170.35 161.24 170.64C161.51 170.94 161.66 171.33 161.65 171.74Z" fill="#4CAF4F" fill-opacity="1.000000" fill-rule="nonzero"/>
	<path id="Vector" d="M166.23 171.76C166.24 171.96 166.22 172.17 166.15 172.36C166.08 172.55 165.97 172.73 165.83 172.87C165.7 173.02 165.53 173.14 165.34 173.22C165.15 173.3 164.95 173.35 164.75 173.35C164.55 173.35 164.35 173.3 164.16 173.22C163.97 173.14 163.81 173.02 163.67 172.87C163.53 172.73 163.42 172.55 163.35 172.36C163.28 172.17 163.26 171.96 163.27 171.76C163.26 171.56 163.28 171.35 163.35 171.16C163.42 170.97 163.53 170.8 163.67 170.65C163.81 170.5 163.97 170.38 164.16 170.3C164.35 170.22 164.55 170.18 164.75 170.18C164.95 170.18 165.15 170.22 165.34 170.3C165.53 170.38 165.7 170.5 165.83 170.65C165.97 170.8 166.08 170.97 166.15 171.16C166.22 171.35 166.24 171.56 166.23 171.76Z" fill="#4CAF4F" fill-opacity="1.000000" fill-rule="nonzero"/>
	<path id="Vector" d="M170.81 171.78C170.79 172.07 170.69 172.35 170.51 172.58C170.34 172.81 170.1 172.98 169.83 173.08C169.56 173.18 169.26 173.19 168.98 173.12C168.7 173.05 168.45 172.9 168.25 172.69C168.05 172.48 167.92 172.22 167.87 171.93C167.82 171.65 167.86 171.35 167.97 171.09C168.09 170.82 168.28 170.6 168.52 170.44C168.76 170.28 169.05 170.2 169.34 170.2C169.74 170.21 170.12 170.39 170.4 170.69C170.68 170.98 170.82 171.38 170.81 171.78Z" fill="#4CAF4F" fill-opacity="1.000000" fill-rule="nonzero"/>
	<path id="Vector" d="M175.39 171.8C175.37 172.09 175.27 172.37 175.09 172.6C174.92 172.83 174.68 173.01 174.4 173.1C174.13 173.2 173.83 173.21 173.55 173.14C173.27 173.07 173.01 172.91 172.82 172.7C172.62 172.48 172.5 172.22 172.45 171.93C172.41 171.64 172.45 171.35 172.57 171.09C172.69 170.82 172.89 170.6 173.13 170.44C173.38 170.29 173.66 170.21 173.96 170.22C174.35 170.25 174.73 170.42 175 170.72C175.27 171.02 175.41 171.4 175.39 171.8Z" fill="#4CAF4F" fill-opacity="1.000000" fill-rule="nonzero"/>
	<g opacity="0.200000">
		<path id="Vector" d="M138.72 171.64C138.7 171.93 138.59 172.2 138.41 172.43C138.24 172.66 138 172.84 137.72 172.93C137.45 173.03 137.15 173.04 136.87 172.97C136.59 172.89 136.34 172.74 136.14 172.52C135.95 172.31 135.82 172.04 135.78 171.76C135.73 171.47 135.77 171.17 135.89 170.91C136.02 170.65 136.21 170.43 136.46 170.27C136.7 170.12 136.99 170.04 137.28 170.05C137.68 170.07 138.06 170.25 138.33 170.55C138.6 170.85 138.74 171.24 138.72 171.64Z" fill="#FFFFFF" fill-opacity="1.000000" fill-rule="nonzero"/>
		<path id="Vector" d="M143.3 171.66C143.32 171.86 143.29 172.07 143.22 172.26C143.15 172.45 143.05 172.63 142.91 172.77C142.77 172.92 142.6 173.04 142.41 173.12C142.23 173.2 142.03 173.25 141.82 173.25C141.62 173.25 141.42 173.2 141.23 173.12C141.05 173.04 140.88 172.92 140.74 172.77C140.6 172.63 140.49 172.45 140.42 172.26C140.36 172.07 140.33 171.86 140.34 171.66C140.33 171.46 140.36 171.25 140.42 171.06C140.49 170.87 140.6 170.69 140.74 170.55C140.88 170.4 141.05 170.28 141.23 170.2C141.42 170.12 141.62 170.08 141.82 170.08C142.03 170.08 142.23 170.12 142.41 170.2C142.6 170.28 142.77 170.4 142.91 170.55C143.05 170.69 143.15 170.87 143.22 171.06C143.29 171.25 143.32 171.46 143.3 171.66Z" fill="#FFFFFF" fill-opacity="1.000000" fill-rule="nonzero"/>
		<path id="Vector" d="M147.89 171.68C147.87 171.97 147.76 172.25 147.59 172.48C147.41 172.71 147.17 172.88 146.89 172.97C146.62 173.07 146.32 173.08 146.04 173.01C145.76 172.94 145.51 172.78 145.31 172.57C145.12 172.35 144.99 172.09 144.95 171.8C144.9 171.51 144.95 171.22 145.07 170.95C145.19 170.69 145.38 170.47 145.63 170.32C145.88 170.16 146.16 170.08 146.45 170.09C146.85 170.12 147.23 170.3 147.5 170.59C147.77 170.89 147.91 171.28 147.89 171.68Z" fill="#FFFFFF" fill-opacity="1.000000" fill-rule="nonzero"/>
		<path id="Vector" d="M152.47 171.7C152.45 171.99 152.35 172.27 152.17 172.5C151.99 172.73 151.75 172.9 151.48 173C151.2 173.09 150.91 173.1 150.63 173.03C150.35 172.96 150.09 172.8 149.9 172.59C149.7 172.37 149.57 172.11 149.53 171.82C149.49 171.53 149.53 171.24 149.65 170.98C149.77 170.71 149.97 170.49 150.21 170.34C150.46 170.18 150.74 170.11 151.03 170.11C151.43 170.14 151.81 170.32 152.08 170.61C152.35 170.91 152.49 171.3 152.47 171.7Z" fill="#FFFFFF" fill-opacity="1.000000" fill-rule="nonzero"/>
		<path id="Vector" d="M157.06 171.72C157.04 172.01 156.93 172.29 156.75 172.52C156.58 172.75 156.34 172.92 156.06 173.02C155.79 173.11 155.49 173.12 155.21 173.05C154.93 172.98 154.68 172.83 154.48 172.61C154.28 172.4 154.16 172.13 154.11 171.84C154.07 171.56 154.11 171.26 154.23 171C154.35 170.73 154.55 170.51 154.79 170.36C155.04 170.21 155.33 170.13 155.62 170.14C156.02 170.16 156.39 170.34 156.66 170.63C156.93 170.93 157.07 171.32 157.06 171.72Z" fill="#FFFFFF" fill-opacity="1.000000" fill-rule="nonzero"/>
		<path id="Vector" d="M161.65 171.74C161.63 172.03 161.52 172.3 161.35 172.53C161.17 172.76 160.94 172.94 160.66 173.04C160.39 173.13 160.1 173.15 159.82 173.08C159.53 173.01 159.28 172.86 159.08 172.65C158.89 172.44 158.75 172.17 158.71 171.89C158.66 171.6 158.69 171.31 158.81 171.05C158.92 170.78 159.12 170.56 159.36 170.4C159.6 170.24 159.88 170.16 160.17 170.16C160.58 170.17 160.96 170.35 161.24 170.64C161.51 170.94 161.66 171.33 161.65 171.74Z" fill="#FFFFFF" fill-opacity="1.000000" fill-rule="nonzero"/>
		<path id="Vector" d="M166.23 171.76C166.24 171.96 166.22 172.17 166.15 172.36C166.08 172.55 165.97 172.73 165.83 172.87C165.7 173.02 165.53 173.14 165.34 173.22C165.15 173.3 164.95 173.35 164.75 173.35C164.55 173.35 164.35 173.3 164.16 173.22C163.97 173.14 163.81 173.02 163.67 172.87C163.53 172.73 163.42 172.55 163.35 172.36C163.28 172.17 163.26 171.96 163.27 171.76C163.26 171.56 163.28 171.35 163.35 171.16C163.42 170.97 163.53 170.8 163.67 170.65C163.81 170.5 163.97 170.38 164.16 170.3C164.35 170.22 164.55 170.18 164.75 170.18C164.95 170.18 165.15 170.22 165.34 170.3C165.53 170.38 165.7 170.5 165.83 170.65C165.97 170.8 166.08 170.97 166.15 171.16C166.22 171.35 166.24 171.56 166.23 171.76Z" fill="#FFFFFF" fill-opacity="1.000000" fill-rule="nonzero"/>
		<path id="Vector" d="M170.81 171.78C170.79 172.07 170.69 172.35 170.51 172.58C170.34 172.81 170.1 172.98 169.83 173.08C169.56 173.18 169.26 173.19 168.98 173.12C168.7 173.05 168.45 172.9 168.25 172.69C168.05 172.48 167.92 172.22 167.87 171.93C167.82 171.65 167.86 171.35 167.97 171.09C168.09 170.82 168.28 170.6 168.52 170.44C168.76 170.28 169.05 170.2 169.34 170.2C169.74 170.21 170.12 170.39 170.4 170.69C170.68 170.98 170.82 171.38 170.81 171.78Z" fill="#FFFFFF" fill-opacity="1.000000" fill-rule="nonzero"/>
		<path id="Vector" d="M175.39 171.8C175.37 172.09 175.27 172.37 175.09 172.6C174.92 172.83 174.68 173.01 174.4 173.1C174.13 173.2 173.83 173.21 173.55 173.14C173.27 173.07 173.01 172.91 172.82 172.7C172.62 172.48 172.5 172.22 172.45 171.93C172.41 171.64 172.45 171.35 172.57 171.09C172.69 170.82 172.89 170.6 173.13 170.44C173.38 170.29 173.66 170.21 173.96 170.22C174.35 170.25 174.73 170.42 175 170.72C175.27 171.02 175.41 171.4 175.39 171.8Z" fill="#FFFFFF" fill-opacity="1.000000" fill-rule="nonzero"/>
	</g>
	<path id="Vector" d="M168.88 67.95C169.38 67.73 169.81 67.37 170.1 66.91C170.4 66.45 170.55 65.91 170.55 65.37C170.56 65.01 170.51 64.66 170.39 64.32C170.26 63.99 170.07 63.69 169.83 63.43C169.58 63.17 169.29 62.96 168.96 62.82C168.64 62.68 168.29 62.61 167.93 62.61C167.57 62.61 167.22 62.68 166.9 62.82C166.57 62.96 166.28 63.17 166.03 63.43C165.79 63.69 165.6 63.99 165.47 64.32C165.35 64.66 165.3 65.01 165.32 65.37C165.3 65.92 165.46 66.46 165.75 66.93C166.05 67.39 166.48 67.76 166.98 67.98C162.96 68.58 163.14 72.96 163.14 72.96L172.66 73C172.66 73 172.88 68.55 168.88 67.95Z" fill="#4CAF4F" fill-opacity="1.000000" fill-rule="nonzero"/>
	<g opacity="0.100000">
		<path id="Vector" d="M168.88 67.95C169.38 67.73 169.81 67.37 170.1 66.91C170.4 66.45 170.55 65.91 170.55 65.37C170.56 65.01 170.51 64.66 170.39 64.32C170.26 63.99 170.07 63.69 169.83 63.43C169.58 63.17 169.29 62.96 168.96 62.82C168.64 62.68 168.29 62.61 167.93 62.61C167.57 62.61 167.22 62.68 166.9 62.82C166.57 62.96 166.28 63.17 166.03 63.43C165.79 63.69 165.6 63.99 165.47 64.32C165.35 64.66 165.3 65.01 165.32 65.37C165.3 65.92 165.46 66.46 165.75 66.93C166.05 67.39 166.48 67.76 166.98 67.98C162.96 68.58 163.14 72.96 163.14 72.96L172.66 73C172.66 73 172.88 68.55 168.88 67.95Z" fill="#000000" fill-opacity="1.000000" fill-rule="nonzero"/>
	</g>
	<path id="Vector" d="M150.41 75.67L184.36 75.82L184.34 79.88L150.39 79.72L150.41 75.67Z" fill="#4CAF4F" fill-opacity="1.000000" fill-rule="evenodd"/>
	<g opacity="0.200000">
		<path id="Vector" d="M150.41 75.67L184.36 75.82L184.34 79.88L150.39 79.72L150.41 75.67Z" fill="#FFFFFF" fill-opacity="1.000000" fill-rule="evenodd"/>
	</g>
	<path id="Vector" d="M59.55 96.85L59.22 96.85L58.24 96.92C57.71 96.95 57.18 97.02 56.66 97.13C56.33 97.18 55.99 97.24 55.66 97.32L54.55 97.63C52.65 98.22 50.86 99.1 49.25 100.26C47.11 101.81 45.33 103.79 44.02 106.07C43.25 107.39 42.64 108.79 42.2 110.25C41.73 111.84 41.46 113.48 41.4 115.13C41.35 116 41.37 116.87 41.44 117.73C41.44 118.17 41.56 118.61 41.62 119.06C41.67 119.51 41.75 119.95 41.87 120.39C42.52 123.27 43.83 125.97 45.7 128.26C47.58 130.55 49.96 132.37 52.66 133.57C54.62 134.42 56.71 134.89 58.84 134.96C61.04 135.08 63.24 134.77 65.32 134.03L65.95 133.8L66.04 133.8L66.11 133.84L75.18 138.45L74.91 138.67C73.94 135.67 73.01 132.75 72.1 129.96L72.1 129.85L72.18 129.77C74.38 127.55 76.01 124.84 76.94 121.86C77.78 119.13 78.03 116.25 77.66 113.42C77.34 110.91 76.53 108.48 75.28 106.27C74.21 104.38 72.82 102.67 71.18 101.24C69.83 100.1 68.33 99.15 66.73 98.4C65.51 97.88 64.25 97.48 62.96 97.22L61.52 96.98L60.48 96.9L59.84 96.86L59.63 96.86C59.7 96.85 59.77 96.85 59.84 96.86L60.48 96.86L61.53 96.9L62.96 97.11C64.27 97.35 65.55 97.74 66.78 98.25C68.42 98.99 69.94 99.94 71.32 101.08C72.99 102.51 74.4 104.21 75.5 106.12C76.79 108.35 77.62 110.81 77.96 113.36C78.35 116.23 78.13 119.16 77.29 121.93C76.35 124.98 74.69 127.75 72.45 130.01L72.5 129.83C73.4 132.63 74.35 135.54 75.32 138.54L75.46 138.98L75.05 138.77L65.98 134.17L66.14 134.17L65.49 134.41C63.37 135.15 61.13 135.48 58.89 135.36C56.72 135.28 54.58 134.79 52.58 133.92C48.78 132.29 45.61 129.46 43.57 125.86C42.63 124.19 41.94 122.4 41.53 120.53C41.42 120.08 41.34 119.63 41.28 119.17C41.22 118.72 41.13 118.27 41.11 117.83C40.91 115.27 41.18 112.69 41.91 110.23C42.36 108.75 42.99 107.33 43.79 106C45.13 103.69 46.94 101.7 49.12 100.15C50.76 98.99 52.58 98.11 54.5 97.55L55.63 97.26C55.97 97.18 56.3 97.12 56.64 97.08C57.17 96.98 57.7 96.92 58.23 96.91L59.22 96.87C59.33 96.86 59.44 96.85 59.55 96.85Z" fill="#4CAF4F" fill-opacity="1.000000" fill-rule="nonzero"/>
	<path id="Vector" d="M63.66 113.63L62.32 113.63L59.45 109.58L59.45 106.93C59.45 106.93 57.39 106.8 57.63 110.27C57.88 113.75 57.63 112.86 57.63 112.86C57.63 112.86 53.27 112.86 52.91 113.26C52.55 113.65 52.53 117.87 52.48 120.22C52.45 120.79 52.61 121.35 52.94 121.81C53.27 122.28 53.74 122.62 54.28 122.78C54.43 122.83 54.59 122.85 54.75 122.85C55.84 122.85 61.4 121.96 61.4 121.96L63.7 121.96L63.66 113.63Z" fill="#4CAF4F" fill-opacity="1.000000" fill-rule="nonzero"/>
	<path id="Vector" d="M67.46 112.91L66.64 122.01L64.37 122.01L64.37 113.1L67.46 112.91Z" fill="#4CAF4F" fill-opacity="1.000000" fill-rule="nonzero"/>
	<path id="Vector" d="M94.58 298.04L94.58 291.89L83.55 291.81L83.45 301.11L84.14 301.16C87.18 301.35 99.62 301.64 101.66 301.01C103.94 300.3 94.58 298.04 94.58 298.04Z" fill="#4CAF4F" fill-opacity="1.000000" fill-rule="nonzero"/>
	<path id="Vector" d="M101.92 300.43C101.92 300.53 97.79 300.62 92.7 300.62C87.62 300.62 83.49 300.53 83.49 300.43C83.49 300.33 87.62 300.25 92.7 300.25C97.79 300.25 101.92 300.33 101.92 300.43Z" fill="#263238" fill-opacity="1.000000" fill-rule="nonzero"/>
	<path id="Vector" d="M94.77 299.3C94.68 299.25 94.77 298.92 94.99 298.58C95.22 298.23 95.52 298.09 95.59 298.16C95.66 298.23 95.51 298.51 95.29 298.8C95.08 299.1 94.86 299.35 94.77 299.3Z" fill="#263238" fill-opacity="1.000000" fill-rule="nonzero"/>
	<path id="Vector" d="M95.47 299.7C95.37 299.7 95.42 299.3 95.64 298.92C95.86 298.53 96.14 298.3 96.22 298.36C96.3 298.42 96.17 298.74 95.97 299.08C95.77 299.42 95.57 299.74 95.47 299.7Z" fill="#263238" fill-opacity="1.000000" fill-rule="nonzero"/>
	<path id="Vector" d="M86.81 300.41C86.77 300.41 86.6 300.28 86.37 300C86.08 299.65 85.75 299.33 85.4 299.04C85.06 298.76 84.65 298.58 84.21 298.51C83.87 298.47 83.65 298.51 83.63 298.47C83.61 298.43 83.82 298.28 84.22 298.25C84.74 298.24 85.25 298.41 85.65 298.74C86.04 299.05 86.36 299.43 86.6 299.85C86.77 300.17 86.86 300.38 86.81 300.41Z" fill="#263238" fill-opacity="1.000000" fill-rule="nonzero"/>
	<path id="Vector" d="M94.81 298.14C94.86 298.23 94.67 298.44 94.35 298.56C94.04 298.67 93.76 298.63 93.74 298.56C93.73 298.48 93.95 298.33 94.22 298.23C94.5 298.13 94.75 298.05 94.81 298.14Z" fill="#263238" fill-opacity="1.000000" fill-rule="nonzero"/>
	<path id="Vector" d="M94.63 297.54C94.63 297.65 94.35 297.74 93.97 297.74C93.6 297.75 93.3 297.66 93.31 297.56C93.32 297.46 93.61 297.37 93.97 297.36C94.33 297.35 94.62 297.44 94.63 297.54Z" fill="#263238" fill-opacity="1.000000" fill-rule="nonzero"/>
	<path id="Vector" d="M121.73 298.04L121.73 291.89L110.7 291.81L110.61 301.02L111.29 301.07C114.34 301.26 126.78 301.64 128.82 301.01C131.09 300.3 121.73 298.04 121.73 298.04Z" fill="#4CAF4F" fill-opacity="1.000000" fill-rule="nonzero"/>
	<path id="Vector" d="M129.08 300.45C129.08 300.55 124.96 300.64 119.86 300.64C114.77 300.64 110.65 300.55 110.65 300.45C110.65 300.35 114.78 300.26 119.86 300.26C124.95 300.26 129.08 300.35 129.08 300.45Z" fill="#263238" fill-opacity="1.000000" fill-rule="nonzero"/>
	<path id="Vector" d="M121.93 299.3C121.84 299.25 121.93 298.92 122.15 298.58C122.37 298.23 122.68 298.09 122.75 298.16C122.82 298.23 122.67 298.51 122.45 298.8C122.24 299.1 122.02 299.35 121.93 299.3Z" fill="#263238" fill-opacity="1.000000" fill-rule="nonzero"/>
	<path id="Vector" d="M122.63 299.7C122.54 299.7 122.58 299.3 122.81 298.92C123.03 298.53 123.31 298.3 123.39 298.36C123.47 298.42 123.33 298.74 123.13 299.08C122.93 299.42 122.73 299.74 122.63 299.7Z" fill="#263238" fill-opacity="1.000000" fill-rule="nonzero"/>
	<path id="Vector" d="M113.97 300.41C113.93 300.41 113.77 300.28 113.52 300C113.24 299.65 112.91 299.33 112.56 299.04C112.22 298.76 111.8 298.58 111.37 298.51C111.04 298.47 110.81 298.51 110.79 298.47C110.77 298.43 110.98 298.28 111.37 298.25C111.9 298.24 112.41 298.41 112.81 298.74C113.2 299.04 113.52 299.42 113.76 299.85C113.93 300.17 114.01 300.38 113.97 300.41Z" fill="#263238" fill-opacity="1.000000" fill-rule="nonzero"/>
	<path id="Vector" d="M121.96 298.14C122.01 298.23 121.83 298.44 121.51 298.56C121.19 298.67 120.91 298.63 120.9 298.56C120.88 298.48 121.11 298.33 121.38 298.23C121.65 298.13 121.91 298.05 121.96 298.14Z" fill="#263238" fill-opacity="1.000000" fill-rule="nonzero"/>
	<path id="Vector" d="M121.81 297.54C121.81 297.65 121.52 297.74 121.14 297.74C120.77 297.75 120.48 297.66 120.49 297.56C120.5 297.46 120.78 297.37 121.14 297.36C121.5 297.35 121.81 297.44 121.81 297.54Z" fill="#263238" fill-opacity="1.000000" fill-rule="nonzero"/>
	<path id="Vector" d="M162.37 115.38C162.08 115.09 161.37 115.23 161.37 115.23C161.44 114.82 161.44 114.39 161.37 113.98C161.24 113.58 160.33 113.65 160.33 113.65C160.29 113.32 160.29 112.97 160.33 112.63C160.34 112.56 160.32 112.48 160.28 112.42C160.25 112.35 160.19 112.3 160.12 112.27C159.69 112.09 159.23 112.01 158.77 112.02C158.21 111.63 160.46 108.48 161.29 107.47C162.13 106.47 161.98 105.68 161.24 105.68C160.73 105.68 158.11 108.71 157.3 109.72C156.5 110.73 154.36 113.55 154.29 111.3C154.21 109.05 153.31 107.35 152.74 107.06C152.17 106.78 151.57 107.45 151.88 108.08C152.15 108.79 152.32 109.54 152.38 110.29C152.46 110.9 152.43 111.51 152.3 112.11C152.06 113.22 151.74 114.3 151.33 115.36L151.27 115.36C151.27 115.36 135.57 130.42 134.44 131.49C133.42 132.45 113.02 130.34 108.93 129.91C107.54 129.71 106.13 129.61 104.73 129.63C102.95 129.7 102.63 129.96 100.86 129.98C96.39 130.03 91.93 130.42 87.53 131.15C85.53 131.49 83.66 132.37 82.13 133.7C80.6 135.03 79.47 136.75 78.85 138.67C74.73 151.55 65.39 182.03 63.74 199.16C62.5 201.41 61.37 203.74 60.37 206.11C59.22 209.26 59.5 209.37 59.89 209.44C60.94 209.64 62.13 203.98 62.58 205.35C63.02 206.72 60.31 212.09 61.41 212.25C62.85 212.45 63.99 206.49 64.13 206.02C64.27 205.54 64.98 205.7 64.85 206.14C64.64 206.77 62.62 213.49 64.03 213.7C64.81 213.82 64.89 212.4 64.89 212.4C64.89 212.4 66.33 205.98 66.99 206.11C67.64 206.23 66.94 210.03 66.61 211.29C66.28 212.56 66.74 213.2 67.42 212.89C67.88 212.67 68.98 208.82 69.28 207.57C69.58 206.32 70.34 202.85 71.35 204.86C72.37 206.87 73.91 208.03 74.54 208.06C74.68 208.05 74.82 207.99 74.93 207.89C75.04 207.8 75.11 207.68 75.15 207.54C75.19 207.4 75.18 207.25 75.14 207.12C75.09 206.98 75.01 206.86 74.89 206.77C74.35 206.24 73.88 205.64 73.5 204.98C73.17 204.46 72.92 203.89 72.78 203.29C72.49 202.1 72.33 200.88 72.28 199.65L72.17 198.93C73.78 190.95 78.42 167.54 85.12 152.58L87.86 158.24L89.06 162.42L81.73 180.5L112.97 180.09L108.31 162.15L113.97 143.45C120.09 143.58 135.81 143.81 138.43 142.62C141.73 141.19 158.77 119.66 158.77 119.66C159.88 118.8 160.94 117.88 161.96 116.9C161.96 116.9 162.99 116.03 162.37 115.38Z" fill="#FFBE9D" fill-opacity="1.000000" fill-rule="nonzero"/>
	<path id="Vector" d="M80.36 167.14C81.27 164.05 85.92 148.75 85.92 148.75C85.92 148.75 88.21 161.22 87.6 162.73C87.05 164.01 86.39 165.25 85.64 166.44C80.36 174.47 81.05 178.49 81.05 178.49L112.96 177.52C113.03 173.06 110.39 162.69 109.84 161.03C109.29 159.38 111.12 153.96 111.12 153.96C111.12 153.96 114.71 150.3 114.58 148.42C114.51 146.72 114.3 145.04 113.96 143.38L133.38 144.1L132.77 130.93L104.87 128.14C103.9 130.88 95.12 129.54 95.12 129.54C85.63 129.86 85.04 131.6 81.1 134.66C77.16 137.73 70.63 164.03 70.63 164.03L80.36 167.14Z" fill="#4CAF4F" fill-opacity="1.000000" fill-rule="nonzero"/>
	<path id="Vector" d="M99.22 164.03C98.67 164.13 98.11 164.16 97.55 164.11C96.5 164.11 95.07 164.04 93.5 163.88C91.92 163.73 90.5 163.5 89.48 163.3C88.92 163.23 88.37 163.09 87.85 162.88C88.41 162.88 88.97 162.94 89.53 163.04C90.55 163.17 91.96 163.35 93.53 163.51C95.1 163.67 96.52 163.78 97.55 163.85C98.11 163.85 98.67 163.91 99.22 164.03Z" fill="#263238" fill-opacity="1.000000" fill-rule="nonzero"/>
	<path id="Vector" d="M101.41 161.32C100.86 161.59 100.27 161.79 99.67 161.91C96.8 162.67 93.84 163.02 90.87 162.96C90.26 162.98 89.64 162.92 89.04 162.78C89.65 162.71 90.26 162.67 90.87 162.69C92 162.65 93.55 162.57 95.27 162.37C96.98 162.17 98.5 161.88 99.58 161.65C100.18 161.49 100.79 161.38 101.41 161.32Z" fill="#263238" fill-opacity="1.000000" fill-rule="nonzero"/>
	<path id="Vector" d="M112.14 149.21C112.13 149.76 112.05 150.31 111.92 150.84C111.73 151.84 111.45 153.21 111.08 154.7C110.71 156.2 110.36 157.58 110.04 158.52C109.92 159.05 109.73 159.57 109.48 160.06C109.52 159.52 109.62 158.98 109.78 158.45C110.06 157.33 110.37 156.03 110.71 154.62C111.06 153.2 111.39 151.91 111.66 150.78C111.76 150.24 111.92 149.72 112.14 149.21Z" fill="#263238" fill-opacity="1.000000" fill-rule="nonzero"/>
	<path id="Vector" d="M80.7 165.31C79.03 165.05 77.39 164.67 75.78 164.16C74.14 163.78 72.53 163.28 70.96 162.65C72.63 162.91 74.27 163.3 75.88 163.8C77.52 164.18 79.13 164.68 80.7 165.31Z" fill="#263238" fill-opacity="1.000000" fill-rule="nonzero"/>
	<path id="Vector" d="M114.3 143.22C114.03 143.27 113.75 143.27 113.48 143.22C112.73 143.14 111.99 142.97 111.29 142.7C110.11 142.25 109.04 141.57 108.14 140.69C107.25 139.81 106.54 138.75 106.08 137.58C105.57 136.3 105.35 134.91 105.44 133.53C105.47 132.39 105.81 131.28 106.42 130.32C106.86 129.68 107.5 129.2 108.24 128.98C108.44 128.92 108.65 128.9 108.86 128.9C109 128.9 109.07 128.9 109.07 128.9C109.07 128.9 108.77 128.9 108.29 129.09C107.6 129.35 107.02 129.82 106.64 130.44C105.66 131.98 105.39 134.79 106.43 137.42C106.92 138.65 107.68 139.77 108.65 140.67C109.46 141.41 110.38 142 111.38 142.42C112.32 142.8 113.3 143.06 114.3 143.22Z" fill="#263238" fill-opacity="1.000000" fill-rule="nonzero"/>
	<path id="Vector" d="M131.07 143.84C130.89 141.63 130.83 139.42 130.9 137.21C130.84 135 130.91 132.78 131.1 130.58C131.28 132.78 131.34 135 131.27 137.21C131.33 139.42 131.27 141.64 131.07 143.84Z" fill="#263238" fill-opacity="1.000000" fill-rule="nonzero"/>
	<path id="Vector" d="M104.68 128.95C104.76 127.34 104.93 125.53 104.93 125.53C104.93 125.53 108.9 125.09 109.14 120.99C109.37 116.89 109.14 107.43 109.14 107.43L101.94 103.75L93.96 110.03L95.19 130.53L102.51 131C103.07 131.01 103.61 130.81 104.02 130.42C104.43 130.04 104.67 129.51 104.68 128.95Z" fill="#FFBE9D" fill-opacity="1.000000" fill-rule="nonzero"/>
	<path id="Vector" d="M105.4 117.75C105.4 117.75 105.4 117.83 105.33 117.92C105.28 117.99 105.21 118.04 105.13 118.08C105.05 118.11 104.96 118.13 104.88 118.12C104.42 118.12 103.97 117.59 103.81 116.97C103.74 116.67 103.74 116.36 103.81 116.06C103.83 115.93 103.88 115.8 103.95 115.69C104.03 115.59 104.13 115.5 104.24 115.44C104.34 115.4 104.45 115.4 104.55 115.44C104.62 115.47 104.68 115.53 104.71 115.6C104.76 115.73 104.71 115.81 104.71 115.8C104.71 115.79 104.71 115.73 104.64 115.65C104.6 115.6 104.55 115.57 104.49 115.55C104.42 115.54 104.36 115.55 104.3 115.58C104.21 115.64 104.14 115.71 104.09 115.8C104.04 115.89 104.01 115.99 104.01 116.09C103.95 116.36 103.95 116.64 104.01 116.91C104.15 117.47 104.54 117.92 104.88 117.96C104.95 117.97 105.02 117.97 105.09 117.95C105.15 117.93 105.21 117.9 105.27 117.86C105.35 117.8 105.38 117.74 105.4 117.75Z" fill="#EB996E" fill-opacity="1.000000" fill-rule="nonzero"/>
	<path id="Vector" d="M111.6 105.22C111.05 103.33 109.04 102.4 107.22 101.88C104.43 101.09 101.42 100.74 98.7 101.74C95.99 102.74 92.72 104.5 92.72 107.5C91.12 107.37 90.19 108.77 89.56 110.51C89.16 111.57 88.91 112.69 88.84 113.82C88.64 117.75 87.54 123.17 84.99 126.05C83.55 127.65 81.56 128.76 80.74 130.76C80.02 132.5 80.4 134.55 79.73 136.31C79.13 137.86 77.81 138.96 76.85 140.3C75.87 141.83 75.29 143.58 75.17 145.39C75.05 147.2 75.39 149.01 76.17 150.65C76.94 152.25 78.04 153.68 79.39 154.84C80.73 156 82.3 156.88 84 157.42C87.36 158.44 90.94 158.47 94.32 157.52C96.86 156.91 99.23 155.74 101.24 154.09C103.31 152.4 104.73 150.05 105.26 147.44C105.77 144.5 104.95 141.52 104.34 138.6C102.42 129.37 102.97 128.88 105.39 120.32C105.45 120.17 105.47 120.01 105.52 119.86C105.56 119.7 105.58 119.63 105.61 119.52C105.68 119.18 105.72 118.83 105.72 118.49C105.37 118.62 104.98 118.65 104.61 118.57C104.25 118.49 103.91 118.31 103.64 118.04C103.37 117.76 103.18 117.41 103.1 117.03C103.01 116.65 103.03 116.26 103.15 115.88C103.32 115.48 103.57 115.11 103.89 114.81C104.21 114.51 104.59 114.28 105.01 114.14C105.81 113.81 106.66 113.63 107.45 113.27C109.11 112.47 110.26 110.83 111.04 109.12C111.69 107.92 111.89 106.54 111.6 105.22Z" fill="#263238" fill-opacity="1.000000" fill-rule="nonzero"/>
	<path id="Vector" d="M105.68 117.94C105.84 118.17 105.96 118.41 106.06 118.66C106.27 119.11 106.56 119.76 106.88 120.5L106.94 120.63L106.78 120.63L106.06 120.7C105.57 120.7 105.15 120.79 104.66 120.78C104.62 120.77 104.58 120.75 104.55 120.73C104.51 120.7 104.49 120.66 104.47 120.62C104.45 120.55 104.45 120.48 104.47 120.42C104.49 120.32 104.51 120.22 104.54 120.13L104.67 119.62C104.73 119.28 104.84 118.94 104.97 118.63C104.96 118.97 104.91 119.32 104.82 119.65L104.72 120.17C104.68 120.34 104.62 120.6 104.72 120.58C105.08 120.58 105.59 120.5 106.06 120.47L106.78 120.41L106.69 120.57C106.38 119.85 106.12 119.17 105.97 118.7C105.84 118.47 105.74 118.21 105.68 117.94Z" fill="#4CAF4F" fill-opacity="1.000000" fill-rule="nonzero"/>
	<path id="Vector" d="M81.05 178.49L112.96 177.52L126.84 231.72L124.29 293.89L107.42 293.89L109.48 233.05L97.14 195.31L99.04 296.3L81.99 296.56L80.2 201.63C80.12 198.99 79.26 193.04 79.58 190.42L81.05 178.49Z" fill="#263238" fill-opacity="1.000000" fill-rule="nonzero"/>
	<path id="Vector" d="M101.39 196.08C100.87 196.12 100.34 196.09 99.83 195.99C98.86 195.88 97.55 195.67 96.1 195.39C94.65 195.1 93.36 194.77 92.42 194.5C91.92 194.39 91.44 194.22 90.99 193.98C90.99 193.88 93.33 194.44 96.21 195.02C99.09 195.6 101.4 195.98 101.39 196.08Z" fill="#455A64" fill-opacity="1.000000" fill-rule="nonzero"/>
	<path id="Vector" d="M124.11 290.48C124.11 290.59 120.29 290.67 115.58 290.67C110.87 290.67 107.04 290.59 107.04 290.48C107.04 290.38 110.86 290.3 115.58 290.3C120.3 290.3 124.11 290.38 124.11 290.48Z" fill="#455A64" fill-opacity="1.000000" fill-rule="nonzero"/>
	<path id="Vector" d="M98.89 293.68C98.89 293.79 95.18 293.87 90.6 293.87C86.03 293.87 82.32 293.79 82.32 293.68C82.32 293.57 86.04 293.49 90.6 293.49C95.17 293.49 98.89 293.58 98.89 293.68Z" fill="#455A64" fill-opacity="1.000000" fill-rule="nonzero"/>
	<path id="Vector" d="M96.69 293.42C96.59 293.42 96.14 271.35 95.69 244.14C95.24 216.93 94.97 194.85 95.06 194.85C95.16 194.85 95.62 216.9 96.06 244.13C96.51 271.36 96.8 293.42 96.69 293.42Z" fill="#455A64" fill-opacity="1.000000" fill-rule="nonzero"/>
	<path id="Vector" d="M121.85 290.48C121.84 290.39 121.84 290.29 121.85 290.19L121.85 289.33C121.85 288.55 121.91 287.43 121.95 286.02C122.05 283.14 122.19 278.96 122.37 273.84C122.76 263.54 123.31 249.33 123.91 233.66C123.91 233.51 123.91 233.36 123.91 233.23L123.91 233.28C120.13 218.18 116.71 204.47 114.23 194.54L111.35 182.81C111.02 181.44 110.77 180.36 110.59 179.62C110.5 179.26 110.45 178.99 110.4 178.78C110.37 178.69 110.35 178.59 110.35 178.49C110.38 178.59 110.41 178.68 110.43 178.78C110.49 178.98 110.56 179.25 110.66 179.6C110.86 180.31 111.14 181.41 111.5 182.77C112.22 185.55 113.23 189.55 114.5 194.48C117 204.39 120.45 218.07 124.28 233.2L124.28 233.25C124.28 233.38 124.28 233.53 124.28 233.67C123.64 249.35 123.06 263.54 122.63 273.84C122.41 278.97 122.22 283.12 122.09 286.02C122.02 287.46 121.96 288.55 121.93 289.33C121.93 289.69 121.88 289.98 121.88 290.19C121.88 290.29 121.87 290.39 121.85 290.48Z" fill="#455A64" fill-opacity="1.000000" fill-rule="nonzero"/>
	<path id="Vector" d="M116.35 231.97C115.13 232.37 113.89 232.64 112.62 232.8C111.06 233.06 109.74 233.25 109.14 233.28L109.14 233.13C109.34 233.19 109.44 233.23 109.44 233.26C109.44 233.28 109.32 233.26 109.12 233.26L108.68 233.26L109.12 233.13C109.68 232.96 111 232.69 112.55 232.41C113.8 232.14 115.07 231.99 116.35 231.97Z" fill="#455A64" fill-opacity="1.000000" fill-rule="nonzero"/>
	<path id="Vector" d="M116.05 234.03C114.93 234.08 113.8 234.03 112.69 233.88C111.57 233.86 110.45 233.74 109.35 233.51C111.59 233.33 113.86 233.51 116.05 234.03Z" fill="#455A64" fill-opacity="1.000000" fill-rule="nonzero"/>
	<g opacity="0.200000">
		<path id="Vector" d="M80.91 179.64C81.29 180.12 81.77 180.52 82.31 180.81C82.85 181.1 83.45 181.27 84.06 181.31C85.35 181.47 86.65 181.44 87.93 181.24C96.17 180.33 104.89 179.49 112.96 177.52C102.52 178.11 91.49 177.91 81.05 178.49L80.94 179.39L80.91 179.64Z" fill="#000000" fill-opacity="1.000000" fill-rule="nonzero"/>
	</g>
	<g opacity="0.200000">
		<path id="Vector" d="M91.67 194.35L97.55 217.18L97.14 195.31L91.67 194.35Z" fill="#000000" fill-opacity="1.000000" fill-rule="nonzero"/>
	</g>
</svg>
