<svg width="24.362427" height="16.705688" viewBox="0 0 24.3624 16.7057" fill="none" xmlns="http://www.w3.org/2000/svg" xmlns:xlink="http://www.w3.org/1999/xlink">
	<desc>
			Created with Pixso.
	</desc>
	<defs/>
	<rect id="Icon" rx="-0.348035" width="23.666363" height="16.009598" transform="translate(0.348035 0.348035)" fill="#FFFFFF" fill-opacity="0"/>
	<path id="Vector" d="M13.07 9.14L9.32 15.56L5.57 9.14L13.07 9.14ZM14.08 8.56L4.56 8.56L9.32 16.7L14.08 8.56Z" fill="#263238" fill-opacity="1.000000" fill-rule="nonzero"/>
	<path id="Vector" d="M19.6 1.14L23.35 7.57L15.84 7.57L19.6 1.14ZM19.6 0L14.83 8.13L24.36 8.13L19.6 0Z" fill="#263238" fill-opacity="1.000000" fill-rule="nonzero"/>
	<path id="Vector" d="M0 0L3.99 7.19L8.35 0.18L0 0Z" fill="#4CAF4F" fill-opacity="1.000000" fill-rule="nonzero"/>
	<path id="Vector" d="M9.32 0.63L13.51 7.78L5.12 7.78L9.32 0.63Z" fill="#4CAF4F" fill-opacity="1.000000" fill-rule="nonzero"/>
	<path id="Vector" d="M14.59 9.35L18.78 16.7L10.19 16.7L14.46 9.35L14.59 9.35Z" fill="#4CAF4F" fill-opacity="1.000000" fill-rule="nonzero"/>
	<path id="Vector" d="M15.49 8.9L19.6 16.14L23.76 8.9L15.49 8.9Z" fill="#4CAF4F" fill-opacity="1.000000" fill-rule="nonzero"/>
</svg>
