<svg width="33.411377" height="33.411331" viewBox="0 0 33.4114 33.4113" fill="none" xmlns="http://www.w3.org/2000/svg" xmlns:xlink="http://www.w3.org/1999/xlink">
	<desc>
			Created with Pixso.
	</desc>
	<defs>
		<clipPath id="clip211_2354">
			<rect id="Icon" rx="-0.348035" width="32.715267" height="32.715267" transform="translate(0.348035 0.348035)" fill="white" fill-opacity="0"/>
		</clipPath>
	</defs>
	<rect id="Icon" rx="-0.348035" width="32.715267" height="32.715267" transform="translate(0.348035 0.348035)" fill="#FFFFFF" fill-opacity="0"/>
	<g clip-path="url(#clip211_2354)">
		<path id="Vector" d="M2.08 9.91C2.08 8.67 2.58 7.47 3.46 6.59C4.34 5.71 5.54 5.22 6.78 5.22L26.62 5.22C27.87 5.22 29.06 5.71 29.94 6.59C30.82 7.47 31.32 8.67 31.32 9.91L31.32 23.49C31.32 24.73 30.82 25.93 29.94 26.81C29.06 27.69 27.87 28.19 26.62 28.19L6.78 28.19C5.54 28.19 4.34 27.69 3.46 26.81C2.58 25.93 2.08 24.73 2.08 23.49L2.08 9.91ZM6.78 7.3C6.09 7.3 5.43 7.58 4.94 8.07C4.45 8.56 4.17 9.22 4.17 9.91L4.17 11.48L29.23 11.48L29.23 9.91C29.23 9.22 28.96 8.56 28.47 8.07C27.98 7.58 27.31 7.3 26.62 7.3L6.78 7.3ZM4.17 23.49C4.17 24.18 4.45 24.84 4.94 25.33C5.43 25.82 6.09 26.1 6.78 26.1L26.62 26.1C27.31 26.1 27.98 25.82 28.47 25.33C28.96 24.84 29.23 24.18 29.23 23.49L29.23 13.57L4.17 13.57L4.17 23.49ZM21.92 19.83L25.05 19.83C25.33 19.83 25.6 19.94 25.79 20.14C25.99 20.33 26.1 20.6 26.1 20.88C26.1 21.15 25.99 21.42 25.79 21.62C25.6 21.81 25.33 21.92 25.05 21.92L21.92 21.92C21.64 21.92 21.38 21.81 21.18 21.62C20.99 21.42 20.88 21.15 20.88 20.88C20.88 20.6 20.99 20.33 21.18 20.14C21.38 19.94 21.64 19.83 21.92 19.83Z" fill="#4CAF4F" fill-opacity="1.000000" fill-rule="nonzero"/>
		<path id="Vector" d="M2.08 9.91C2.08 8.67 2.58 7.47 3.46 6.59C4.34 5.71 5.54 5.22 6.78 5.22L26.62 5.22C27.87 5.22 29.06 5.71 29.94 6.59C30.82 7.47 31.32 8.67 31.32 9.91L31.32 23.49C31.32 24.73 30.82 25.93 29.94 26.81C29.06 27.69 27.87 28.19 26.62 28.19L6.78 28.19C5.54 28.19 4.34 27.69 3.46 26.81C2.58 25.93 2.08 24.73 2.08 23.49L2.08 9.91ZM3.07 8.38Q3.37 7.67 3.95 7.08Q4.54 6.5 5.25 6.2Q5.95 5.91 6.78 5.91L26.62 5.91Q27.45 5.91 28.16 6.2Q28.86 6.5 29.45 7.08Q30.04 7.67 30.33 8.38Q30.62 9.09 30.62 9.91L30.62 23.49Q30.62 24.32 30.33 25.02Q30.04 25.73 29.45 26.32Q28.86 26.9 28.16 27.2Q27.45 27.49 26.62 27.49L6.78 27.49Q5.95 27.49 5.25 27.2Q4.54 26.9 3.95 26.32Q3.37 25.73 3.07 25.02Q2.78 24.32 2.78 23.49L2.78 9.91Q2.78 9.09 3.07 8.38ZM5.51 6.85Q4.93 7.09 4.44 7.58Q3.96 8.06 3.72 8.64Q3.48 9.23 3.48 9.91L3.48 12.18L29.93 12.18L29.93 9.91Q29.93 9.23 29.68 8.64Q29.44 8.06 28.96 7.58Q28.47 7.09 27.89 6.85Q27.3 6.61 26.62 6.61L6.78 6.61Q6.1 6.61 5.51 6.85ZM6.78 7.3C6.09 7.3 5.43 7.58 4.94 8.07C4.45 8.56 4.17 9.22 4.17 9.91L4.17 11.48L29.23 11.48L29.23 9.91C29.23 9.22 28.96 8.56 28.47 8.07C27.98 7.58 27.31 7.3 26.62 7.3L6.78 7.3ZM3.72 24.76Q3.96 25.34 4.44 25.83Q4.93 26.31 5.51 26.55Q6.1 26.79 6.78 26.79L26.62 26.79Q27.3 26.79 27.89 26.55Q28.47 26.31 28.96 25.83Q29.44 25.34 29.68 24.76Q29.93 24.17 29.93 23.49L29.93 12.87L3.48 12.87L3.48 23.49Q3.48 24.17 3.72 24.76ZM4.17 23.49C4.17 24.18 4.45 24.84 4.94 25.33C5.43 25.82 6.09 26.1 6.78 26.1L26.62 26.1C27.31 26.1 27.98 25.82 28.47 25.33C28.96 24.84 29.23 24.18 29.23 23.49L29.23 13.57L4.17 13.57L4.17 23.49ZM21.92 19.83L25.05 19.83C25.33 19.83 25.6 19.94 25.79 20.14C25.99 20.33 26.1 20.6 26.1 20.88C26.1 21.15 25.99 21.42 25.79 21.62C25.6 21.81 25.33 21.92 25.05 21.92L21.92 21.92C21.64 21.92 21.38 21.81 21.18 21.62C20.99 21.42 20.88 21.15 20.88 20.88C20.88 20.6 20.99 20.33 21.18 20.14C21.38 19.94 21.64 19.83 21.92 19.83ZM21.92 20.53L25.05 20.53Q25.13 20.53 25.19 20.55Q25.25 20.58 25.3 20.63Q25.35 20.68 25.38 20.74Q25.4 20.81 25.4 20.88Q25.4 20.95 25.38 21.01Q25.35 21.07 25.3 21.12Q25.25 21.17 25.19 21.2Q25.13 21.23 25.05 21.23L21.92 21.23Q21.85 21.23 21.79 21.2Q21.73 21.17 21.68 21.12Q21.62 21.07 21.6 21.01Q21.57 20.95 21.57 20.88Q21.57 20.81 21.6 20.74Q21.62 20.68 21.68 20.63Q21.73 20.58 21.79 20.55Q21.85 20.53 21.92 20.53Z" fill="#4CAF4F" fill-opacity="1.000000" fill-rule="evenodd"/>
	</g>
</svg>
