<svg width="33.411377" height="33.411331" viewBox="0 0 33.4114 33.4113" fill="none" xmlns="http://www.w3.org/2000/svg" xmlns:xlink="http://www.w3.org/1999/xlink">
	<desc>
			Created with Pixso.
	</desc>
	<defs>
		<clipPath id="clip211_2332">
			<rect id="Icon" rx="-0.348035" width="32.715267" height="32.715267" transform="translate(0.348035 0.348035)" fill="white" fill-opacity="0"/>
		</clipPath>
	</defs>
	<g clip-path="url(#clip211_2332)">
		<path id="Vector" d="M16.86 20.47C18.17 19.37 19.11 17.89 19.55 16.24C19.99 14.58 19.91 12.83 19.33 11.22C18.74 9.61 17.67 8.22 16.27 7.24C14.87 6.25 13.19 5.73 11.48 5.73C9.77 5.73 8.09 6.25 6.69 7.24C5.29 8.22 4.22 9.61 3.63 11.22C3.05 12.83 2.97 14.58 3.41 16.24C3.85 17.89 4.79 19.37 6.1 20.47C3.98 21.43 2.15 22.95 0.8 24.86C0.57 25.2 0.47 25.62 0.54 26.03C0.61 26.43 0.84 26.8 1.18 27.04C1.45 27.23 1.76 27.33 2.08 27.32C2.33 27.33 2.58 27.27 2.8 27.15C3.03 27.03 3.22 26.87 3.36 26.66C4.28 25.36 5.49 24.29 6.91 23.56C8.32 22.82 9.89 22.44 11.48 22.44C13.07 22.44 14.64 22.82 16.05 23.56C17.47 24.29 18.68 25.36 19.6 26.66C19.71 26.84 19.86 26.99 20.04 27.11C20.21 27.23 20.41 27.32 20.62 27.36C20.82 27.4 21.04 27.4 21.25 27.35C21.45 27.31 21.65 27.22 21.82 27.1C22 26.98 22.14 26.82 22.25 26.64C22.37 26.46 22.44 26.26 22.47 26.05C22.5 25.84 22.49 25.63 22.44 25.42C22.38 25.22 22.29 25.03 22.16 24.86C20.81 22.95 18.98 21.43 16.86 20.47ZM6.26 14.09C6.26 13.06 6.57 12.05 7.14 11.19C7.71 10.33 8.53 9.66 9.48 9.27C10.44 8.87 11.49 8.77 12.5 8.97C13.51 9.17 14.44 9.67 15.17 10.4C15.9 11.13 16.4 12.06 16.6 13.07C16.8 14.08 16.7 15.13 16.3 16.09C15.91 17.04 15.24 17.86 14.38 18.43C13.52 19 12.51 19.31 11.48 19.31C10.1 19.31 8.77 18.76 7.79 17.78C6.81 16.8 6.26 15.48 6.26 14.09ZM32.41 27.04C32.15 27.23 31.84 27.33 31.51 27.32C31.26 27.32 31.02 27.26 30.79 27.15C30.57 27.03 30.38 26.86 30.23 26.66C29.32 25.36 28.1 24.3 26.69 23.56C25.28 22.83 23.71 22.45 22.12 22.44C21.7 22.44 21.3 22.28 21.01 21.98C20.72 21.69 20.55 21.29 20.55 20.88C20.55 20.46 20.72 20.06 21.01 19.77C21.3 19.48 21.7 19.31 22.12 19.31C23.5 19.31 24.83 18.76 25.81 17.78C26.79 16.8 27.34 15.48 27.34 14.09C27.34 12.71 26.79 11.38 25.81 10.4C24.83 9.42 23.5 8.87 22.12 8.87C21.64 8.87 21.17 8.94 20.71 9.07C20.51 9.13 20.3 9.14 20.09 9.12C19.89 9.1 19.69 9.04 19.5 8.94C19.32 8.84 19.16 8.7 19.03 8.54C18.9 8.38 18.81 8.19 18.75 7.99C18.7 7.79 18.68 7.58 18.71 7.37C18.73 7.17 18.8 6.97 18.9 6.79C19 6.61 19.14 6.45 19.31 6.32C19.47 6.2 19.66 6.1 19.86 6.05C20.59 5.84 21.35 5.74 22.12 5.74C23.83 5.73 25.51 6.26 26.91 7.24C28.32 8.22 29.39 9.61 29.98 11.22C30.56 12.83 30.64 14.58 30.2 16.24C29.75 17.89 28.81 19.37 27.49 20.47C29.62 21.43 31.45 22.95 32.79 24.86C32.91 25.03 33 25.21 33.04 25.42C33.09 25.62 33.09 25.82 33.06 26.03C33.02 26.23 32.95 26.42 32.84 26.6C32.73 26.77 32.58 26.92 32.41 27.04Z" fill="#4CAF4F" fill-opacity="1.000000" fill-rule="nonzero"/>
		<path id="Vector" d="M17.41 19.96C18.43 18.93 19.17 17.65 19.55 16.24C19.99 14.58 19.91 12.83 19.33 11.22C18.74 9.61 17.67 8.22 16.27 7.24C14.87 6.25 13.19 5.73 11.48 5.73C9.77 5.73 8.09 6.25 6.69 7.24C5.29 8.22 4.22 9.61 3.63 11.22C3.05 12.83 2.97 14.58 3.41 16.24C3.79 17.65 4.53 18.93 5.55 19.96C5.73 20.14 5.91 20.31 6.1 20.47C5.87 20.58 5.65 20.69 5.42 20.8C3.59 21.77 2 23.16 0.8 24.86C0.57 25.2 0.47 25.62 0.54 26.03C0.61 26.43 0.84 26.8 1.18 27.04C1.45 27.23 1.76 27.33 2.08 27.32C2.33 27.33 2.58 27.27 2.8 27.15C3.03 27.03 3.22 26.87 3.36 26.66C4.28 25.36 5.49 24.29 6.91 23.56C8.32 22.82 9.89 22.44 11.48 22.44C13.07 22.44 14.64 22.82 16.05 23.56C17.47 24.29 18.68 25.36 19.6 26.66C19.71 26.84 19.86 26.99 20.04 27.11C20.21 27.23 20.41 27.32 20.62 27.36C20.82 27.4 21.04 27.4 21.25 27.35C21.45 27.31 21.65 27.22 21.82 27.1C22 26.98 22.14 26.82 22.25 26.64C22.37 26.46 22.44 26.26 22.47 26.05C22.5 25.84 22.49 25.63 22.44 25.42C22.38 25.22 22.29 25.03 22.16 24.86C20.96 23.16 19.37 21.77 17.54 20.8C17.31 20.69 17.09 20.58 16.86 20.47C17.05 20.31 17.23 20.14 17.41 19.96ZM28.17 20.8C27.95 20.69 27.72 20.58 27.49 20.47C27.69 20.31 27.87 20.14 28.05 19.96C29.08 18.93 29.82 17.65 30.2 16.24C30.64 14.58 30.56 12.83 29.98 11.22C29.39 9.61 28.32 8.22 26.91 7.24C25.51 6.26 23.83 5.73 22.12 5.74C21.35 5.74 20.59 5.84 19.86 6.05C19.66 6.1 19.47 6.2 19.31 6.32C19.14 6.45 19 6.61 18.9 6.79C18.8 6.97 18.73 7.17 18.71 7.37C18.68 7.58 18.7 7.79 18.75 7.99C18.81 8.19 18.9 8.38 19.03 8.54C19.16 8.7 19.32 8.84 19.5 8.94C19.69 9.04 19.89 9.1 20.09 9.12C20.3 9.14 20.51 9.13 20.71 9.07C21.17 8.94 21.64 8.87 22.12 8.87C23.5 8.87 24.83 9.42 25.81 10.4C26.79 11.38 27.34 12.71 27.34 14.09C27.34 15.48 26.79 16.8 25.81 17.78C24.83 18.76 23.5 19.31 22.12 19.31C21.7 19.31 21.3 19.48 21.01 19.77C20.72 20.06 20.55 20.46 20.55 20.88C20.55 21.29 20.72 21.69 21.01 21.98C21.3 22.28 21.7 22.44 22.12 22.44C23.71 22.45 25.28 22.83 26.69 23.56C28.1 24.3 29.32 25.36 30.23 26.66C30.38 26.86 30.57 27.03 30.79 27.15C31.02 27.26 31.26 27.32 31.51 27.32C31.84 27.33 32.15 27.23 32.41 27.04C32.58 26.92 32.73 26.77 32.84 26.6C32.95 26.42 33.02 26.23 33.06 26.03C33.09 25.82 33.09 25.62 33.04 25.42C33 25.21 32.91 25.03 32.79 24.86C31.6 23.16 30.01 21.77 28.17 20.8ZM19.14 13.74Q19.19 14.89 18.88 16.06Q18.57 17.22 17.95 18.19Q17.33 19.16 16.41 19.94L15.56 20.65L16.57 21.11Q18.11 21.8 19.36 22.84Q20.62 23.88 21.59 25.26L21.6 25.27L21.61 25.29Q21.66 25.36 21.7 25.44Q21.74 25.51 21.76 25.6Q21.79 25.69 21.79 25.77Q21.8 25.86 21.78 25.95Q21.77 26.04 21.74 26.12Q21.71 26.2 21.66 26.28Q21.62 26.35 21.56 26.42Q21.5 26.48 21.42 26.53Q21.35 26.58 21.27 26.62Q21.19 26.65 21.1 26.67Q21.01 26.69 20.93 26.69Q20.84 26.69 20.75 26.67Q20.66 26.66 20.58 26.62Q20.5 26.59 20.43 26.54Q20.36 26.49 20.29 26.43Q20.23 26.36 20.19 26.29L20.18 26.27L20.17 26.26Q19.42 25.2 18.47 24.37Q17.53 23.54 16.38 22.94Q15.22 22.34 14 22.04Q12.78 21.74 11.48 21.74Q10.18 21.74 8.96 22.04Q7.74 22.34 6.58 22.94Q5.44 23.53 4.5 24.35Q3.54 25.19 2.79 26.26Q2.73 26.35 2.65 26.42Q2.58 26.48 2.48 26.53Q2.41 26.57 2.32 26.6Q2.21 26.63 2.08 26.63Q1.96 26.63 1.84 26.6Q1.71 26.56 1.58 26.47Q1.44 26.37 1.35 26.22Q1.26 26.08 1.23 25.91Q1.2 25.73 1.23 25.57Q1.27 25.4 1.37 25.26Q2.34 23.88 3.6 22.84Q4.85 21.8 6.39 21.11L7.4 20.65L6.55 19.94Q5.63 19.16 5.01 18.19Q4.39 17.22 4.08 16.06Q3.77 14.89 3.82 13.74Q3.87 12.59 4.29 11.46Q4.7 10.32 5.4 9.41Q6.1 8.5 7.09 7.81Q8.08 7.12 9.18 6.77Q10.27 6.42 11.48 6.42Q12.69 6.42 13.78 6.77Q14.88 7.12 15.87 7.81Q16.86 8.5 17.56 9.41Q18.26 10.32 18.67 11.46Q19.09 12.59 19.14 13.74ZM31.52 26.63L31.52 26.63Q31.41 26.63 31.31 26.6Q31.21 26.58 31.12 26.53Q31.02 26.48 30.94 26.41Q30.86 26.34 30.8 26.26Q30.06 25.21 29.12 24.38Q28.17 23.55 27.01 22.94Q25.86 22.35 24.64 22.05Q23.41 21.75 22.12 21.75Q21.94 21.75 21.78 21.68Q21.63 21.62 21.5 21.49Q21.37 21.37 21.31 21.21Q21.25 21.06 21.25 20.88Q21.25 20.7 21.31 20.54Q21.37 20.39 21.5 20.26Q21.63 20.13 21.78 20.07Q21.94 20.01 22.12 20.01Q23.34 20.01 24.39 19.57Q25.43 19.14 26.3 18.27Q27.17 17.41 27.6 16.36Q28.03 15.32 28.03 14.09Q28.03 12.87 27.6 11.82Q27.17 10.77 26.3 9.91Q25.43 9.04 24.39 8.61Q23.34 8.17 22.12 8.17Q21.73 8.17 21.34 8.22Q20.93 8.28 20.52 8.4Q20.38 8.44 20.24 8.43Q20.2 8.43 20.17 8.43Q20.08 8.42 20 8.4Q19.92 8.37 19.84 8.33Q19.76 8.28 19.7 8.23Q19.63 8.17 19.58 8.11Q19.52 8.04 19.48 7.96Q19.45 7.88 19.42 7.8Q19.4 7.72 19.39 7.63Q19.39 7.55 19.4 7.46Q19.41 7.37 19.43 7.29Q19.46 7.21 19.5 7.13Q19.55 7.06 19.6 6.99Q19.66 6.93 19.73 6.88Q19.8 6.82 19.88 6.78Q19.95 6.75 20.04 6.72Q20.71 6.53 21.4 6.47Q21.76 6.43 22.12 6.43Q23.33 6.43 24.44 6.78Q25.53 7.12 26.51 7.81Q27.5 8.5 28.21 9.41Q28.91 10.32 29.32 11.46Q29.74 12.59 29.79 13.74Q29.84 14.89 29.52 16.06Q29.21 17.22 28.59 18.19Q27.97 19.16 27.05 19.94L26.2 20.65L27.21 21.11Q28.74 21.8 30 22.84Q31.25 23.88 32.22 25.26Q32.3 25.36 32.34 25.47Q32.35 25.52 32.37 25.57Q32.38 25.65 32.39 25.74Q32.39 25.82 32.37 25.91Q32.36 25.99 32.33 26.07Q32.3 26.15 32.25 26.22Q32.21 26.29 32.15 26.36Q32.09 26.42 32.02 26.47Q31.88 26.56 31.73 26.6Q31.63 26.63 31.52 26.63ZM7.72 9.51Q7.06 10.06 6.56 10.8Q6.06 11.55 5.81 12.37Q5.56 13.19 5.56 14.09Q5.56 15.32 6 16.36Q6.43 17.41 7.3 18.27Q8.16 19.14 9.21 19.57Q10.25 20.01 11.48 20.01Q12.38 20.01 13.2 19.76Q14.02 19.51 14.77 19.01Q15.51 18.51 16.06 17.85Q16.6 17.18 16.95 16.35Q17.29 15.53 17.37 14.67Q17.46 13.82 17.28 12.94Q17.11 12.06 16.7 11.3Q16.3 10.54 15.66 9.91Q15.03 9.27 14.27 8.87Q13.51 8.46 12.63 8.29Q11.75 8.11 10.9 8.2Q10.05 8.28 9.22 8.62Q8.39 8.97 7.72 9.51ZM6.26 14.09C6.26 13.06 6.57 12.05 7.14 11.19C7.71 10.33 8.53 9.66 9.48 9.27C10.44 8.87 11.49 8.77 12.5 8.97C13.51 9.17 14.44 9.67 15.17 10.4C15.9 11.13 16.4 12.06 16.6 13.07C16.8 14.08 16.7 15.13 16.3 16.09C15.91 17.04 15.24 17.86 14.38 18.43C13.52 19 12.51 19.31 11.48 19.31C10.1 19.31 8.77 18.76 7.79 17.78C6.81 16.8 6.26 15.48 6.26 14.09Z" fill="#4CAF4F" fill-opacity="1.000000" fill-rule="evenodd"/>
	</g>
</svg>
