<svg width="33.411377" height="33.411331" viewBox="0 0 33.4114 33.4113" fill="none" xmlns="http://www.w3.org/2000/svg" xmlns:xlink="http://www.w3.org/1999/xlink">
	<desc>
			Created with Pixso.
	</desc>
	<defs>
		<clipPath id="clip211_2348">
			<rect id="Icon" rx="-0.348035" width="32.715267" height="32.715267" transform="translate(0.348035 0.348035)" fill="white" fill-opacity="0"/>
		</clipPath>
	</defs>
	<rect id="Icon" rx="-0.348035" width="32.715267" height="32.715267" transform="translate(0.348035 0.348035)" fill="#FFFFFF" fill-opacity="0"/>
	<g clip-path="url(#clip211_2348)">
		<path id="Vector" d="M27.84 29.23L27.84 26.45C27.84 24.97 27.25 23.55 26.21 22.51C25.16 21.46 23.75 20.88 22.27 20.88L20.88 20.88C20.51 20.88 20.15 20.73 19.89 20.47C19.63 20.21 19.49 19.85 19.49 19.49L19.49 12.52C19.49 11.79 19.19 11.08 18.67 10.56C18.15 10.03 17.44 9.74 16.7 9.74C15.96 9.74 15.25 10.03 14.73 10.56C14.21 11.08 13.92 11.79 13.92 12.52L13.92 25.05L10.58 20.6C10.32 20.25 9.98 19.97 9.59 19.78C9.21 19.59 8.78 19.49 8.35 19.49L7.74 19.49C6.54 19.49 5.56 20.46 5.56 21.67C5.56 22.06 5.67 22.45 5.87 22.79L9.74 29.23L27.84 29.23ZM16.7 5.56L16.7 4.17L16.7 5.56ZM25.05 13.92L26.45 13.92L25.05 13.92ZM6.96 13.92L8.35 13.92L6.96 13.92ZM10.22 7.43L9.23 6.45L10.22 7.43ZM23.18 7.43L24.17 6.45L23.18 7.43ZM28.51 29.21L28.53 29.23C28.53 29.62 28.23 29.93 27.84 29.93C27.45 29.93 27.14 29.62 27.14 29.23L27.16 29.21L28.51 29.21ZM10.31 28.87L10.34 28.87C10.54 29.21 10.43 29.63 10.1 29.83C9.76 30.03 9.34 29.92 9.14 29.59L9.15 29.56L10.31 28.87ZM17.38 5.54L17.4 5.56C17.4 5.95 17.09 6.26 16.7 6.26C16.31 6.26 16 5.95 16 5.56L16.02 5.54L17.38 5.54ZM16.02 4.19L16 4.17C16 3.78 16.31 3.48 16.7 3.48C17.09 3.48 17.4 3.78 17.4 4.17L17.38 4.19L16.02 4.19ZM25.07 14.59L25.05 14.61C24.66 14.61 24.36 14.31 24.36 13.92C24.36 13.53 24.66 13.22 25.05 13.22L25.07 13.24L25.07 14.59ZM26.43 13.24L26.45 13.22C26.84 13.22 27.14 13.53 27.14 13.92C27.14 14.31 26.84 14.61 26.45 14.61L26.43 14.59L26.43 13.24ZM6.98 14.59L6.96 14.61C6.57 14.61 6.26 14.31 6.26 13.92C6.26 13.53 6.57 13.22 6.96 13.22L6.98 13.24L6.98 14.59ZM8.33 13.24L8.35 13.22C8.74 13.22 9.04 13.53 9.04 13.92C9.04 14.31 8.74 14.61 8.35 14.61L8.33 14.59L8.33 13.24ZM10.68 6.94L10.71 6.94C10.99 7.22 10.99 7.65 10.71 7.93C10.43 8.2 10 8.2 9.73 7.93L9.73 7.9L10.68 6.94ZM8.77 6.94L8.74 6.94C8.47 6.67 8.47 6.23 8.74 5.96C9.02 5.68 9.45 5.68 9.73 5.96L9.73 5.99L8.77 6.94ZM23.68 7.9L23.68 7.93C23.4 8.2 22.97 8.2 22.69 7.93C22.42 7.65 22.42 7.22 22.69 6.94L22.72 6.94L23.68 7.9ZM23.68 5.99L23.68 5.96C23.95 5.68 24.38 5.68 24.66 5.96C24.94 6.23 24.94 6.67 24.66 6.94L24.63 6.94L23.68 5.99Z" fill="#4CAF4F" fill-opacity="1.000000" fill-rule="nonzero"/>
		<path id="Vector" d="M27.84 29.23L27.84 26.45C27.84 24.97 27.25 23.55 26.21 22.51C25.16 21.46 23.75 20.88 22.27 20.88L20.88 20.88C20.51 20.88 20.15 20.73 19.89 20.47C19.63 20.21 19.49 19.85 19.49 19.49L19.49 12.52C19.49 11.79 19.19 11.08 18.67 10.56C18.15 10.03 17.44 9.74 16.7 9.74C15.96 9.74 15.25 10.03 14.73 10.56C14.21 11.08 13.92 11.79 13.92 12.52L13.92 25.05L10.58 20.6C10.32 20.25 9.98 19.97 9.59 19.78C9.21 19.59 8.78 19.49 8.35 19.49L7.74 19.49C6.54 19.49 5.56 20.46 5.56 21.67C5.56 22.06 5.67 22.45 5.87 22.79L9.74 29.23M16.7 5.56L16.7 4.17M25.05 13.92L26.45 13.92M6.96 13.92L8.35 13.92M10.22 7.43L9.23 6.45M23.18 7.43L24.17 6.45" stroke="#4CAF4F" stroke-opacity="1.000000" stroke-width="1.392139" stroke-linejoin="round" stroke-linecap="round"/>
	</g>
</svg>
