<svg width="33.411377" height="33.411331" viewBox="0 0 33.4114 33.4113" fill="none" xmlns="http://www.w3.org/2000/svg" xmlns:xlink="http://www.w3.org/1999/xlink">
	<desc>
			Created with Pixso.
	</desc>
	<defs/>
	<path id="Vector" d="M19.7 16.45C19.53 16.45 19.38 16.41 19.24 16.33L19.24 16.34C19.24 16.6 19.14 16.85 18.95 17.03C18.77 17.22 18.52 17.32 18.26 17.32C18.09 17.32 17.93 17.27 17.79 17.2C17.77 17.44 17.68 17.66 17.51 17.84C17.32 18.02 17.07 18.12 16.81 18.12C16.28 18.12 15.86 17.71 15.83 17.2C15.67 17.28 15.48 17.33 15.29 17.32C14.78 17.28 14.38 16.84 14.38 16.3L14.38 11.87L13.87 12.75C13.68 13.08 13.32 13.29 12.93 13.29C12.74 13.29 12.56 13.24 12.39 13.15C12.19 13.03 12.04 12.83 11.98 12.61C11.92 12.38 11.95 12.14 12.07 11.93C12.07 11.93 13.72 9.07 13.82 8.9C13.83 8.87 13.86 8.79 13.89 8.73C13.92 8.67 13.95 8.6 13.97 8.54C14.47 7.13 15.7 6.26 17.19 6.26C19.12 6.26 20.69 7.96 20.69 10.06L20.69 15.47C20.69 15.73 20.58 15.98 20.4 16.17C20.21 16.35 19.97 16.45 19.7 16.45L19.7 16.45ZM17.19 6.78C15.91 6.78 14.89 7.5 14.46 8.71C14.43 8.79 14.41 8.87 14.37 8.94C14.28 9.16 14.28 9.16 14.25 9.19L14.25 9.19C14.11 9.44 13.71 10.13 12.52 12.19C12.47 12.28 12.46 12.38 12.48 12.47C12.51 12.56 12.57 12.64 12.65 12.69C12.91 12.84 13.27 12.74 13.42 12.49L14.41 10.77C14.47 10.66 14.59 10.61 14.71 10.64C14.82 10.67 14.9 10.78 14.9 10.9L14.9 16.31C14.9 16.56 15.09 16.78 15.33 16.8C15.47 16.8 15.59 16.76 15.69 16.66C15.78 16.58 15.82 16.46 15.82 16.34L15.82 12.8C15.82 12.65 15.94 12.54 16.08 12.54C16.23 12.54 16.35 12.65 16.35 12.8L16.35 17.14C16.35 17.39 16.55 17.6 16.81 17.6C16.93 17.6 17.05 17.55 17.14 17.47C17.22 17.38 17.27 17.26 17.27 17.14L17.27 12.8C17.27 12.65 17.39 12.54 17.53 12.54C17.68 12.54 17.79 12.65 17.79 12.8L17.79 16.29L17.79 16.34C17.79 16.59 18 16.8 18.26 16.8C18.38 16.8 18.49 16.75 18.58 16.66C18.67 16.57 18.72 16.46 18.72 16.34L18.72 12.8C18.72 12.65 18.83 12.54 18.98 12.54C19.12 12.54 19.24 12.65 19.24 12.8L19.24 15.47C19.24 15.72 19.45 15.93 19.7 15.93C19.83 15.93 19.94 15.88 20.03 15.8C20.12 15.71 20.16 15.59 20.16 15.47L20.16 10.06C20.16 8.25 18.83 6.78 17.19 6.78L17.19 6.78Z" fill="#4CAF4F" fill-opacity="1.000000" fill-rule="nonzero"/>
	<path id="Vector" d="M20.17 16.34C20.03 16.41 19.87 16.45 19.7 16.45L19.7 16.45L19.7 16.45L19.7 16.45C19.68 16.45 19.66 16.45 19.64 16.45C19.5 16.44 19.36 16.4 19.24 16.33L19.24 16.34C19.24 16.48 19.21 16.62 19.15 16.74C19.1 16.85 19.04 16.95 18.95 17.03C18.91 17.08 18.86 17.12 18.81 17.15C18.75 17.19 18.69 17.22 18.63 17.25C18.51 17.29 18.39 17.32 18.26 17.32C18.23 17.32 18.21 17.32 18.19 17.32C18.04 17.31 17.91 17.26 17.79 17.2C17.78 17.26 17.77 17.32 17.76 17.38C17.74 17.46 17.71 17.53 17.68 17.6C17.63 17.69 17.58 17.77 17.51 17.84C17.47 17.87 17.43 17.91 17.38 17.94C17.22 18.06 17.02 18.12 16.81 18.12C16.59 18.12 16.39 18.05 16.23 17.93C16.11 17.84 16.01 17.73 15.94 17.6C15.88 17.48 15.84 17.34 15.83 17.2C15.71 17.26 15.57 17.31 15.43 17.32C15.39 17.32 15.34 17.32 15.29 17.32C15.19 17.31 15.09 17.29 14.99 17.25C14.63 17.1 14.38 16.73 14.38 16.3L14.38 11.87L13.97 12.57L13.87 12.75C13.77 12.92 13.62 13.06 13.45 13.16C13.29 13.24 13.12 13.29 12.93 13.29C12.74 13.29 12.56 13.24 12.39 13.15C12.19 13.03 12.04 12.83 11.98 12.61C11.92 12.38 11.95 12.14 12.07 11.93C12.07 11.93 13.72 9.07 13.82 8.9C13.82 8.89 13.83 8.86 13.85 8.84C13.86 8.8 13.88 8.77 13.89 8.73C13.92 8.67 13.95 8.6 13.97 8.54C14.04 8.33 14.13 8.13 14.24 7.95C14.84 6.89 15.92 6.26 17.19 6.26C17.56 6.26 17.92 6.32 18.25 6.44C19.66 6.93 20.69 8.37 20.69 10.06L20.69 15.47C20.69 15.49 20.69 15.51 20.69 15.53C20.67 15.77 20.57 15.99 20.4 16.17C20.33 16.23 20.25 16.29 20.17 16.34ZM20.16 15.53C20.15 15.63 20.1 15.72 20.03 15.8C19.94 15.88 19.83 15.93 19.7 15.93L19.7 15.93C19.68 15.93 19.66 15.93 19.65 15.93C19.42 15.9 19.24 15.7 19.24 15.47L19.24 15.4L19.24 15.28L19.24 13.41L19.24 12.8C19.24 12.78 19.24 12.76 19.24 12.75C19.21 12.63 19.11 12.54 18.98 12.54C18.85 12.54 18.74 12.63 18.72 12.75C18.72 12.77 18.72 12.78 18.72 12.8L18.72 16.34C18.72 16.37 18.71 16.4 18.71 16.44C18.69 16.52 18.64 16.6 18.58 16.66C18.49 16.75 18.38 16.8 18.26 16.8C18.24 16.8 18.22 16.8 18.2 16.79C18.03 16.77 17.89 16.66 17.83 16.51C17.81 16.46 17.79 16.4 17.79 16.34L17.79 16.29L17.79 16.27L17.79 16.14L17.79 13.41L17.79 12.8C17.79 12.78 17.79 12.77 17.79 12.75C17.77 12.63 17.66 12.54 17.53 12.54C17.4 12.54 17.3 12.63 17.27 12.75C17.27 12.77 17.27 12.78 17.27 12.8L17.27 17.14C17.27 17.19 17.26 17.24 17.25 17.29C17.23 17.32 17.22 17.35 17.2 17.38C17.18 17.41 17.16 17.44 17.14 17.47C17.05 17.55 16.93 17.6 16.81 17.6C16.61 17.6 16.43 17.47 16.37 17.29C16.36 17.24 16.35 17.19 16.35 17.14L16.35 17.07L16.35 15.86L16.35 13.41L16.35 12.8C16.35 12.78 16.35 12.77 16.34 12.75C16.32 12.63 16.21 12.54 16.08 12.54C15.96 12.54 15.85 12.63 15.83 12.75C15.82 12.76 15.82 12.78 15.82 12.8L15.82 16.34C15.82 16.46 15.78 16.58 15.69 16.66C15.61 16.74 15.52 16.78 15.42 16.79C15.39 16.8 15.36 16.8 15.33 16.8C15.09 16.78 14.9 16.56 14.9 16.31L14.9 10.9C14.9 10.78 14.82 10.67 14.71 10.64C14.6 10.62 14.5 10.65 14.43 10.73C14.42 10.74 14.42 10.75 14.41 10.77L14.1 11.3L13.97 11.53L13.77 11.87L13.45 12.43L13.42 12.49C13.4 12.51 13.39 12.53 13.37 12.55C13.21 12.76 12.89 12.83 12.65 12.69C12.57 12.64 12.51 12.56 12.48 12.47C12.46 12.38 12.47 12.28 12.52 12.19C12.57 12.12 12.61 12.04 12.65 11.97C13.1 11.2 13.42 10.63 13.66 10.22C13.7 10.14 13.74 10.07 13.78 10.01C14.04 9.55 14.18 9.31 14.25 9.19L14.25 9.19L14.25 9.19L14.25 9.19L14.26 9.18C14.28 9.16 14.29 9.14 14.37 8.94C14.41 8.87 14.43 8.79 14.46 8.71C14.51 8.57 14.57 8.43 14.64 8.3C14.98 7.65 15.51 7.18 16.17 6.95C16.48 6.84 16.82 6.78 17.19 6.78L17.19 6.78L17.19 6.78C17.51 6.78 17.82 6.84 18.11 6.94C19.3 7.37 20.16 8.6 20.16 10.06L20.16 12.68L20.16 15.4L20.16 15.47C20.16 15.49 20.16 15.51 20.16 15.53Z" fill="#4CAF4F" fill-opacity="1.000000" fill-rule="evenodd"/>
	<path id="Vector" d="M9.41 20.21L13.21 17.93C13.67 17.66 14.26 17.78 14.55 18.2C14.66 18.36 14.72 18.54 14.72 18.72C14.87 18.65 15.02 18.61 15.18 18.61C15.26 18.61 15.34 18.62 15.42 18.64C15.67 18.7 15.89 18.86 16.02 19.08C16.16 19.31 16.2 19.58 16.14 19.83C16.08 20.07 15.93 20.26 15.73 20.4C15.87 20.48 15.99 20.6 16.08 20.74C16.21 20.96 16.25 21.23 16.19 21.48C16.13 21.74 15.97 21.95 15.74 22.09L15.74 22.09C15.88 22.17 15.99 22.28 16.08 22.43C16.22 22.65 16.25 22.92 16.19 23.17C16.13 23.43 15.97 23.64 15.74 23.78L11.1 26.56C10.24 27.08 9.23 27.26 8.28 27.07C7.32 26.87 6.53 26.32 6.04 25.51C5.28 24.24 5.39 22.73 6.34 21.58C6.39 21.53 6.43 21.47 6.47 21.42C6.51 21.36 6.56 21.29 6.57 21.27C6.67 21.09 8.27 18.2 8.27 18.2C8.44 17.91 8.74 17.75 9.05 17.75C9.2 17.75 9.35 17.78 9.48 17.86C9.65 17.95 9.79 18.09 9.88 18.25C10.08 18.58 10.09 19 9.9 19.33L9.41 20.21ZM9.43 18.52C9.38 18.43 9.31 18.36 9.23 18.32C9.05 18.22 8.83 18.28 8.73 18.46C7.59 20.52 7.19 21.23 7.04 21.48L7.05 21.48C7.03 21.52 7.03 21.52 6.9 21.72C6.85 21.79 6.8 21.85 6.75 21.91C5.93 22.9 5.84 24.15 6.49 25.24C6.9 25.92 7.57 26.39 8.39 26.55C9.21 26.72 10.08 26.56 10.83 26.11L15.47 23.33C15.58 23.26 15.65 23.16 15.68 23.04C15.71 22.92 15.69 22.8 15.63 22.69C15.5 22.48 15.22 22.41 15 22.54L12.71 23.91C12.58 23.98 12.42 23.94 12.35 23.82C12.27 23.7 12.31 23.54 12.44 23.46L14.73 22.09L15.47 21.64C15.58 21.58 15.65 21.48 15.68 21.36C15.71 21.24 15.69 21.11 15.63 21.01C15.5 20.79 15.21 20.72 15 20.85L11.96 22.67C11.84 22.74 11.68 22.7 11.6 22.58C11.53 22.46 11.57 22.29 11.69 22.22L15.42 19.99C15.52 19.92 15.6 19.82 15.63 19.7C15.66 19.58 15.64 19.46 15.58 19.35C15.51 19.25 15.41 19.17 15.29 19.14C15.17 19.11 15.05 19.13 14.94 19.2L14.25 19.61C14.25 19.61 14.25 19.61 14.25 19.61L14.25 19.61L11.22 21.43C11.1 21.5 10.93 21.46 10.86 21.34C10.79 21.21 10.83 21.05 10.95 20.98L13.98 19.16C14.09 19.1 14.16 19 14.19 18.88C14.23 18.75 14.2 18.61 14.12 18.5C13.99 18.3 13.7 18.25 13.48 18.38L8.84 21.17C8.74 21.23 8.61 21.21 8.53 21.13C8.44 21.05 8.42 20.92 8.48 20.81L9.45 19.08C9.54 18.9 9.54 18.69 9.43 18.52L9.43 18.52Z" fill="#4CAF4F" fill-opacity="1.000000" fill-rule="nonzero"/>
	<path id="Vector" d="M10.9 19.32L13.21 17.93C13.58 17.72 14.02 17.74 14.34 17.98C14.42 18.04 14.49 18.11 14.55 18.2C14.58 18.24 14.6 18.28 14.62 18.32C14.69 18.44 14.72 18.58 14.72 18.72C14.85 18.65 14.99 18.61 15.13 18.61C15.14 18.61 15.16 18.61 15.18 18.61C15.26 18.61 15.34 18.62 15.42 18.64C15.47 18.65 15.51 18.66 15.56 18.68C15.75 18.76 15.91 18.9 16.02 19.08C16.13 19.26 16.18 19.47 16.16 19.68C16.16 19.73 16.15 19.78 16.14 19.83C16.11 19.93 16.07 20.02 16.02 20.1C15.95 20.22 15.85 20.32 15.73 20.4C15.85 20.47 15.96 20.57 16.04 20.68C16.05 20.7 16.07 20.72 16.08 20.74C16.15 20.85 16.19 20.97 16.21 21.1C16.22 21.16 16.22 21.23 16.22 21.3C16.22 21.36 16.21 21.42 16.19 21.48C16.16 21.6 16.11 21.71 16.05 21.8C15.97 21.92 15.86 22.02 15.74 22.09L15.74 22.09C15.86 22.16 15.96 22.26 16.05 22.37C16.06 22.39 16.07 22.41 16.08 22.43C16.16 22.56 16.21 22.71 16.22 22.86C16.22 22.87 16.22 22.88 16.22 22.89C16.22 22.98 16.21 23.08 16.19 23.17C16.13 23.43 15.97 23.64 15.74 23.78L11.1 26.56C10.24 27.08 9.23 27.26 8.28 27.07C7.32 26.87 6.53 26.32 6.04 25.51C5.4 24.45 5.38 23.22 5.94 22.17C6.05 21.97 6.19 21.77 6.34 21.58C6.39 21.53 6.43 21.47 6.47 21.42C6.49 21.39 6.51 21.35 6.53 21.33C6.55 21.3 6.57 21.28 6.57 21.27C6.66 21.12 7.89 18.91 8.2 18.34C8.25 18.25 8.27 18.2 8.27 18.2C8.44 17.91 8.74 17.75 9.05 17.75C9.2 17.75 9.35 17.78 9.48 17.86C9.65 17.95 9.79 18.09 9.88 18.25L9.88 18.25C9.98 18.4 10.03 18.58 10.04 18.76C10.04 18.83 10.04 18.89 10.03 18.96C10.01 19.09 9.97 19.22 9.9 19.33L9.8 19.51L9.41 20.21L10.11 19.8L10.9 19.32ZM13.45 18.41L10.5 20.18L10.38 20.24L9.94 20.51L9.6 20.71L9.37 20.85L8.84 21.17C8.74 21.23 8.61 21.21 8.53 21.13C8.44 21.05 8.42 20.92 8.48 20.81L8.74 20.34L8.78 20.28L8.91 20.05L9.1 19.7L9.42 19.13L9.45 19.08C9.46 19.05 9.47 19.03 9.48 19C9.54 18.85 9.52 18.67 9.43 18.52L9.43 18.52C9.38 18.43 9.31 18.36 9.23 18.32C9.19 18.3 9.15 18.28 9.11 18.28C8.96 18.25 8.81 18.32 8.73 18.46C8.69 18.54 8.65 18.61 8.61 18.68C8.58 18.73 8.56 18.77 8.53 18.82C8.14 19.53 7.84 20.06 7.62 20.46C7.59 20.52 7.55 20.58 7.52 20.64C7.26 21.11 7.12 21.35 7.04 21.48L7.04 21.48L7.05 21.48L7.05 21.48C7.03 21.52 7.03 21.52 6.9 21.72C6.85 21.79 6.8 21.85 6.75 21.91C6.64 22.04 6.55 22.17 6.47 22.3C5.92 23.21 5.92 24.28 6.49 25.24C6.9 25.92 7.57 26.39 8.39 26.55C9.21 26.72 10.08 26.56 10.83 26.11L15.41 23.36L15.47 23.33C15.58 23.26 15.65 23.16 15.68 23.04C15.71 22.92 15.69 22.8 15.63 22.69C15.62 22.68 15.61 22.66 15.6 22.65C15.46 22.47 15.2 22.42 15 22.54L14.94 22.57L14.84 22.63L12.71 23.91C12.69 23.92 12.68 23.93 12.66 23.93C12.55 23.97 12.41 23.93 12.35 23.82C12.28 23.71 12.31 23.57 12.4 23.49C12.41 23.48 12.43 23.47 12.44 23.46L14.33 22.33L14.73 22.09L15.41 21.68L15.47 21.64C15.5 21.62 15.53 21.6 15.55 21.58C15.62 21.52 15.66 21.44 15.68 21.36C15.71 21.24 15.69 21.11 15.63 21.01C15.62 20.99 15.61 20.98 15.6 20.96C15.46 20.78 15.2 20.73 15 20.85L14.94 20.89L14.83 20.95L12.49 22.35L11.96 22.67C11.95 22.68 11.94 22.68 11.92 22.69C11.81 22.73 11.67 22.69 11.6 22.58C11.54 22.47 11.56 22.33 11.66 22.25C11.67 22.24 11.68 22.23 11.69 22.22L12.22 21.9L14.32 20.64L14.5 20.54L14.64 20.45L14.64 20.45L14.73 20.4L14.81 20.35L14.81 20.35L15.36 20.02L15.42 19.99C15.46 19.96 15.5 19.93 15.53 19.89C15.58 19.84 15.61 19.77 15.63 19.7C15.66 19.58 15.64 19.46 15.58 19.35C15.51 19.25 15.41 19.17 15.29 19.14C15.22 19.13 15.15 19.12 15.08 19.14C15.03 19.15 14.99 19.17 14.94 19.2L14.88 19.23L14.25 19.61L14.25 19.61L14.25 19.61L13.85 19.85L11.75 21.11L11.22 21.43C11.21 21.44 11.19 21.44 11.18 21.45C11.06 21.49 10.93 21.45 10.86 21.34C10.79 21.23 10.82 21.09 10.91 21.01C10.92 21 10.93 20.99 10.95 20.98L11.48 20.66L13.98 19.16L13.98 19.16C14.09 19.1 14.16 19 14.19 18.88C14.21 18.81 14.21 18.75 14.2 18.68L14.2 18.68L14.2 18.68C14.19 18.65 14.18 18.61 14.17 18.58C14.16 18.55 14.14 18.52 14.12 18.5C13.99 18.3 13.7 18.25 13.48 18.38L13.45 18.41Z" fill="#4CAF4F" fill-opacity="1.000000" fill-rule="evenodd"/>
	<path id="Vector" d="M27.57 25.51C27.09 26.32 26.29 26.87 25.33 27.07C24.38 27.26 23.38 27.08 22.51 26.56L17.87 23.78C17.65 23.64 17.49 23.43 17.42 23.17C17.36 22.92 17.4 22.65 17.54 22.43C17.62 22.28 17.74 22.17 17.88 22.09L17.87 22.09C17.65 21.95 17.49 21.74 17.43 21.48C17.36 21.23 17.4 20.96 17.54 20.74C17.62 20.59 17.74 20.48 17.88 20.4C17.68 20.26 17.54 20.06 17.48 19.83C17.42 19.57 17.46 19.31 17.59 19.08C17.73 18.86 17.94 18.7 18.2 18.64C18.28 18.62 18.36 18.61 18.44 18.61C18.6 18.61 18.75 18.65 18.89 18.72C18.9 18.54 18.95 18.36 19.06 18.2C19.36 17.78 19.95 17.66 20.4 17.93L24.2 20.21L23.71 19.33C23.53 18.99 23.53 18.58 23.73 18.25C23.83 18.09 23.97 17.95 24.13 17.86C24.27 17.78 24.42 17.75 24.56 17.75C24.88 17.75 25.18 17.91 25.34 18.2C25.91 19.22 26.97 21.13 27.04 21.27C27.06 21.29 27.11 21.36 27.15 21.42C27.19 21.47 27.23 21.53 27.27 21.58C28.22 22.73 28.34 24.24 27.57 25.51L27.57 25.51ZM26.87 21.91C26.82 21.85 26.77 21.79 26.72 21.72C26.58 21.52 26.57 21.51 26.56 21.46C26.4 21.19 25.99 20.46 24.88 18.46C24.79 18.28 24.56 18.22 24.39 18.32C24.3 18.36 24.23 18.43 24.18 18.52C24.08 18.69 24.07 18.9 24.17 19.08L25.14 20.81C25.19 20.92 25.17 21.05 25.09 21.13C25 21.21 24.87 21.23 24.77 21.17L20.13 18.38C19.92 18.25 19.63 18.3 19.49 18.5C19.41 18.61 19.39 18.75 19.42 18.88C19.45 19 19.53 19.1 19.63 19.16C19.63 19.16 19.63 19.16 19.63 19.16L22.67 20.98C22.79 21.05 22.83 21.21 22.76 21.34C22.68 21.46 22.52 21.5 22.4 21.43L18.67 19.2C18.57 19.13 18.44 19.11 18.32 19.14C18.21 19.17 18.1 19.25 18.04 19.35C17.98 19.46 17.96 19.58 17.99 19.7C18.02 19.82 18.09 19.92 18.2 19.99L18.92 20.42L21.92 22.22C22.05 22.29 22.09 22.46 22.01 22.58C21.94 22.7 21.78 22.74 21.65 22.67L18.62 20.85C18.4 20.72 18.12 20.79 17.99 21.01C17.92 21.11 17.9 21.24 17.93 21.36C17.96 21.48 18.04 21.58 18.14 21.64L18.89 22.09L21.18 23.46C21.3 23.54 21.34 23.7 21.27 23.82C21.19 23.94 21.03 23.98 20.91 23.91L18.62 22.54C18.51 22.47 18.39 22.45 18.27 22.48C18.15 22.51 18.05 22.59 17.98 22.69C17.92 22.8 17.9 22.93 17.93 23.04C17.96 23.16 18.04 23.26 18.14 23.33L22.78 26.11C23.54 26.56 24.41 26.72 25.23 26.55C26.04 26.39 26.72 25.92 27.12 25.24C27.78 24.15 27.69 22.9 26.87 21.91L26.87 21.91Z" fill="#4CAF4F" fill-opacity="1.000000" fill-rule="nonzero"/>
	<path id="Vector" d="M27.57 25.51C27.13 26.24 26.44 26.77 25.6 27C25.51 27.03 25.42 27.05 25.33 27.07C24.38 27.26 23.38 27.08 22.51 26.56L17.87 23.78C17.65 23.64 17.49 23.43 17.42 23.17C17.4 23.07 17.39 22.96 17.4 22.86C17.41 22.71 17.46 22.56 17.54 22.43C17.55 22.41 17.56 22.39 17.57 22.37C17.65 22.26 17.76 22.16 17.88 22.09L17.87 22.09C17.75 22.02 17.65 21.92 17.57 21.8C17.5 21.71 17.45 21.6 17.43 21.48C17.41 21.42 17.4 21.36 17.4 21.3C17.39 21.22 17.4 21.15 17.41 21.08C17.43 20.96 17.47 20.85 17.54 20.74C17.55 20.72 17.56 20.7 17.57 20.68C17.66 20.56 17.76 20.47 17.88 20.4C17.76 20.32 17.67 20.22 17.59 20.1C17.54 20.02 17.51 19.93 17.48 19.83C17.47 19.78 17.46 19.73 17.45 19.68C17.44 19.47 17.48 19.27 17.59 19.08C17.7 18.9 17.87 18.76 18.06 18.68C18.1 18.66 18.15 18.65 18.2 18.64C18.28 18.62 18.36 18.61 18.44 18.61C18.46 18.61 18.47 18.61 18.49 18.61C18.63 18.61 18.76 18.65 18.89 18.72C18.9 18.58 18.93 18.44 18.99 18.32C19.01 18.28 19.04 18.24 19.06 18.2C19.12 18.11 19.2 18.04 19.28 17.98C19.6 17.74 20.04 17.72 20.4 17.93L22.72 19.32L23.51 19.8L24.2 20.21L23.81 19.51L23.71 19.33C23.62 19.15 23.57 18.95 23.58 18.76C23.59 18.58 23.64 18.4 23.73 18.25C23.83 18.09 23.97 17.95 24.13 17.86C24.27 17.78 24.42 17.75 24.56 17.75C24.88 17.75 25.18 17.91 25.34 18.2C25.79 19.01 26.55 20.38 26.88 20.98C26.97 21.14 27.03 21.24 27.04 21.27C27.06 21.29 27.11 21.36 27.15 21.42C27.19 21.47 27.23 21.53 27.27 21.58L27.27 21.58C27.95 22.4 28.2 23.41 28.01 24.38C27.94 24.77 27.79 25.15 27.57 25.51L27.57 25.51L27.57 25.51L27.57 25.51ZM27.12 25.24L27.12 25.24C26.86 25.68 26.49 26.03 26.04 26.27C25.79 26.4 25.52 26.49 25.23 26.55C24.41 26.72 23.54 26.56 22.78 26.11L18.2 23.36L18.14 23.33C18.04 23.26 17.96 23.16 17.93 23.04C17.9 22.93 17.92 22.8 17.98 22.69C17.99 22.68 18.01 22.66 18.02 22.65C18.08 22.57 18.17 22.51 18.27 22.48C18.39 22.45 18.51 22.47 18.62 22.54L18.68 22.57L18.78 22.63L20.38 23.59L20.91 23.91C20.92 23.92 20.94 23.93 20.95 23.93C21.07 23.97 21.2 23.93 21.27 23.82C21.33 23.71 21.31 23.57 21.21 23.49C21.2 23.48 21.19 23.47 21.18 23.46L20.65 23.14L19.29 22.33L18.89 22.09L18.21 21.68L18.14 21.64C18.11 21.62 18.09 21.6 18.06 21.58C18 21.52 17.95 21.44 17.93 21.36C17.9 21.24 17.92 21.11 17.99 21.01C18 20.99 18.01 20.98 18.02 20.96C18.16 20.78 18.42 20.73 18.62 20.85L18.68 20.89L18.78 20.95L21.12 22.35L21.65 22.67C21.67 22.68 21.68 22.68 21.69 22.69C21.81 22.73 21.94 22.69 22.01 22.58C22.08 22.47 22.05 22.33 21.96 22.25C21.95 22.24 21.93 22.23 21.92 22.22L21.39 21.9L19.29 20.64L18.92 20.42L18.26 20.02L18.2 19.99C18.15 19.96 18.12 19.93 18.08 19.89C18.04 19.84 18.01 19.77 17.99 19.7C17.96 19.58 17.98 19.46 18.04 19.35C18.1 19.25 18.21 19.17 18.32 19.14C18.39 19.13 18.46 19.12 18.53 19.14C18.58 19.15 18.63 19.17 18.67 19.2L18.73 19.23L19.36 19.61L19.4 19.63L19.77 19.85L21.87 21.11L22.4 21.43C22.41 21.44 22.42 21.44 22.44 21.45C22.55 21.49 22.69 21.45 22.76 21.34C22.82 21.23 22.8 21.09 22.71 21.01C22.69 21 22.68 20.99 22.67 20.98L22.14 20.66L19.79 19.26L19.72 19.21L19.63 19.16L19.63 19.16C19.53 19.1 19.45 19 19.42 18.88C19.4 18.77 19.41 18.67 19.45 18.58C19.46 18.55 19.48 18.52 19.49 18.5C19.61 18.33 19.84 18.27 20.04 18.34C20.06 18.35 20.09 18.36 20.11 18.37C20.12 18.37 20.13 18.38 20.13 18.38L20.17 18.4L20.19 18.42L20.19 18.42L23.12 20.18L23.23 20.24L23.68 20.51L24.02 20.71L24.25 20.85L24.77 21.17C24.87 21.23 25 21.21 25.09 21.13C25.16 21.06 25.19 20.94 25.15 20.85C25.15 20.84 25.14 20.82 25.14 20.81L24.84 20.28L24.71 20.05L24.51 19.7L24.2 19.13L24.17 19.08C24.16 19.05 24.15 19.03 24.14 19C24.08 18.85 24.09 18.67 24.18 18.52C24.23 18.43 24.3 18.36 24.39 18.32C24.56 18.22 24.79 18.28 24.88 18.46C24.93 18.53 24.97 18.61 25.01 18.68C25.44 19.46 25.76 20.03 25.99 20.45C26.31 21.02 26.47 21.31 26.56 21.46C26.57 21.51 26.58 21.52 26.72 21.72C26.77 21.79 26.82 21.85 26.87 21.91L26.87 21.91C27.53 22.71 27.72 23.67 27.42 24.58C27.4 24.66 27.37 24.74 27.34 24.82C27.28 24.96 27.21 25.1 27.12 25.24Z" fill="#4CAF4F" fill-opacity="1.000000" fill-rule="evenodd"/>
</svg>
