<svg width="33.411377" height="33.411316" viewBox="0 0 33.4114 33.4113" fill="none" xmlns="http://www.w3.org/2000/svg" xmlns:xlink="http://www.w3.org/1999/xlink">
	<desc>
			Created with Pixso.
	</desc>
	<defs>
		<clipPath id="clip211_2050">
			<rect id="Logo" rx="-0.348035" width="27.146709" height="18.793875" transform="translate(3.132337 7.202039)" fill="white" fill-opacity="0"/>
		</clipPath>
	</defs>
	<rect id="Logo" rx="-0.348035" width="27.146709" height="18.793875" transform="translate(3.132337 7.202039)" fill="#FFFFFF" fill-opacity="0"/>
	<g clip-path="url(#clip211_2050)">
		<path id="Vector" d="M9.73 9.71L2.78 16.59C4.17 17.97 5.76 19.13 7.49 20.04C7.97 21.29 8.72 22.47 9.74 23.48C13.58 27.29 19.82 27.29 23.66 23.48C24.68 22.47 25.43 21.29 25.91 20.04C27.64 19.13 29.23 17.97 30.62 16.59L23.68 9.72C23.67 9.71 23.67 9.71 23.66 9.7C19.82 5.9 13.58 5.9 9.74 9.7C9.74 9.71 9.73 9.71 9.73 9.71ZM23 21.28C20.97 21.96 18.84 22.3 16.7 22.3C14.56 22.3 12.43 21.96 10.41 21.28C10.62 21.57 10.87 21.84 11.13 22.11C14.21 25.15 19.19 25.15 22.27 22.11C22.53 21.84 22.78 21.57 23 21.28ZM11.27 10.94C11.8 11.29 12.35 11.58 12.93 11.82C14.13 12.31 15.41 12.56 16.7 12.56C17.99 12.56 19.27 12.31 20.47 11.82C21.05 11.58 21.6 11.29 22.13 10.94C19.09 8.08 14.31 8.08 11.27 10.94Z" fill="#3B4158" fill-opacity="1.000000" fill-rule="evenodd"/>
	</g>
</svg>
