<svg width="33.411377" height="33.411316" viewBox="0 0 33.4114 33.4113" fill="none" xmlns="http://www.w3.org/2000/svg" xmlns:xlink="http://www.w3.org/1999/xlink">
	<desc>
			Created with Pixso.
	</desc>
	<defs>
		<clipPath id="clip211_2047">
			<rect id="Logo" rx="-0.348035" width="27.146709" height="27.146709" transform="translate(3.132337 3.132276)" fill="white" fill-opacity="0"/>
		</clipPath>
	</defs>
	<rect id="Logo" rx="-0.348035" width="27.146709" height="27.146709" transform="translate(3.132337 3.132276)" fill="#FFFFFF" fill-opacity="0"/>
	<g clip-path="url(#clip211_2047)">
		<path id="Vector" d="M9.74 2.78C13.58 2.78 16.7 5.9 16.7 9.74L16.7 2.78L23.66 2.78C27.51 2.78 30.62 5.9 30.62 9.74C30.62 13.58 27.51 16.7 23.66 16.7C27.51 16.7 30.62 19.82 30.62 23.66C30.62 25.57 29.85 27.3 28.61 28.56L28.58 28.58L28.56 28.61C27.3 29.85 25.57 30.62 23.66 30.62C21.76 30.62 20.04 29.86 18.79 28.63C18.77 28.62 18.76 28.6 18.74 28.58C18.72 28.57 18.71 28.55 18.69 28.54C17.46 27.28 16.7 25.56 16.7 23.66C16.7 27.51 13.58 30.62 9.74 30.62C5.9 30.62 2.78 27.51 2.78 23.66L2.78 16.7L9.74 16.7C5.9 16.7 2.78 13.58 2.78 9.74C2.78 5.9 5.9 2.78 9.74 2.78ZM15.31 9.74C15.31 12.82 12.82 15.31 9.74 15.31L9.74 4.17C12.82 4.17 15.31 6.66 15.31 9.74ZM29.23 23.66C29.23 20.59 26.74 18.09 23.66 18.09C20.59 18.09 18.09 20.59 18.09 23.66L29.23 23.66ZM4.17 18.09L4.17 23.66C4.17 26.74 6.66 29.23 9.74 29.23C12.82 29.23 15.31 26.74 15.31 23.66L15.31 18.09L4.17 18.09ZM18.09 15.31L18.09 4.17L23.66 4.17C26.74 4.17 29.23 6.66 29.23 9.74C29.23 12.82 26.74 15.31 23.66 15.31L18.09 15.31Z" fill="#263238" fill-opacity="1.000000" fill-rule="evenodd"/>
	</g>
</svg>
