<svg width="33.411377" height="33.411316" viewBox="0 0 33.4114 33.4113" fill="none" xmlns="http://www.w3.org/2000/svg" xmlns:xlink="http://www.w3.org/1999/xlink">
	<desc>
			Created with Pixso.
	</desc>
	<defs>
		<clipPath id="clip211_2057">
			<rect id="Logo" rx="-0.348035" width="32.019196" height="19.489944" transform="translate(1.044080 7.202039)" fill="white" fill-opacity="0"/>
		</clipPath>
	</defs>
	<rect id="Logo" rx="-0.348035" width="32.019196" height="19.489944" transform="translate(1.044080 7.202039)" fill="#FFFFFF" fill-opacity="0"/>
	<g clip-path="url(#clip211_2057)">
		<path id="Vector" d="M31.32 9.33C31.32 9.35 31.32 9.38 31.31 9.4C31.28 9.63 31.28 9.86 31.3 10.1C31.31 10.15 31.32 10.21 31.37 10.26C31.45 10.35 31.57 10.33 31.62 10.22C31.65 10.17 31.65 10.12 31.63 10.07C31.57 9.84 31.56 9.61 31.55 9.38C31.55 9.37 31.55 9.35 31.55 9.33C31.62 9.32 31.68 9.32 31.74 9.32C31.78 9.31 31.82 9.31 31.85 9.29C31.94 9.24 31.94 9.14 31.84 9.09C31.81 9.08 31.76 9.07 31.71 9.07C31.56 9.08 31.41 9.08 31.25 9.08C31.2 9.08 31.14 9.08 31.09 9.09C31.06 9.09 31.02 9.09 31 9.11C30.95 9.13 30.93 9.16 30.93 9.2C30.94 9.24 30.95 9.27 31 9.28C31.02 9.3 31.05 9.31 31.08 9.31C31.16 9.31 31.24 9.32 31.32 9.33ZM33 9.6C33 9.61 33.01 9.61 33.01 9.61C33.03 9.77 33.06 9.92 33.08 10.08C33.08 10.13 33.09 10.18 33.12 10.22C33.2 10.32 33.33 10.31 33.38 10.2C33.41 10.15 33.41 10.1 33.4 10.04C33.36 9.86 33.35 9.68 33.31 9.51C33.28 9.41 33.25 9.31 33.22 9.21C33.2 9.15 33.16 9.11 33.09 9.11C33.01 9.09 32.96 9.13 32.93 9.18C32.89 9.23 32.86 9.28 32.84 9.33C32.79 9.42 32.76 9.52 32.71 9.61C32.7 9.63 32.7 9.65 32.68 9.67C32.68 9.65 32.67 9.65 32.67 9.65C32.59 9.5 32.52 9.35 32.44 9.21C32.43 9.2 32.42 9.19 32.41 9.18C32.38 9.12 32.33 9.09 32.27 9.09C32.2 9.1 32.16 9.14 32.13 9.19C32.11 9.21 32.11 9.23 32.11 9.25C32.08 9.44 32.05 9.63 32.03 9.82C32.01 9.92 32.01 10.03 32.01 10.14C32 10.16 32.01 10.19 32.02 10.21C32.03 10.26 32.07 10.29 32.12 10.3C32.18 10.3 32.22 10.28 32.24 10.24C32.26 10.2 32.27 10.17 32.27 10.14C32.3 10.04 32.32 9.94 32.33 9.84C32.35 9.78 32.35 9.73 32.37 9.67C32.38 9.69 32.39 9.71 32.41 9.72C32.46 9.8 32.52 9.87 32.58 9.92C32.65 9.97 32.71 9.97 32.76 9.91C32.77 9.9 32.78 9.9 32.79 9.88C32.85 9.8 32.92 9.72 32.97 9.64C32.98 9.62 32.99 9.61 33 9.6Z" fill="#3A3B7B" fill-opacity="1.000000" fill-rule="nonzero"/>
		<path id="Vector" d="M18.88 9.45C18.83 9.56 18.82 9.64 18.84 9.71C18.87 9.8 18.92 9.83 19 9.8C19.72 9.63 21.3 10.12 21.88 10.25C22.02 10.28 22.13 10.11 22.04 9.96C21.9 9.81 20.32 9.17 19.72 9.14C19.49 9.13 19.06 9.07 18.88 9.45Z" fill="#3A3B7B" fill-opacity="1.000000" fill-rule="nonzero"/>
		<path id="Vector" d="M25.05 7.39C25.12 7.43 25.17 7.47 25.19 7.52C25.22 7.58 25.2 7.62 25.15 7.64C24.67 7.86 24.04 8.82 23.78 9.15C23.72 9.23 23.58 9.19 23.56 9.06C23.56 8.92 24.12 7.88 24.44 7.59C24.56 7.48 24.76 7.27 25.05 7.39Z" fill="#3A3B7B" fill-opacity="1.000000" fill-rule="nonzero"/>
		<path id="Vector" d="M21.26 6.92C21.35 6.85 21.44 6.83 21.49 6.87C22.21 7.46 22.59 8.39 22.83 9.25C22.84 9.27 22.84 9.3 22.83 9.33C22.83 9.35 22.81 9.38 22.78 9.4C22.74 9.42 22.72 9.43 22.7 9.41C22.39 9 20.59 7.4 21.26 6.92Z" fill="#3A3B7B" fill-opacity="1.000000" fill-rule="nonzero"/>
		<path id="Vector" d="M6.05 17.14C6.22 17.02 6.41 16.91 6.6 16.83C6.81 16.78 7.03 16.79 7.23 16.86C7.43 16.93 7.61 17.07 7.72 17.25C7.82 17.42 7.86 17.62 7.83 17.82C7.8 18.02 7.71 18.2 7.56 18.35C7.45 18.46 7.32 18.56 7.18 18.65C6.55 19.04 5.91 19.41 5.28 19.8C5.15 19.89 5.01 19.98 4.87 20.06C4.65 20.16 4.4 20.19 4.16 20.14C3.92 20.08 3.7 19.95 3.56 19.76C3.45 19.63 3.35 19.49 3.28 19.33C2.68 18.12 2.05 16.91 1.47 15.67C1.2 15.14 0.99 14.52 0.78 13.93C0.68 13.76 0.67 13.56 0.73 13.37C0.79 13.19 0.92 13.03 1.09 12.94C1.27 12.85 1.48 12.82 1.67 12.88C1.87 12.93 2.03 13.05 2.14 13.22C2.45 13.62 2.72 14.04 2.96 14.48C3.56 15.55 4.14 16.62 4.72 17.66C4.75 17.71 4.79 17.77 4.83 17.82C5.26 17.65 5.67 17.42 6.05 17.14Z" fill="#3A3B7B" fill-opacity="1.000000" fill-rule="nonzero"/>
		<path id="Vector" d="M12.27 16.77C10.89 18.31 8.59 17.92 7.43 15.93C6.6 14.52 6.46 12.19 8.25 10.72C8.64 10.41 9.09 10.2 9.58 10.11C10.19 10.02 10.8 10.12 11.34 10.4C11.87 10.67 12.31 11.1 12.58 11.62C13.56 13.33 13.42 15.51 12.27 16.77ZM11.71 13.16C11.57 12.74 11.27 12.38 10.88 12.14C10.66 11.99 10.39 11.92 10.12 11.94C9.85 11.95 9.59 12.06 9.39 12.23C8.6 12.91 8.43 14.52 9.01 15.48C9.08 15.64 9.19 15.78 9.33 15.89C9.46 16 9.62 16.08 9.8 16.13C9.97 16.17 10.15 16.18 10.32 16.16C10.5 16.13 10.67 16.06 10.82 15.97C11.25 15.65 11.56 15.2 11.72 14.7C11.88 14.2 11.87 13.66 11.7 13.17L11.71 13.16Z" fill="#3A3B7B" fill-opacity="1.000000" fill-rule="nonzero"/>
		<path id="Vector" d="M17.89 13.83C17.75 13.86 17.6 13.86 17.46 13.84C17.32 13.81 17.18 13.76 17.06 13.68C16.96 13.63 16.87 13.55 16.8 13.45C16.73 13.36 16.68 13.25 16.66 13.13C16.64 13.02 16.65 12.9 16.68 12.79C16.71 12.68 16.77 12.57 16.85 12.49C16.99 12.31 17.19 12.18 17.41 12.13C17.99 11.97 18.59 11.87 19.19 11.83C19.32 11.82 19.46 11.83 19.59 11.87C19.72 11.9 19.84 11.96 19.94 12.04C20.04 12.12 20.13 12.22 20.19 12.34C20.26 12.45 20.29 12.57 20.31 12.7C20.48 13.33 20.5 13.98 20.36 14.62C19.86 16.67 18.13 17.38 16.19 16.72C15.65 16.55 15.17 16.22 14.82 15.78C14.36 15.25 14.03 14.63 13.86 13.96C13.72 13.36 13.74 12.74 13.9 12.15C14.07 11.55 14.38 11.01 14.81 10.56C15.21 10.06 15.74 9.67 16.34 9.43C16.72 9.23 17.17 9.17 17.59 9.27C17.69 9.29 17.78 9.34 17.84 9.41C17.91 9.48 17.96 9.56 17.99 9.66C18.01 9.75 18.01 9.85 17.98 9.94C17.95 10.03 17.89 10.11 17.82 10.18C17.68 10.3 17.53 10.4 17.37 10.5C16.87 10.8 16.44 11.19 16.1 11.65C15.87 11.94 15.72 12.28 15.64 12.64C15.57 13 15.58 13.37 15.67 13.73C15.8 14.21 16.08 14.65 16.47 14.97C17.7 16.04 19.29 15.01 19.01 13.55C18.61 13.65 18.25 13.75 17.89 13.83Z" fill="#3A3B7B" fill-opacity="1.000000" fill-rule="nonzero"/>
		<path id="Vector" d="M25.38 16.85C23.57 17.92 21.5 16.85 21.05 14.6C20.72 13 21.35 10.75 23.53 9.9C24 9.72 24.5 9.66 25 9.72C25.6 9.82 26.14 10.1 26.56 10.52C26.99 10.94 27.26 11.48 27.35 12.05C27.71 13.96 26.88 16 25.38 16.85ZM26.01 13.25C26.01 12.81 25.84 12.38 25.55 12.04C25.39 11.83 25.16 11.68 24.89 11.61C24.63 11.55 24.35 11.57 24.11 11.68C23.13 12.08 22.44 13.56 22.69 14.65C22.71 14.82 22.76 14.98 22.86 15.13C22.95 15.28 23.07 15.4 23.22 15.5C23.37 15.59 23.54 15.66 23.71 15.68C23.89 15.71 24.07 15.7 24.24 15.65C24.76 15.48 25.21 15.15 25.53 14.72C25.84 14.29 26.01 13.78 26.01 13.25Z" fill="#3A3B7B" fill-opacity="1.000000" fill-rule="nonzero"/>
		<path id="Vector" d="M29.18 17.3C29.15 17.5 29.04 17.67 28.88 17.79C28.72 17.91 28.51 17.97 28.3 17.94C28.1 17.91 27.92 17.81 27.79 17.65C27.67 17.5 27.61 17.3 27.64 17.1C27.67 16.91 27.77 16.73 27.94 16.61C28.1 16.49 28.31 16.44 28.51 16.46C28.71 16.49 28.9 16.59 29.02 16.75C29.15 16.91 29.2 17.1 29.18 17.3ZM28.69 10.08C28.8 9.93 28.95 9.81 29.14 9.75C29.32 9.68 29.52 9.68 29.7 9.73C29.89 9.78 30.06 9.88 30.17 10.03C30.29 10.18 30.35 10.36 30.34 10.55C30.32 10.85 30.27 11.15 30.2 11.44C30.02 12.43 29.84 13.42 29.64 14.4C29.56 14.79 29.44 15.16 29.31 15.56C29.27 15.68 29.19 15.79 29.09 15.88C29.03 15.95 28.95 16 28.87 16.03C28.78 16.07 28.68 16.08 28.59 16.06C28.5 16.05 28.41 16.02 28.34 15.96C28.26 15.91 28.2 15.84 28.16 15.75C28.1 15.61 28.06 15.45 28.06 15.29C28.06 14.63 28.06 13.96 28.1 13.29C28.18 12.33 28.33 11.39 28.55 10.45C28.57 10.33 28.62 10.21 28.69 10.1L28.69 10.08Z" fill="#3A3B7B" fill-opacity="1.000000" fill-rule="nonzero"/>
		<path id="Vector" d="M3.69 21.6C3.63 21.74 3.61 21.9 3.64 22.05C3.66 22.25 3.71 22.44 3.78 22.63C3.87 22.86 3.97 23.09 4.09 23.37C4.12 23.44 4.15 23.5 4.18 23.57C4.35 23.96 4.56 24.44 4.83 25.15C4.91 25.35 4.98 25.55 5.05 25.75C5.08 25.83 5.11 25.92 5.14 26C5.24 26.29 5.42 26.56 5.66 26.76C5.76 26.88 5.9 26.96 6.05 27C6.2 27.05 6.37 27.04 6.52 27C6.67 26.95 6.81 26.86 6.9 26.74C7 26.62 7.06 26.47 7.07 26.32C7.13 26.03 7.11 25.73 7.01 25.45C6.84 24.98 6.66 24.51 6.44 24.05L6.44 24.05C6.09 23.33 5.73 22.62 5.36 21.91L5.36 21.9C5.25 21.72 5.11 21.55 4.94 21.41C4.83 21.29 4.68 21.2 4.51 21.18C4.34 21.15 4.16 21.18 4.01 21.26C3.87 21.34 3.76 21.46 3.69 21.6Z" fill="#3A3B7B" fill-opacity="1.000000" fill-rule="evenodd"/>
		<path id="Vector" d="M9.06 19.83C8.51 19.69 7.93 19.67 7.37 19.77C6.94 19.81 6.51 19.91 6.22 20.1C6.07 20.2 5.95 20.32 5.88 20.48C5.81 20.64 5.8 20.82 5.86 21.02C5.96 21.39 6.09 21.75 6.22 22.11L6.24 22.17L6.24 22.17C6.64 23.21 7.04 24.25 7.45 25.29C7.49 25.45 7.56 25.61 7.65 25.76L7.65 25.76C7.76 25.95 7.9 26.11 8.07 26.25C8.16 26.33 8.26 26.38 8.38 26.4C8.49 26.43 8.61 26.42 8.72 26.38C8.83 26.35 8.93 26.28 9 26.2C9.08 26.11 9.13 26.01 9.14 25.9C9.22 25.6 9.19 25.29 9.08 25C9.04 24.91 9.01 24.81 8.98 24.71C8.97 24.67 8.96 24.64 8.95 24.6C9.88 24.26 10.86 23.79 11.21 22.7C11.34 22.33 11.35 21.92 11.24 21.54C11.13 21.16 10.89 20.82 10.57 20.57C10.13 20.22 9.61 19.97 9.06 19.83ZM7.53 21.16C7.55 21.16 7.57 21.15 7.59 21.15C8.19 21.06 8.81 21.18 9.32 21.49C9.55 21.64 9.64 21.81 9.66 21.97C9.68 22.14 9.61 22.32 9.49 22.5C9.25 22.83 8.81 23.09 8.41 23.14C8.12 22.5 7.83 21.84 7.53 21.16Z" fill="#3A3B7B" fill-opacity="1.000000" fill-rule="evenodd"/>
		<path id="Vector" d="M12.73 18.66C13.39 18.37 14.2 18.32 14.84 18.52C15 18.57 15.14 18.67 15.23 18.8C15.32 18.93 15.37 19.09 15.35 19.25C15.35 19.35 15.33 19.45 15.28 19.54C15.23 19.64 15.15 19.72 15.06 19.78C14.97 19.84 14.87 19.87 14.76 19.89C14.65 19.9 14.54 19.89 14.44 19.86L14.43 19.85L14.43 19.85C14.37 19.82 14.32 19.8 14.26 19.79L14.26 19.79C13.81 19.67 13.39 19.86 13.23 20.1C13.16 20.21 13.15 20.32 13.21 20.42C13.28 20.53 13.44 20.65 13.76 20.74C13.85 20.76 13.94 20.78 14.04 20.81C14.3 20.87 14.56 20.94 14.82 21.03L14.82 21.03C16.02 21.47 16.46 22.37 16.31 23.22C16.16 24.06 15.43 24.82 14.33 25C13.93 25.08 13.51 25.07 13.12 24.95C12.73 24.84 12.38 24.62 12.1 24.33L12.09 24.33C12 24.22 11.94 24.09 11.92 23.95C11.89 23.83 11.9 23.71 11.95 23.59C12 23.48 12.08 23.38 12.19 23.3C12.3 23.22 12.43 23.17 12.57 23.16C12.71 23.15 12.85 23.18 12.97 23.24C13.09 23.3 13.2 23.37 13.3 23.46L13.31 23.46C13.49 23.62 13.7 23.66 13.91 23.62C14.12 23.58 14.32 23.46 14.45 23.3C14.58 23.14 14.63 22.96 14.57 22.77C14.51 22.59 14.32 22.38 13.92 22.21C13.82 22.17 13.71 22.13 13.59 22.1C13.56 22.09 13.53 22.08 13.5 22.07C13.42 22.05 13.33 22.02 13.25 22C13.19 21.98 13.13 21.96 13.07 21.94C12.92 21.89 12.76 21.84 12.62 21.78C12.3 21.67 12.02 21.47 11.83 21.21C11.64 20.94 11.54 20.62 11.55 20.29C11.55 19.5 12.07 18.95 12.73 18.66Z" fill="#3A3B7B" fill-opacity="1.000000" fill-rule="nonzero"/>
		<path id="Vector" d="M21.05 18.58C20.92 18.52 20.78 18.49 20.64 18.49C20.5 18.5 20.36 18.54 20.24 18.61C20.12 18.68 20.02 18.77 19.95 18.89C19.88 18.99 19.83 19.1 19.81 19.21C19.79 19.33 19.79 19.44 19.81 19.56C19.84 19.7 19.86 19.85 19.89 19.99C19.93 20.22 19.97 20.45 20 20.68L20 20.68C20.06 21.05 20.1 21.41 20.1 21.78L20.1 21.79C20.12 22.19 19.98 22.58 19.71 22.88L19.7 22.88C19.61 22.99 19.49 23.07 19.36 23.12C19.22 23.17 19.08 23.18 18.93 23.15C18.79 23.13 18.66 23.06 18.55 22.97C18.45 22.87 18.37 22.75 18.33 22.62C18.25 22.33 18.21 22.04 18.19 21.75L18.33 19.63C18.33 19.6 18.34 19.57 18.34 19.54C18.34 19.48 18.35 19.41 18.35 19.35C18.36 19.26 18.35 19.17 18.33 19.08C18.31 18.99 18.27 18.91 18.19 18.83C18.12 18.76 18.01 18.71 17.89 18.67C17.66 18.61 17.46 18.61 17.3 18.68C17.14 18.74 17.03 18.87 16.95 19.01C16.87 19.15 16.82 19.31 16.78 19.48C16.76 19.6 16.73 19.73 16.71 19.86C16.71 19.9 16.7 19.94 16.69 19.98L16.69 19.98C16.58 20.66 16.54 21.34 16.59 22.03C16.6 22.4 16.68 22.76 16.83 23.1C16.99 23.54 17.29 23.92 17.69 24.2C18.09 24.47 18.56 24.62 19.05 24.63C19.54 24.64 20.02 24.5 20.43 24.24C20.84 23.98 21.15 23.61 21.33 23.18C21.59 22.62 21.71 22.02 21.68 21.41C21.67 20.97 21.64 20.53 21.62 20.08C21.6 19.87 21.59 19.65 21.58 19.44C21.58 19.22 21.5 19.01 21.37 18.84C21.29 18.73 21.18 18.64 21.05 18.58Z" fill="#3A3B7B" fill-opacity="1.000000" fill-rule="nonzero"/>
		<path id="Vector" d="M25.55 21.9C25.54 21.92 25.53 21.94 25.51 21.95C25.41 21.38 25.31 20.81 25.22 20.23C25.18 20.03 25.15 19.82 25.11 19.62L25.11 19.59L25.1 19.57C25.07 19.54 25.07 19.5 25.07 19.42L25.07 19.41L25.07 19.4C25.04 19.24 24.97 19.09 24.85 18.97C24.73 18.85 24.58 18.77 24.42 18.73C24.25 18.69 24.08 18.7 23.92 18.76C23.76 18.81 23.62 18.91 23.52 19.04C23.43 19.14 23.36 19.26 23.31 19.37C23.2 19.63 23.08 19.89 22.96 20.14L22.96 20.15C22.66 20.79 22.36 21.44 22.07 22.09L22.07 22.09C21.89 22.52 21.74 22.96 21.6 23.41C21.57 23.5 21.54 23.58 21.51 23.67C21.46 23.81 21.43 23.96 21.44 24.11C21.43 24.24 21.47 24.38 21.54 24.49C21.61 24.61 21.72 24.7 21.85 24.75C21.99 24.81 22.14 24.83 22.29 24.79C22.44 24.75 22.56 24.67 22.66 24.56C22.78 24.42 22.88 24.27 22.96 24.1C23.21 23.62 23.44 23.13 23.68 22.65C23.77 22.46 23.85 22.29 23.95 22.11C23.96 22.13 23.97 22.15 23.98 22.17C24.08 22.62 24.26 23.04 24.5 23.43C24.55 23.51 24.61 23.59 24.69 23.64C24.77 23.7 24.86 23.74 24.95 23.76C25.05 23.78 25.15 23.78 25.25 23.76C25.34 23.74 25.43 23.7 25.51 23.64L25.67 23.53L26.87 22.56L26.8 22.99C26.7 23.59 26.61 24.19 26.5 24.78C26.44 25.05 26.44 25.32 26.5 25.59C26.53 25.73 26.61 25.87 26.72 25.98C26.83 26.09 26.97 26.16 27.13 26.19C27.29 26.22 27.45 26.2 27.59 26.14C27.74 26.08 27.86 25.99 27.94 25.86C28.14 25.62 28.27 25.34 28.3 25.03C28.35 24.61 28.41 24.17 28.47 23.74C28.53 23.24 28.6 22.74 28.66 22.25L28.66 22.25C28.71 21.72 28.74 21.18 28.74 20.64C28.75 20.47 28.7 20.3 28.61 20.15C28.52 20.01 28.38 19.9 28.21 19.83C28.04 19.76 27.85 19.74 27.66 19.77C27.48 19.81 27.31 19.9 27.19 20.04C26.97 20.24 26.76 20.45 26.56 20.67L26.56 20.67C26.35 20.93 26.14 21.18 25.93 21.44C25.81 21.6 25.68 21.75 25.55 21.9Z" fill="#3A3B7B" fill-opacity="1.000000" fill-rule="nonzero"/>
	</g>
</svg>
