<svg width="107.536133" height="16.705688" viewBox="0 0 107.536 16.7057" fill="none" xmlns="http://www.w3.org/2000/svg" xmlns:xlink="http://www.w3.org/1999/xlink">
	<desc>
			Created with Pixso.
	</desc>
	<defs/>
	<rect id="Icon" rx="-0.348035" width="23.666363" height="16.009598" transform="translate(0.348035 0.348035)" fill="#FFFFFF" fill-opacity="0"/>
	<path id="Vector" d="M13.07 9.14L9.32 15.56L5.57 9.14L13.07 9.14ZM14.08 8.56L4.56 8.56L9.32 16.7L14.08 8.56Z" fill="#263238" fill-opacity="1.000000" fill-rule="nonzero"/>
	<path id="Vector" d="M19.6 1.14L23.35 7.57L15.84 7.57L19.6 1.14ZM19.6 0L14.83 8.13L24.36 8.13L19.6 0Z" fill="#263238" fill-opacity="1.000000" fill-rule="nonzero"/>
	<path id="Vector" d="M0 0L3.99 7.19L8.35 0.18L0 0Z" fill="#4CAF4F" fill-opacity="1.000000" fill-rule="nonzero"/>
	<path id="Vector" d="M9.32 0.63L13.51 7.78L5.12 7.78L9.32 0.63Z" fill="#4CAF4F" fill-opacity="1.000000" fill-rule="nonzero"/>
	<path id="Vector" d="M14.59 9.35L18.78 16.7L10.19 16.7L14.46 9.35L14.59 9.35Z" fill="#4CAF4F" fill-opacity="1.000000" fill-rule="nonzero"/>
	<path id="Vector" d="M15.49 8.9L19.6 16.14L23.76 8.9L15.49 8.9Z" fill="#4CAF4F" fill-opacity="1.000000" fill-rule="nonzero"/>
	<path id="Nexcent" d="M41.78 1.16L41.78 15.33L39.19 15.33L33.03 6.41L32.92 6.41L32.92 15.33L29.93 15.33L29.93 1.16L32.56 1.16L38.67 10.07L38.8 10.07L38.8 1.16L41.78 1.16ZM102.39 2.15L105.34 2.15L105.34 4.7L107.34 4.7L107.34 6.92L105.34 6.92L105.34 12.06C105.34 12.34 105.38 12.55 105.46 12.7C105.55 12.85 105.66 12.95 105.81 13.01C105.96 13.07 106.14 13.1 106.33 13.1C106.47 13.1 106.61 13.09 106.75 13.07C106.89 13.04 106.99 13.02 107.07 13.01L107.53 15.2Q107.31 15.27 106.91 15.36C106.64 15.42 106.32 15.46 105.93 15.48C105.22 15.5 104.6 15.41 104.06 15.19C103.53 14.98 103.12 14.64 102.83 14.18C102.53 13.73 102.39 13.17 102.39 12.48C102.39 12.47 102.39 12.46 102.39 12.45L102.39 6.92L100.94 6.92L100.94 4.7L102.39 4.7L102.39 2.15ZM49.05 15.54C47.95 15.54 47.01 15.32 46.22 14.87C45.44 14.43 44.83 13.79 44.41 12.98Q43.77 11.75 43.77 10.06Q43.77 8.42 44.41 7.19Q44.8 6.43 45.38 5.88L45.38 5.88Q45.75 5.52 46.2 5.25Q46.22 5.25 46.23 5.24Q46.24 5.23 46.25 5.23Q47.4 4.56 48.93 4.56C49.63 4.56 50.28 4.67 50.89 4.9Q51.44 5.1 51.9 5.42Q52.21 5.64 52.48 5.9C52.94 6.35 53.29 6.92 53.55 7.59Q53.93 8.6 53.93 9.96L53.93 10.77L46.69 10.77L46.69 10.78C46.69 11.3 46.78 11.76 46.98 12.14C47.18 12.52 47.46 12.82 47.82 13.03C48.18 13.23 48.6 13.34 49.1 13.34C49.42 13.34 49.72 13.29 50 13.2C50.27 13.11 50.5 12.97 50.69 12.78C50.89 12.6 51.04 12.37 51.14 12.11L53.86 12.29C53.73 12.94 53.44 13.51 53.01 14C52.59 14.49 52.04 14.87 51.37 15.14C50.7 15.41 49.92 15.54 49.05 15.54ZM71.27 15.54C70.19 15.54 69.25 15.31 68.46 14.85C67.68 14.38 67.09 13.73 66.67 12.91Q66.04 11.67 66.04 10.06Q66.04 8.42 66.67 7.19C67.1 6.37 67.7 5.72 68.48 5.26C69.26 4.79 70.19 4.56 71.26 4.56C72.19 4.56 73 4.73 73.7 5.07C74.39 5.4 74.95 5.88 75.35 6.49C75.76 7.1 75.98 7.81 76.02 8.63L73.24 8.63C73.16 8.1 72.95 7.67 72.62 7.35C72.29 7.02 71.85 6.86 71.31 6.86C70.85 6.86 70.45 6.98 70.11 7.23C69.78 7.48 69.51 7.84 69.32 8.31C69.13 8.78 69.04 9.35 69.04 10.02C69.04 10.69 69.13 11.27 69.32 11.75C69.51 12.22 69.77 12.58 70.11 12.83C70.45 13.08 70.85 13.21 71.31 13.21C71.65 13.21 71.95 13.14 72.22 13C72.49 12.86 72.71 12.66 72.89 12.4C73.07 12.13 73.18 11.81 73.24 11.43L76.02 11.43C75.98 12.25 75.76 12.96 75.36 13.58C74.97 14.19 74.42 14.67 73.73 15.02C73.04 15.37 72.22 15.54 71.27 15.54ZM82.76 15.54C81.66 15.54 80.72 15.32 79.93 14.87C79.15 14.43 78.54 13.79 78.12 12.98Q77.48 11.75 77.48 10.06Q77.48 8.42 78.12 7.19C78.54 6.36 79.14 5.72 79.91 5.25Q79.92 5.25 79.94 5.24Q79.95 5.23 79.96 5.23Q81.1 4.56 82.64 4.56C83.34 4.56 83.99 4.67 84.6 4.9C85.21 5.12 85.74 5.46 86.19 5.9C86.64 6.35 87 6.92 87.25 7.59C87.51 8.27 87.63 9.06 87.63 9.96L87.63 10.77L80.4 10.77L80.4 10.78C80.4 11.3 80.49 11.76 80.69 12.14C80.88 12.52 81.16 12.82 81.52 13.03C81.88 13.23 82.31 13.34 82.8 13.34C83.13 13.34 83.43 13.29 83.7 13.2C83.98 13.11 84.21 12.97 84.4 12.78C84.6 12.6 84.74 12.37 84.85 12.11L87.57 12.29C87.43 12.94 87.15 13.51 86.72 14C86.3 14.49 85.75 14.87 85.07 15.14C84.4 15.41 83.63 15.54 82.76 15.54ZM92.51 9.19L92.51 15.33L89.56 15.33L89.56 4.7L92.37 4.7L92.37 6.58L92.49 6.58C92.73 5.96 93.12 5.47 93.68 5.11C94.23 4.74 94.9 4.56 95.69 4.56C96.43 4.56 97.07 4.72 97.62 5.05C98.17 5.37 98.6 5.83 98.9 6.43C99.21 7.03 99.36 7.74 99.36 8.56L99.36 15.33L96.41 15.33L96.41 9.09C96.41 9.08 96.41 9.07 96.41 9.06C96.41 8.42 96.24 7.93 95.91 7.57C95.58 7.2 95.11 7.01 94.52 7.01C94.12 7.01 93.77 7.1 93.47 7.27C93.17 7.44 92.93 7.69 92.76 8.02C92.6 8.34 92.51 8.73 92.51 9.19ZM58.12 4.7L60.08 8.42L62.08 4.7L65.1 4.7L62.02 10.02L65.18 15.33L62.17 15.33L60.08 11.66L58.01 15.33L54.97 15.33L58.12 10.02L55.08 4.7L58.12 4.7ZM46.69 8.94L51.15 8.94C51.15 8.52 51.06 8.14 50.87 7.81C50.69 7.49 50.43 7.23 50.11 7.05C49.78 6.86 49.41 6.76 48.98 6.76C48.53 6.76 48.13 6.87 47.79 7.07Q47.53 7.23 47.33 7.44L47.33 7.44Q47.13 7.64 46.98 7.9C46.81 8.21 46.71 8.56 46.69 8.94ZM80.4 8.94L84.86 8.94C84.86 8.52 84.77 8.14 84.58 7.81C84.4 7.49 84.14 7.23 83.81 7.05C83.49 6.86 83.12 6.76 82.69 6.76C82.24 6.76 81.84 6.87 81.5 7.07C81.15 7.28 80.89 7.55 80.69 7.9C80.51 8.21 80.42 8.56 80.4 8.94Z" fill="#263238" fill-opacity="1.000000" fill-rule="evenodd"/>
</svg>
