<svg width="38.283813" height="33.411316" viewBox="0 0 38.2838 33.4113" fill="none" xmlns="http://www.w3.org/2000/svg" xmlns:xlink="http://www.w3.org/1999/xlink">
	<desc>
			Created with Pixso.
	</desc>
	<defs>
		<clipPath id="clip211_2053">
			<rect id="Logo" rx="-0.348035" width="37.587753" height="20.186014" transform="translate(0.348035 6.505994)" fill="white" fill-opacity="0"/>
		</clipPath>
	</defs>
	<rect id="Logo" rx="-0.348035" width="37.587753" height="20.186014" transform="translate(0.348035 6.505994)" fill="#FFFFFF" fill-opacity="0"/>
	<g clip-path="url(#clip211_2053)">
		<path id="Vector" d="M38.28 13.58C38.28 13.55 38.28 13.52 38.28 13.49C38.28 13.47 38.28 13.44 38.28 13.42L37.99 11.38C37.95 11.14 37.84 10.91 37.68 10.72L37.63 10.66L37.54 10.58L32.63 6.43L32.77 6.57C32.65 6.43 32.51 6.33 32.35 6.26C32.19 6.19 32.02 6.15 31.84 6.15L30.35 6.15C30.11 6.15 29.87 6.22 29.68 6.37C29.48 6.22 29.23 6.15 28.98 6.15L27.49 6.15C27.3 6.15 27.1 6.2 26.93 6.29C26.76 6.38 26.62 6.52 26.52 6.69C26.37 6.92 26.31 7.2 26.36 7.48L26.54 8.77C26.42 8.7 26.28 8.66 26.14 8.66L18.92 8.66C18.66 8.66 18.41 8.74 18.19 8.88C17.98 9.01 17.81 9.19 17.7 9.41L17.15 8.94C16.93 8.74 16.64 8.63 16.34 8.64L5.01 8.64C4.75 8.64 4.5 8.72 4.27 8.85C3.97 9.02 3.74 9.31 3.65 9.64L0.05 21.44C-0.02 21.63 -0.02 21.84 0.03 22.04C0.09 22.24 0.2 22.41 0.36 22.55C0.4 22.58 0.44 22.61 0.49 22.64C0.49 22.64 0.42 22.59 0.37 22.56L5.28 26.71C5.49 26.9 5.76 27 6.05 27L17.46 27C17.72 27 17.98 26.92 18.2 26.79C18.32 26.72 18.44 26.63 18.53 26.53L18.57 26.47L18.64 26.39L18.69 26.3L19.22 26.76C19.42 26.94 19.69 27.04 19.97 27.04L31.41 27.04C31.67 27.03 31.92 26.95 32.14 26.82C32.27 26.75 32.38 26.66 32.47 26.56L32.52 26.5L32.58 26.42C32.61 26.37 32.64 26.32 32.67 26.26C32.7 26.22 32.72 26.17 32.73 26.11L36.02 15.34L36.02 15.25C36.02 15.21 36.02 15.17 36.02 15.14L36.02 15.07C36.02 15.04 36.02 15.02 36.02 14.99C36.02 14.94 36.02 14.89 36.02 14.84L37.07 14.84C37.16 14.85 37.25 14.85 37.34 14.84L37.42 14.84C37.48 14.83 37.53 14.8 37.59 14.77L37.67 14.77L37.81 14.66L37.88 14.61L37.99 14.47L37.99 14.42L38.07 14.29C38.07 14.26 38.07 14.23 38.07 14.21C38.07 14.19 38.07 14.18 38.07 14.17C38.09 14.12 38.1 14.07 38.11 14.02C38.11 14.01 38.11 13.99 38.11 13.98C38.11 13.95 38.11 13.93 38.11 13.91C38.11 13.91 38.28 13.6 38.28 13.58Z" fill="#000000" fill-opacity="1.000000" fill-rule="nonzero"/>
		<path id="Vector" d="M16.67 9.54C16.71 9.58 16.74 9.63 16.75 9.69C16.77 9.74 16.76 9.8 16.74 9.85L13.15 21.64C13.11 21.77 13.01 21.88 12.89 21.94C12.79 22.01 12.68 22.05 12.56 22.05L1.15 22.05C1.06 22.05 0.96 22.01 0.89 21.94C0.85 21.91 0.82 21.86 0.81 21.8C0.8 21.75 0.8 21.69 0.82 21.64L4.42 9.85C4.46 9.72 4.55 9.61 4.67 9.54C4.77 9.48 4.88 9.45 5 9.44L16.41 9.44C16.51 9.44 16.6 9.48 16.67 9.54ZM10.71 19.27L12.86 12.23L6.85 12.23L4.71 19.27L10.71 19.27ZM27.56 9.66C27.6 9.71 27.64 9.74 27.7 9.77C27.75 9.79 27.81 9.8 27.87 9.8L29.36 9.8C29.41 9.8 29.47 9.79 29.52 9.76C29.57 9.73 29.61 9.69 29.64 9.65C29.67 9.61 29.68 9.57 29.69 9.53C29.7 9.48 29.7 9.44 29.7 9.39L29.4 7.3C29.38 7.2 29.33 7.11 29.26 7.03C29.22 6.99 29.17 6.96 29.12 6.93C29.06 6.91 29 6.9 28.94 6.9L27.46 6.9C27.4 6.9 27.35 6.91 27.3 6.94C27.25 6.97 27.21 7 27.18 7.05C27.12 7.16 27.1 7.23 27.12 7.3L27.42 9.39C27.43 9.5 27.48 9.59 27.56 9.66ZM32.26 7.28C32.24 7.18 32.19 7.09 32.12 7.02C32.08 6.97 32.03 6.94 31.98 6.92C31.93 6.89 31.87 6.88 31.81 6.88L30.32 6.88C30.26 6.88 30.21 6.9 30.16 6.92C30.11 6.95 30.07 6.99 30.04 7.03C29.99 7.11 29.97 7.19 29.98 7.28L30.28 9.38C30.3 9.48 30.35 9.57 30.42 9.65C30.46 9.69 30.51 9.73 30.56 9.75C30.61 9.77 30.67 9.78 30.73 9.78L32.22 9.78C32.28 9.78 32.33 9.77 32.38 9.74C32.43 9.72 32.47 9.68 32.5 9.63C32.53 9.6 32.55 9.56 32.56 9.51C32.57 9.47 32.57 9.42 32.56 9.38L32.26 7.28ZM26.25 10.46L26.11 9.43L18.92 9.43C18.81 9.43 18.7 9.47 18.6 9.53C18.54 9.56 18.49 9.61 18.45 9.66C18.41 9.71 18.38 9.77 18.37 9.84L17.77 11.81C17.75 11.86 17.74 11.91 17.75 11.97C17.75 12.02 17.78 12.07 17.82 12.11C17.89 12.17 17.98 12.21 18.07 12.21L26.8 12.21L24.66 19.25L15.95 19.25C15.83 19.25 15.73 19.29 15.63 19.35C15.52 19.42 15.43 19.53 15.4 19.66L14.79 21.63C14.77 21.68 14.76 21.73 14.77 21.78C14.78 21.84 14.81 21.89 14.84 21.93C14.91 21.99 15 22.03 15.1 22.04L26.54 22.04C26.65 22.03 26.77 21.99 26.87 21.93C26.99 21.86 27.08 21.75 27.12 21.63L30.41 10.86L26.71 10.86C26.65 10.86 26.59 10.85 26.53 10.82C26.48 10.8 26.43 10.77 26.39 10.73C26.32 10.66 26.28 10.57 26.25 10.47L26.25 10.46Z" fill="#FFFFFF" fill-opacity="1.000000" fill-rule="nonzero"/>
	</g>
</svg>
