<svg width="36.195557" height="33.411316" viewBox="0 0 36.1956 33.4113" fill="none" xmlns="http://www.w3.org/2000/svg" xmlns:xlink="http://www.w3.org/1999/xlink">
	<desc>
			Created with Pixso.
	</desc>
	<defs>
		<clipPath id="clip211_2077">
			<rect id="Logo" rx="-0.348035" width="35.499546" height="13.225320" transform="translate(0.348035 9.986341)" fill="white" fill-opacity="0"/>
		</clipPath>
	</defs>
	<rect id="Logo" rx="-0.348035" width="35.499546" height="13.225320" transform="translate(0.348035 9.986341)" fill="#FFFFFF" fill-opacity="0"/>
	<g clip-path="url(#clip211_2077)">
		<path id="Vector" d="M8.59 9.63C7.17 9.63 5.82 10.19 4.82 11.19L1.56 14.46C0.56 15.46 0 16.81 0 18.23C0 21.17 2.38 23.55 5.32 23.55C6.74 23.55 8.09 22.99 9.09 21.99L11.35 19.74L17.92 13.16C18.4 12.69 19.05 12.42 19.72 12.42C20.85 12.42 21.81 13.15 22.14 14.17L24.22 12.1C23.27 10.62 21.61 9.63 19.72 9.63C18.31 9.63 16.95 10.19 15.96 11.19L7.12 20.02C6.65 20.5 6 20.77 5.32 20.77C3.92 20.77 2.78 19.63 2.78 18.23C2.78 17.55 3.05 16.9 3.52 16.43L6.79 13.16C7.26 12.69 7.91 12.42 8.59 12.42C9.72 12.42 10.68 13.15 11.01 14.17L13.08 12.1C12.14 10.62 10.48 9.63 8.59 9.63Z" fill="#394149" fill-opacity="1.000000" fill-rule="nonzero"/>
		<path id="Vector" d="M18.26 20.02C17.78 20.5 17.14 20.77 16.46 20.77C15.33 20.77 14.37 20.03 14.04 19.01L11.97 21.09C12.91 22.57 14.57 23.55 16.46 23.55C17.88 23.55 19.23 22.99 20.23 21.99L29.06 13.16C29.54 12.69 30.19 12.42 30.86 12.42C32.27 12.42 33.41 13.56 33.41 14.96C33.41 15.64 33.14 16.29 32.66 16.76L29.4 20.02C28.92 20.5 28.27 20.77 27.6 20.77C26.47 20.77 25.51 20.03 25.18 19.01L23.1 21.09C24.05 22.57 25.71 23.55 27.6 23.55C29.01 23.55 30.37 22.99 31.37 21.99L34.63 18.73C35.63 17.73 36.19 16.38 36.19 14.96C36.19 12.02 33.8 9.63 30.86 9.63C29.45 9.63 28.09 10.19 27.09 11.19L18.26 20.02Z" fill="#394149" fill-opacity="1.000000" fill-rule="nonzero"/>
	</g>
</svg>
