<svg width="132.949341" height="20.653564" viewBox="0 0 132.949 20.6536" fill="none" xmlns="http://www.w3.org/2000/svg" xmlns:xlink="http://www.w3.org/1999/xlink">
	<desc>
			Created with Pixso.
	</desc>
	<defs/>
	<rect id="Icon" rx="-0.430283" width="29.259260" height="19.793028" transform="translate(0.430283 0.430283)" fill="#FFFFFF" fill-opacity="0"/>
	<path id="Vector" d="M16.16 11.3L11.52 19.24L6.88 11.3L16.16 11.3ZM17.4 10.59L5.64 10.59L11.52 20.65L17.4 10.59Z" fill="#FFFFFF" fill-opacity="1.000000" fill-rule="nonzero"/>
	<path id="Vector" d="M24.23 1.42L28.87 9.36L19.59 9.36L24.23 1.42ZM24.23 0L18.34 10.06L30.11 10.06L24.23 0Z" fill="#FFFFFF" fill-opacity="1.000000" fill-rule="nonzero"/>
	<path id="Vector" d="M0 0L4.93 8.89L10.33 0.22L0 0Z" fill="#4CAF4F" fill-opacity="1.000000" fill-rule="nonzero"/>
	<path id="Vector" d="M11.52 0.77L16.7 9.62L6.34 9.62L11.52 0.77Z" fill="#4CAF4F" fill-opacity="1.000000" fill-rule="nonzero"/>
	<path id="Vector" d="M18.03 11.56L23.22 20.65L12.6 20.65L17.87 11.56L18.03 11.56Z" fill="#4CAF4F" fill-opacity="1.000000" fill-rule="nonzero"/>
	<path id="Vector" d="M19.16 11L24.23 19.96L29.37 11L19.16 11Z" fill="#4CAF4F" fill-opacity="1.000000" fill-rule="nonzero"/>
	<path id="Nexcent" d="M51.66 1.43L51.66 18.96L48.46 18.96L40.83 7.93L40.7 7.93L40.7 18.96L37 18.96L37 1.43L40.25 1.43L47.82 12.45L47.97 12.45L47.97 1.43L51.66 1.43ZM126.59 2.66L130.23 2.66L130.23 5.81L132.71 5.81L132.71 8.55L130.23 8.55L130.23 14.92C130.23 15.25 130.28 15.52 130.39 15.7C130.49 15.89 130.63 16.01 130.81 16.09C131 16.16 131.22 16.2 131.46 16.2C131.64 16.2 131.81 16.19 131.98 16.16C132.15 16.12 132.28 16.1 132.37 16.08L132.94 18.79C132.76 18.85 132.5 18.92 132.17 18.99C131.84 19.07 131.44 19.12 130.97 19.14C130.09 19.17 129.32 19.05 128.66 18.78C128 18.52 127.49 18.1 127.13 17.54C126.77 16.98 126.59 16.28 126.59 15.44C126.59 15.42 126.59 15.41 126.59 15.4L126.59 8.55L124.79 8.55L124.79 5.81L126.59 5.81L126.59 2.66ZM60.64 19.21C59.29 19.21 58.12 18.94 57.15 18.39C56.18 17.84 55.43 17.06 54.91 16.05C54.38 15.03 54.12 13.83 54.12 12.44C54.12 11.09 54.38 9.91 54.91 8.88Q55.39 7.95 56.11 7.27Q56.57 6.83 57.12 6.5Q57.14 6.48 57.16 6.47Q57.17 6.47 57.18 6.46Q58.6 5.64 60.49 5.64Q61.79 5.64 62.92 6.06C63.67 6.33 64.32 6.75 64.88 7.3C65.45 7.85 65.89 8.55 66.2 9.39Q66.67 10.64 66.67 12.32L66.67 13.32L57.72 13.32L57.72 13.33C57.72 13.98 57.84 14.54 58.08 15.01C58.33 15.48 58.67 15.85 59.12 16.11C59.56 16.36 60.09 16.49 60.7 16.49C61.1 16.49 61.48 16.43 61.81 16.32C62.15 16.21 62.44 16.03 62.68 15.81C62.92 15.58 63.1 15.3 63.22 14.97L66.6 15.19C66.42 16 66.07 16.71 65.54 17.31C65.02 17.91 64.34 18.38 63.51 18.72Q62.27 19.21 60.64 19.21ZM88.12 19.21C86.77 19.21 85.62 18.93 84.65 18.36C83.68 17.78 82.94 16.98 82.42 15.96Q81.65 14.43 81.65 12.44C81.65 11.09 81.91 9.91 82.43 8.89C82.95 7.87 83.7 7.08 84.66 6.51C85.63 5.93 86.77 5.64 88.1 5.64C89.25 5.64 90.25 5.85 91.11 6.27C91.98 6.68 92.66 7.27 93.16 8.02C93.66 8.77 93.94 9.66 93.99 10.67L90.55 10.67C90.45 10.02 90.2 9.49 89.78 9.09C89.37 8.68 88.83 8.48 88.16 8.48Q87.57 8.48 87.08 8.71L87.08 8.71Q86.87 8.81 86.68 8.94C86.27 9.25 85.94 9.69 85.71 10.27C85.47 10.85 85.36 11.56 85.36 12.38C85.36 13.22 85.47 13.94 85.7 14.52C85.93 15.11 86.26 15.56 86.68 15.87C87.1 16.17 87.6 16.33 88.16 16.33C88.58 16.33 88.95 16.24 89.28 16.07C89.62 15.9 89.9 15.65 90.11 15.33C90.34 15 90.48 14.6 90.55 14.14L93.99 14.14C93.93 15.14 93.66 16.03 93.17 16.79C92.68 17.55 92.01 18.14 91.16 18.57C90.3 19 89.29 19.21 88.12 19.21ZM102.31 19.21C100.96 19.21 99.8 18.94 98.82 18.39C97.85 17.84 97.11 17.06 96.58 16.05C96.06 15.03 95.79 13.83 95.79 12.44C95.79 11.09 96.06 9.91 96.58 8.88C97.11 7.86 97.84 7.07 98.8 6.5C99.75 5.93 100.88 5.64 102.17 5.64C103.04 5.64 103.84 5.78 104.59 6.06Q105.27 6.31 105.84 6.7Q106.22 6.97 106.56 7.3Q107.41 8.13 107.88 9.39C108.19 10.22 108.35 11.2 108.35 12.32L108.35 13.32L99.4 13.32L99.4 13.33C99.4 13.98 99.52 14.54 99.75 15.01C100 15.48 100.35 15.85 100.79 16.11C101.24 16.36 101.76 16.49 102.37 16.49C102.78 16.49 103.15 16.43 103.49 16.32C103.82 16.21 104.11 16.03 104.35 15.81C104.59 15.58 104.77 15.3 104.9 14.97L108.27 15.19C108.1 16 107.75 16.71 107.22 17.31C106.69 17.91 106.01 18.38 105.18 18.72C104.35 19.05 103.4 19.21 102.31 19.21ZM114.37 11.36L114.37 18.96L110.72 18.96L110.72 5.81L114.2 5.81L114.2 8.13L114.35 8.13C114.64 7.37 115.13 6.76 115.82 6.32C116.5 5.87 117.33 5.64 118.31 5.64C119.22 5.64 120.01 5.84 120.69 6.24C121.37 6.64 121.9 7.21 122.28 7.95C122.65 8.69 122.84 9.57 122.84 10.59L122.84 18.96L119.2 18.96L119.2 11.24C119.2 11.23 119.2 11.22 119.2 11.2C119.2 10.42 118.99 9.8 118.58 9.35C118.16 8.9 117.59 8.67 116.86 8.67C116.37 8.67 115.94 8.78 115.56 8.99C115.19 9.2 114.9 9.51 114.69 9.91C114.48 10.31 114.38 10.79 114.37 11.36ZM71.86 5.81L74.27 10.41L76.75 5.81L80.49 5.81L76.68 12.38L80.59 18.96L76.87 18.96L74.27 14.41L71.72 18.96L67.96 18.96L71.86 12.38L68.1 5.81L71.86 5.81ZM57.73 11.06L63.24 11.06C63.24 10.53 63.13 10.07 62.9 9.66C62.67 9.26 62.35 8.94 61.95 8.71C61.55 8.48 61.08 8.36 60.55 8.36C60 8.36 59.51 8.49 59.08 8.75Q58.76 8.94 58.51 9.2Q58.27 9.45 58.09 9.77C57.87 10.16 57.75 10.59 57.73 11.06ZM99.4 11.06L104.91 11.06C104.91 10.53 104.8 10.07 104.57 9.66C104.34 9.26 104.03 8.94 103.62 8.71C103.22 8.48 102.76 8.36 102.23 8.36C101.67 8.36 101.18 8.49 100.76 8.75C100.33 9 100 9.34 99.76 9.77C99.54 10.16 99.42 10.59 99.4 11.06Z" fill="#FFFFFF" fill-opacity="1.000000" fill-rule="evenodd"/>
</svg>
