<svg width="33.411377" height="33.411316" viewBox="0 0 33.4114 33.4113" fill="none" xmlns="http://www.w3.org/2000/svg" xmlns:xlink="http://www.w3.org/1999/xlink">
	<desc>
			Created with Pixso.
	</desc>
	<defs>
		<clipPath id="clip211_2073">
			<rect id="Logo" rx="-0.348035" width="27.842779" height="18.097805" transform="translate(3.132337 7.898145)" fill="white" fill-opacity="0"/>
		</clipPath>
	</defs>
	<rect id="Logo" rx="-0.348035" width="27.842779" height="18.097805" transform="translate(3.132337 7.898145)" fill="#FFFFFF" fill-opacity="0"/>
	<g clip-path="url(#clip211_2073)">
		<path id="Vector" d="M29.53 8.13C29.53 8.46 29.8 8.72 30.13 8.72L30.72 8.72C31.05 8.72 31.32 8.46 31.32 8.13C31.32 7.81 31.05 7.55 30.72 7.55L30.13 7.55C29.8 7.55 29.53 7.81 29.53 8.13Z" fill="#212326" fill-opacity="1.000000" fill-rule="nonzero"/>
		<path id="Vector" d="M12.29 26.34L15.18 26.34L14.34 25.51C14.12 25.29 13.81 25.16 13.5 25.16L12.29 25.16C7.7 25.16 3.97 21.48 3.97 16.94C3.97 12.4 7.7 8.72 12.29 8.72L21.81 8.72C26.4 8.72 30.13 12.4 30.13 16.94C30.13 21.48 26.4 25.16 21.81 25.16L18.25 25.16C17.77 25.16 17.32 24.98 16.99 24.65L16 23.68C15.44 23.12 14.69 22.82 13.9 22.82L12.29 22.82C9.01 22.82 6.35 20.19 6.35 16.94C6.35 13.7 9.01 11.07 12.29 11.07L21.81 11.07C25.09 11.07 27.75 13.7 27.75 16.94C27.75 20.19 25.09 22.82 21.81 22.82L19.52 22.82C19.05 22.82 18.59 22.63 18.26 22.3L17.27 21.33C16.72 20.78 15.96 20.47 15.17 20.47L12.29 20.47C10.32 20.47 8.72 18.89 8.72 16.94C8.72 15 10.32 13.42 12.29 13.42L21.81 13.42C23.78 13.42 25.37 15 25.37 16.94C25.37 18.86 23.81 20.43 21.88 20.47L21.88 20.47L21.01 20.47C20.53 20.47 20.08 20.28 19.75 19.95L18.76 18.98C18.3 18.52 17.71 18.24 17.08 18.15L17.05 18.12L12.29 18.12C11.64 18.12 11.1 17.59 11.1 16.94C11.1 16.29 11.64 15.77 12.29 15.77L21.81 15.77C22.46 15.77 22.99 16.29 22.99 16.94C22.99 17.59 22.46 18.12 21.81 18.12L19.43 18.12L20.27 18.95C20.49 19.17 20.79 19.29 21.11 19.29L21.81 19.29C23.12 19.29 24.18 18.24 24.18 16.94C24.18 15.64 23.12 14.59 21.81 14.59L12.29 14.59C10.98 14.59 9.91 15.64 9.91 16.94C9.91 18.24 10.98 19.29 12.29 19.29L16.66 19.29C17.13 19.29 17.59 19.48 17.92 19.81L18.9 20.78C19.46 21.33 20.22 21.64 21.01 21.64L22.1 21.64L22.1 21.63C24.59 21.48 26.56 19.44 26.56 16.94C26.56 14.35 24.43 12.24 21.81 12.24L12.29 12.24C9.67 12.24 7.54 14.35 7.54 16.94C7.54 19.54 9.67 21.64 12.29 21.64L15.17 21.64C15.64 21.64 16.1 21.83 16.43 22.16L17.42 23.13C17.98 23.68 18.73 23.99 19.52 23.99L21.81 23.99C25.75 23.99 28.94 20.83 28.94 16.94C28.94 13.05 25.75 9.89 21.81 9.89L12.29 9.89C8.35 9.89 5.16 13.05 5.16 16.94C5.16 20.83 8.35 23.99 12.29 23.99L13.9 23.99C14.37 23.99 14.82 24.18 15.16 24.51L16.14 25.48C16.7 26.03 17.46 26.34 18.25 26.34L21.81 26.34C27.06 26.34 31.32 22.13 31.32 16.94C31.32 11.75 27.06 7.55 21.81 7.55L12.29 7.55C7.04 7.55 2.78 11.75 2.78 16.94C2.78 22.13 7.04 26.34 12.29 26.34Z" fill="#212326" fill-opacity="1.000000" fill-rule="nonzero"/>
	</g>
</svg>
